<svg xmlns="http://www.w3.org/2000/svg" xmlns:xlink="http://www.w3.org/1999/xlink" contentStyleType="text/css" height="190px" preserveAspectRatio="none" style="width:256px;height:190px;background:#FFFFFF;" version="1.1" viewBox="0 0 256 190" width="256px" zoomAndPan="magnify"><defs/><g><text fill="#000000" font-family="sans-serif" font-size="12" lengthAdjust="spacing" textLength="15.3398" x="163.4023" y="18.457">R1</text><text fill="#000000" font-family="sans-serif" font-size="12" lengthAdjust="spacing" textLength="15.3398" x="180.7422" y="18.457">R2</text><text fill="#000000" font-family="sans-serif" font-size="12" lengthAdjust="spacing" textLength="15.3398" x="198.082" y="18.457">R3</text><text fill="#000000" font-family="sans-serif" font-size="12" lengthAdjust="spacing" textLength="15.3398" x="215.4219" y="18.457">R4</text><text fill="#000000" font-family="sans-serif" font-size="12" lengthAdjust="spacing" textLength="15.3398" x="232.7617" y="18.457">R5</text><text fill="#000000" font-family="sans-serif" font-size="12" lengthAdjust="spacing" textLength="96.041" x="6" y="35.5508">Session ACTIVE?</text><text fill="#000000" font-family="sans-serif" font-size="12" lengthAdjust="spacing" textLength="8.666" x="163.4023" y="35.5508">N</text><text fill="#000000" font-family="sans-serif" font-size="12" lengthAdjust="spacing" textLength="6" x="180.7422" y="35.5508">J</text><text fill="#000000" font-family="sans-serif" font-size="12" lengthAdjust="spacing" textLength="6" x="198.082" y="35.5508">J</text><text fill="#000000" font-family="sans-serif" font-size="12" lengthAdjust="spacing" textLength="6" x="215.4219" y="35.5508">J</text><text fill="#000000" font-family="sans-serif" font-size="12" lengthAdjust="spacing" textLength="6" x="232.7617" y="35.5508">J</text><text fill="#000000" font-family="sans-serif" font-size="12" lengthAdjust="spacing" textLength="142.7461" x="6" y="52.6445">Koordinate WGS84-g&#252;ltig?</text><text fill="#000000" font-family="sans-serif" font-size="12" lengthAdjust="spacing" textLength="3.9961" x="163.4023" y="52.6445">-</text><text fill="#000000" font-family="sans-serif" font-size="12" lengthAdjust="spacing" textLength="8.666" x="180.7422" y="52.6445">N</text><text fill="#000000" font-family="sans-serif" font-size="12" lengthAdjust="spacing" textLength="6" x="198.082" y="52.6445">J</text><text fill="#000000" font-family="sans-serif" font-size="12" lengthAdjust="spacing" textLength="6" x="215.4219" y="52.6445">J</text><text fill="#000000" font-family="sans-serif" font-size="12" lengthAdjust="spacing" textLength="6" x="232.7617" y="52.6445">J</text><text fill="#000000" font-family="sans-serif" font-size="12" lengthAdjust="spacing" textLength="100.7168" x="6" y="69.7383">Zeitstempel g&#252;ltig?</text><text fill="#000000" font-family="sans-serif" font-size="12" lengthAdjust="spacing" textLength="3.9961" x="163.4023" y="69.7383">-</text><text fill="#000000" font-family="sans-serif" font-size="12" lengthAdjust="spacing" textLength="3.9961" x="180.7422" y="69.7383">-</text><text fill="#000000" font-family="sans-serif" font-size="12" lengthAdjust="spacing" textLength="8.666" x="198.082" y="69.7383">N</text><text fill="#000000" font-family="sans-serif" font-size="12" lengthAdjust="spacing" textLength="6" x="215.4219" y="69.7383">J</text><text fill="#000000" font-family="sans-serif" font-size="12" lengthAdjust="spacing" textLength="6" x="232.7617" y="69.7383">J</text><text fill="#000000" font-family="sans-serif" font-size="12" lengthAdjust="spacing" textLength="105.3633" x="6" y="86.832">Hard-Limit erreicht?</text><text fill="#000000" font-family="sans-serif" font-size="12" lengthAdjust="spacing" textLength="3.9961" x="163.4023" y="86.832">-</text><text fill="#000000" font-family="sans-serif" font-size="12" lengthAdjust="spacing" textLength="3.9961" x="180.7422" y="86.832">-</text><text fill="#000000" font-family="sans-serif" font-size="12" lengthAdjust="spacing" textLength="3.9961" x="198.082" y="86.832">-</text><text fill="#000000" font-family="sans-serif" font-size="12" lengthAdjust="spacing" textLength="6" x="215.4219" y="86.832">J</text><text fill="#000000" font-family="sans-serif" font-size="12" lengthAdjust="spacing" textLength="8.666" x="232.7617" y="86.832">N</text><line style="stroke:#AAAAAA;stroke-width:1.0;" x1="6" x2="162.4023" y1="93.9688" y2="93.9688"/><line style="stroke:#AAAAAA;stroke-width:1.0;" x1="6" x2="162.4023" y1="95.9688" y2="95.9688"/><text fill="#000000" font-family="sans-serif" font-size="12" lengthAdjust="spacing" textLength="112.0723" x="6" y="111.9258">IllegalStateException</text><text fill="#000000" font-family="sans-serif" font-size="12" lengthAdjust="spacing" textLength="8.0039" x="163.4023" y="111.9258">X</text><text fill="#000000" font-family="sans-serif" font-size="12" lengthAdjust="spacing" textLength="153.4043" x="6" y="129.0195">ValidationException COORD</text><text fill="#000000" font-family="sans-serif" font-size="12" lengthAdjust="spacing" textLength="8.0039" x="180.7422" y="129.0195">X</text><text fill="#000000" font-family="sans-serif" font-size="12" lengthAdjust="spacing" textLength="137.4023" x="6" y="146.1133">ValidationException TIME</text><text fill="#000000" font-family="sans-serif" font-size="12" lengthAdjust="spacing" textLength="8.0039" x="198.082" y="146.1133">X</text><text fill="#000000" font-family="sans-serif" font-size="12" lengthAdjust="spacing" textLength="155.4023" x="6" y="163.207">onHardLimitReached / STOP</text><text fill="#000000" font-family="sans-serif" font-size="12" lengthAdjust="spacing" textLength="8.0039" x="215.4219" y="163.207">X</text><text fill="#000000" font-family="sans-serif" font-size="12" lengthAdjust="spacing" textLength="129.7148" x="6" y="180.3008">Fix speichern (+ Events)</text><text fill="#000000" font-family="sans-serif" font-size="12" lengthAdjust="spacing" textLength="8.0039" x="232.7617" y="180.3008">X</text><line style="stroke:#000000;stroke-width:1.0;" x1="5" x2="162.4023" y1="5" y2="5"/><line style="stroke:#000000;stroke-width:1.0;" x1="162.4023" x2="179.7422" y1="5" y2="5"/><line style="stroke:#000000;stroke-width:1.0;" x1="179.7422" x2="197.082" y1="5" y2="5"/><line style="stroke:#000000;stroke-width:1.0;" x1="197.082" x2="214.4219" y1="5" y2="5"/><line style="stroke:#000000;stroke-width:1.0;" x1="214.4219" x2="231.7617" y1="5" y2="5"/><line style="stroke:#000000;stroke-width:1.0;" x1="5" x2="162.4023" y1="183.9375" y2="183.9375"/><line style="stroke:#000000;stroke-width:1.0;" x1="231.7617" x2="249.1016" y1="5" y2="5"/><line style="stroke:#000000;stroke-width:1.0;" x1="162.4023" x2="179.7422" y1="183.9375" y2="183.9375"/><line style="stroke:#000000;stroke-width:1.0;" x1="179.7422" x2="197.082" y1="183.9375" y2="183.9375"/><line style="stroke:#000000;stroke-width:1.0;" x1="197.082" x2="214.4219" y1="183.9375" y2="183.9375"/><line style="stroke:#000000;stroke-width:1.0;" x1="214.4219" x2="231.7617" y1="183.9375" y2="183.9375"/><line style="stroke:#000000;stroke-width:1.0;" x1="231.7617" x2="249.1016" y1="183.9375" y2="183.9375"/><line style="stroke:#000000;stroke-width:1.0;" x1="5" x2="162.4023" y1="56.2813" y2="56.2813"/><line style="stroke:#000000;stroke-width:1.0;" x1="162.4023" x2="179.7422" y1="56.2813" y2="56.2813"/><line style="stroke:#000000;stroke-width:1.0;" x1="179.7422" x2="197.082" y1="56.2813" y2="56.2813"/><line style="stroke:#000000;stroke-width:1.0;" x1="197.082" x2="214.4219" y1="56.2813" y2="56.2813"/><line style="stroke:#000000;stroke-width:1.0;" x1="214.4219" x2="231.7617" y1="56.2813" y2="56.2813"/><line style="stroke:#000000;stroke-width:1.0;" x1="231.7617" x2="249.1016" y1="56.2813" y2="56.2813"/><line style="stroke:#000000;stroke-width:1.0;" x1="5" x2="162.4023" y1="98.4688" y2="98.4688"/><line style="stroke:#000000;stroke-width:1.0;" x1="162.4023" x2="179.7422" y1="98.4688" y2="98.4688"/><line style="stroke:#000000;stroke-width:1.0;" x1="179.7422" x2="197.082" y1="98.4688" y2="98.4688"/><line style="stroke:#000000;stroke-width:1.0;" x1="197.082" x2="214.4219" y1="98.4688" y2="98.4688"/><line style="stroke:#000000;stroke-width:1.0;" x1="214.4219" x2="231.7617" y1="98.4688" y2="98.4688"/><line style="stroke:#000000;stroke-width:1.0;" x1="231.7617" x2="249.1016" y1="98.4688" y2="98.4688"/><line style="stroke:#000000;stroke-width:1.0;" x1="5" x2="162.4023" y1="149.75" y2="149.75"/><line style="stroke:#000000;stroke-width:1.0;" x1="162.4023" x2="179.7422" y1="149.75" y2="149.75"/><line style="stroke:#000000;stroke-width:1.0;" x1="179.7422" x2="197.082" y1="149.75" y2="149.75"/><line style="stroke:#000000;stroke-width:1.0;" x1="197.082" x2="214.4219" y1="149.75" y2="149.75"/><line style="stroke:#000000;stroke-width:1.0;" x1="214.4219" x2="231.7617" y1="149.75" y2="149.75"/><line style="stroke:#000000;stroke-width:1.0;" x1="231.7617" x2="249.1016" y1="149.75" y2="149.75"/><line style="stroke:#000000;stroke-width:1.0;" x1="5" x2="162.4023" y1="22.0938" y2="22.0938"/><line style="stroke:#000000;stroke-width:1.0;" x1="162.4023" x2="179.7422" y1="22.0938" y2="22.0938"/><line style="stroke:#000000;stroke-width:1.0;" x1="179.7422" x2="197.082" y1="22.0938" y2="22.0938"/><line style="stroke:#000000;stroke-width:1.0;" x1="197.082" x2="214.4219" y1="22.0938" y2="22.0938"/><line style="stroke:#000000;stroke-width:1.0;" x1="214.4219" x2="231.7617" y1="22.0938" y2="22.0938"/><line style="stroke:#000000;stroke-width:1.0;" x1="231.7617" x2="249.1016" y1="22.0938" y2="22.0938"/><line style="stroke:#000000;stroke-width:1.0;" x1="5" x2="162.4023" y1="73.375" y2="73.375"/><line style="stroke:#000000;stroke-width:1.0;" x1="162.4023" x2="179.7422" y1="73.375" y2="73.375"/><line style="stroke:#000000;stroke-width:1.0;" x1="179.7422" x2="197.082" y1="73.375" y2="73.375"/><line style="stroke:#000000;stroke-width:1.0;" x1="197.082" x2="214.4219" y1="73.375" y2="73.375"/><line style="stroke:#000000;stroke-width:1.0;" x1="214.4219" x2="231.7617" y1="73.375" y2="73.375"/><line style="stroke:#000000;stroke-width:1.0;" x1="231.7617" x2="249.1016" y1="73.375" y2="73.375"/><line style="stroke:#000000;stroke-width:1.0;" x1="5" x2="162.4023" y1="115.5625" y2="115.5625"/><line style="stroke:#000000;stroke-width:1.0;" x1="162.4023" x2="179.7422" y1="115.5625" y2="115.5625"/><line style="stroke:#000000;stroke-width:1.0;" x1="179.7422" x2="197.082" y1="115.5625" y2="115.5625"/><line style="stroke:#000000;stroke-width:1.0;" x1="197.082" x2="214.4219" y1="115.5625" y2="115.5625"/><line style="stroke:#000000;stroke-width:1.0;" x1="214.4219" x2="231.7617" y1="115.5625" y2="115.5625"/><line style="stroke:#000000;stroke-width:1.0;" x1="231.7617" x2="249.1016" y1="115.5625" y2="115.5625"/><line style="stroke:#000000;stroke-width:1.0;" x1="5" x2="162.4023" y1="166.8438" y2="166.8438"/><line style="stroke:#000000;stroke-width:1.0;" x1="162.4023" x2="179.7422" y1="166.8438" y2="166.8438"/><line style="stroke:#000000;stroke-width:1.0;" x1="179.7422" x2="197.082" y1="166.8438" y2="166.8438"/><line style="stroke:#000000;stroke-width:1.0;" x1="197.082" x2="214.4219" y1="166.8438" y2="166.8438"/><line style="stroke:#000000;stroke-width:1.0;" x1="214.4219" x2="231.7617" y1="166.8438" y2="166.8438"/><line style="stroke:#000000;stroke-width:1.0;" x1="231.7617" x2="249.1016" y1="166.8438" y2="166.8438"/><line style="stroke:#000000;stroke-width:1.0;" x1="5" x2="162.4023" y1="39.1875" y2="39.1875"/><line style="stroke:#000000;stroke-width:1.0;" x1="162.4023" x2="179.7422" y1="39.1875" y2="39.1875"/><line style="stroke:#000000;stroke-width:1.0;" x1="179.7422" x2="197.082" y1="39.1875" y2="39.1875"/><line style="stroke:#000000;stroke-width:1.0;" x1="197.082" x2="214.4219" y1="39.1875" y2="39.1875"/><line style="stroke:#000000;stroke-width:1.0;" x1="214.4219" x2="231.7617" y1="39.1875" y2="39.1875"/><line style="stroke:#000000;stroke-width:1.0;" x1="231.7617" x2="249.1016" y1="39.1875" y2="39.1875"/><line style="stroke:#000000;stroke-width:1.0;" x1="5" x2="162.4023" y1="90.4688" y2="90.4688"/><line style="stroke:#000000;stroke-width:1.0;" x1="162.4023" x2="179.7422" y1="90.4688" y2="90.4688"/><line style="stroke:#000000;stroke-width:1.0;" x1="179.7422" x2="197.082" y1="90.4688" y2="90.4688"/><line style="stroke:#000000;stroke-width:1.0;" x1="197.082" x2="214.4219" y1="90.4688" y2="90.4688"/><line style="stroke:#000000;stroke-width:1.0;" x1="214.4219" x2="231.7617" y1="90.4688" y2="90.4688"/><line style="stroke:#000000;stroke-width:1.0;" x1="231.7617" x2="249.1016" y1="90.4688" y2="90.4688"/><line style="stroke:#000000;stroke-width:1.0;" x1="5" x2="162.4023" y1="132.6563" y2="132.6563"/><line style="stroke:#000000;stroke-width:1.0;" x1="162.4023" x2="179.7422" y1="132.6563" y2="132.6563"/><line style="stroke:#000000;stroke-width:1.0;" x1="179.7422" x2="197.082" y1="132.6563" y2="132.6563"/><line style="stroke:#000000;stroke-width:1.0;" x1="197.082" x2="214.4219" y1="132.6563" y2="132.6563"/><line style="stroke:#000000;stroke-width:1.0;" x1="214.4219" x2="231.7617" y1="132.6563" y2="132.6563"/><line style="stroke:#000000;stroke-width:1.0;" x1="231.7617" x2="249.1016" y1="132.6563" y2="132.6563"/><line style="stroke:#000000;stroke-width:1.0;" x1="5" x2="5" y1="5" y2="22.0938"/><line style="stroke:#000000;stroke-width:1.0;" x1="162.4023" x2="162.4023" y1="5" y2="22.0938"/><line style="stroke:#000000;stroke-width:1.0;" x1="179.7422" x2="179.7422" y1="5" y2="22.0938"/><line style="stroke:#000000;stroke-width:1.0;" x1="197.082" x2="197.082" y1="5" y2="22.0938"/><line style="stroke:#000000;stroke-width:1.0;" x1="214.4219" x2="214.4219" y1="5" y2="22.0938"/><line style="stroke:#000000;stroke-width:1.0;" x1="231.7617" x2="231.7617" y1="5" y2="22.0938"/><line style="stroke:#000000;stroke-width:1.0;" x1="249.1016" x2="249.1016" y1="5" y2="22.0938"/><line style="stroke:#000000;stroke-width:1.0;" x1="5" x2="5" y1="56.2813" y2="73.375"/><line style="stroke:#000000;stroke-width:1.0;" x1="162.4023" x2="162.4023" y1="56.2813" y2="73.375"/><line style="stroke:#000000;stroke-width:1.0;" x1="179.7422" x2="179.7422" y1="56.2813" y2="73.375"/><line style="stroke:#000000;stroke-width:1.0;" x1="197.082" x2="197.082" y1="56.2813" y2="73.375"/><line style="stroke:#000000;stroke-width:1.0;" x1="214.4219" x2="214.4219" y1="56.2813" y2="73.375"/><line style="stroke:#000000;stroke-width:1.0;" x1="231.7617" x2="231.7617" y1="56.2813" y2="73.375"/><line style="stroke:#000000;stroke-width:1.0;" x1="249.1016" x2="249.1016" y1="56.2813" y2="73.375"/><line style="stroke:#000000;stroke-width:1.0;" x1="5" x2="5" y1="98.4688" y2="115.5625"/><line style="stroke:#000000;stroke-width:1.0;" x1="162.4023" x2="162.4023" y1="98.4688" y2="115.5625"/><line style="stroke:#000000;stroke-width:1.0;" x1="179.7422" x2="179.7422" y1="98.4688" y2="115.5625"/><line style="stroke:#000000;stroke-width:1.0;" x1="197.082" x2="197.082" y1="98.4688" y2="115.5625"/><line style="stroke:#000000;stroke-width:1.0;" x1="214.4219" x2="214.4219" y1="98.4688" y2="115.5625"/><line style="stroke:#000000;stroke-width:1.0;" x1="231.7617" x2="231.7617" y1="98.4688" y2="115.5625"/><line style="stroke:#000000;stroke-width:1.0;" x1="249.1016" x2="249.1016" y1="98.4688" y2="115.5625"/><line style="stroke:#000000;stroke-width:1.0;" x1="5" x2="5" y1="149.75" y2="166.8438"/><line style="stroke:#000000;stroke-width:1.0;" x1="162.4023" x2="162.4023" y1="149.75" y2="166.8438"/><line style="stroke:#000000;stroke-width:1.0;" x1="179.7422" x2="179.7422" y1="149.75" y2="166.8438"/><line style="stroke:#000000;stroke-width:1.0;" x1="197.082" x2="197.082" y1="149.75" y2="166.8438"/><line style="stroke:#000000;stroke-width:1.0;" x1="214.4219" x2="214.4219" y1="149.75" y2="166.8438"/><line style="stroke:#000000;stroke-width:1.0;" x1="231.7617" x2="231.7617" y1="149.75" y2="166.8438"/><line style="stroke:#000000;stroke-width:1.0;" x1="249.1016" x2="249.1016" y1="149.75" y2="166.8438"/><line style="stroke:#000000;stroke-width:1.0;" x1="5" x2="5" y1="22.0938" y2="39.1875"/><line style="stroke:#000000;stroke-width:1.0;" x1="162.4023" x2="162.4023" y1="22.0938" y2="39.1875"/><line style="stroke:#000000;stroke-width:1.0;" x1="179.7422" x2="179.7422" y1="22.0938" y2="39.1875"/><line style="stroke:#000000;stroke-width:1.0;" x1="197.082" x2="197.082" y1="22.0938" y2="39.1875"/><line style="stroke:#000000;stroke-width:1.0;" x1="214.4219" x2="214.4219" y1="22.0938" y2="39.1875"/><line style="stroke:#000000;stroke-width:1.0;" x1="231.7617" x2="231.7617" y1="22.0938" y2="39.1875"/><line style="stroke:#000000;stroke-width:1.0;" x1="249.1016" x2="249.1016" y1="22.0938" y2="39.1875"/><line style="stroke:#000000;stroke-width:1.0;" x1="5" x2="5" y1="73.375" y2="90.4688"/><line style="stroke:#000000;stroke-width:1.0;" x1="162.4023" x2="162.4023" y1="73.375" y2="90.4688"/><line style="stroke:#000000;stroke-width:1.0;" x1="179.7422" x2="179.7422" y1="73.375" y2="90.4688"/><line style="stroke:#000000;stroke-width:1.0;" x1="197.082" x2="197.082" y1="73.375" y2="90.4688"/><line style="stroke:#000000;stroke-width:1.0;" x1="214.4219" x2="214.4219" y1="73.375" y2="90.4688"/><line style="stroke:#000000;stroke-width:1.0;" x1="231.7617" x2="231.7617" y1="73.375" y2="90.4688"/><line style="stroke:#000000;stroke-width:1.0;" x1="249.1016" x2="249.1016" y1="73.375" y2="90.4688"/><line style="stroke:#000000;stroke-width:1.0;" x1="5" x2="5" y1="115.5625" y2="132.6563"/><line style="stroke:#000000;stroke-width:1.0;" x1="162.4023" x2="162.4023" y1="115.5625" y2="132.6563"/><line style="stroke:#000000;stroke-width:1.0;" x1="179.7422" x2="179.7422" y1="115.5625" y2="132.6563"/><line style="stroke:#000000;stroke-width:1.0;" x1="197.082" x2="197.082" y1="115.5625" y2="132.6563"/><line style="stroke:#000000;stroke-width:1.0;" x1="214.4219" x2="214.4219" y1="115.5625" y2="132.6563"/><line style="stroke:#000000;stroke-width:1.0;" x1="231.7617" x2="231.7617" y1="115.5625" y2="132.6563"/><line style="stroke:#000000;stroke-width:1.0;" x1="249.1016" x2="249.1016" y1="115.5625" y2="132.6563"/><line style="stroke:#000000;stroke-width:1.0;" x1="5" x2="5" y1="166.8438" y2="183.9375"/><line style="stroke:#000000;stroke-width:1.0;" x1="162.4023" x2="162.4023" y1="166.8438" y2="183.9375"/><line style="stroke:#000000;stroke-width:1.0;" x1="179.7422" x2="179.7422" y1="166.8438" y2="183.9375"/><line style="stroke:#000000;stroke-width:1.0;" x1="197.082" x2="197.082" y1="166.8438" y2="183.9375"/><line style="stroke:#000000;stroke-width:1.0;" x1="214.4219" x2="214.4219" y1="166.8438" y2="183.9375"/><line style="stroke:#000000;stroke-width:1.0;" x1="231.7617" x2="231.7617" y1="166.8438" y2="183.9375"/><line style="stroke:#000000;stroke-width:1.0;" x1="249.1016" x2="249.1016" y1="166.8438" y2="183.9375"/><line style="stroke:#000000;stroke-width:1.0;" x1="5" x2="5" y1="39.1875" y2="56.2813"/><line style="stroke:#000000;stroke-width:1.0;" x1="162.4023" x2="162.4023" y1="39.1875" y2="56.2813"/><line style="stroke:#000000;stroke-width:1.0;" x1="179.7422" x2="179.7422" y1="39.1875" y2="56.2813"/><line style="stroke:#000000;stroke-width:1.0;" x1="197.082" x2="197.082" y1="39.1875" y2="56.2813"/><line style="stroke:#000000;stroke-width:1.0;" x1="214.4219" x2="214.4219" y1="39.1875" y2="56.2813"/><line style="stroke:#000000;stroke-width:1.0;" x1="231.7617" x2="231.7617" y1="39.1875" y2="56.2813"/><line style="stroke:#000000;stroke-width:1.0;" x1="249.1016" x2="249.1016" y1="39.1875" y2="56.2813"/><line style="stroke:#000000;stroke-width:1.0;" x1="5" x2="5" y1="90.4688" y2="98.4688"/><line style="stroke:#000000;stroke-width:1.0;" x1="162.4023" x2="162.4023" y1="90.4688" y2="98.4688"/><line style="stroke:#000000;stroke-width:1.0;" x1="249.1016" x2="249.1016" y1="90.4688" y2="98.4688"/><line style="stroke:#000000;stroke-width:1.0;" x1="5" x2="5" y1="132.6563" y2="149.75"/><line style="stroke:#000000;stroke-width:1.0;" x1="162.4023" x2="162.4023" y1="132.6563" y2="149.75"/><line style="stroke:#000000;stroke-width:1.0;" x1="179.7422" x2="179.7422" y1="132.6563" y2="149.75"/><line style="stroke:#000000;stroke-width:1.0;" x1="197.082" x2="197.082" y1="132.6563" y2="149.75"/><line style="stroke:#000000;stroke-width:1.0;" x1="214.4219" x2="214.4219" y1="132.6563" y2="149.75"/><line style="stroke:#000000;stroke-width:1.0;" x1="231.7617" x2="231.7617" y1="132.6563" y2="149.75"/><line style="stroke:#000000;stroke-width:1.0;" x1="249.1016" x2="249.1016" y1="132.6563" y2="149.75"/><!--SRC=[ZPBFJjj04CRlynGZSKc47B0915b2eJW64X8InI55lMtjmQoqMLkxumW4VRFU-cBrkfH_SgNkuJliVh-P-RHpQbaOja8nFEr03_zvdd7fEmcS73ZfEpc4XAoLXSOlqMgyZeSVcMidaqy2LqLXCga54twzI8xxNlxhfsAP3nl6QmFX6qcsJ9kI5Bwpl_Jnsa2u52Rpfd8Z6SaOakaz3riGxnMvXfCJ62j5kL09r_F53ocLxEAzKBTEUfy4raB9J3ZV6n3DvylHg-VsVv3LU1RZH-Cx3Whj0ZLvbYJIUyfm3vFLVD4oqnyEpkK3sj8b9wEniulnbZJRBhR5Q3Zu0QUaisOZOA64vflP5BTaca_sUy5-qEyDEebWJAZ4_G7w1w5_7Fe3ZE9aXUwz2vsBnHHjKPcKC9EMZVnUkOXTc8Yjm6MbMMuen7b9UZAw-dk1iTvAK-XDFIHCrhCtmr7VEvEkfQb7mVKCHdGdAiKraHRrBkKXHgKV70Om5JglH5uNpmYYeYvi7aCSnRy1]--></g></svg>