<svg xmlns="http://www.w3.org/2000/svg" xmlns:xlink="http://www.w3.org/1999/xlink" contentStyleType="text/css" height="549px" preserveAspectRatio="none" style="width:564px;height:549px;background:#FFFFFF;" version="1.1" viewBox="0 0 564 549" width="564px" zoomAndPan="magnify"><defs/><g><!--cluster Session--><g id="cluster_Session"><rect fill="#F7F7F7" height="227" rx="2.5" ry="2.5" style="stroke:#888888;stroke-width:1.0;" width="498" x="60" y="95.5"/><rect fill="#F7F7F7" height="10" style="stroke:#888888;stroke-width:1.0;" width="15" x="538" y="100.5"/><rect fill="#F7F7F7" height="2" style="stroke:#888888;stroke-width:1.0;" width="4" x="536" y="102.5"/><rect fill="#F7F7F7" height="2" style="stroke:#888888;stroke-width:1.0;" width="4" x="536" y="106.5"/><text fill="#000000" font-family="sans-serif" font-size="14" font-weight="bold" lengthAdjust="spacing" textLength="153.2617" x="232.3691" y="123.0332">DefaultBearingSession</text></g><!--entity I_session--><g id="elem_I_session"><ellipse cx="152" cy="361.5" fill="#F1F1F1" rx="8" ry="8" style="stroke:#181818;stroke-width:0.5;"/><text fill="#000000" font-family="sans-serif" font-size="14" lengthAdjust="spacing" textLength="98.0615" x="102.9692" y="393.0332">BearingSession</text></g><!--entity I_clock--><g id="elem_I_clock"><ellipse cx="462" cy="339.5" fill="#F1F1F1" rx="8" ry="8" style="stroke:#181818;stroke-width:0.5;"/><text fill="#000000" font-family="sans-serif" font-size="14" lengthAdjust="spacing" textLength="60.6826" x="431.6587" y="371.0332">ClockPort</text></g><!--entity I_gpx--><g id="elem_I_gpx"><ellipse cx="462" cy="381.5" fill="#F1F1F1" rx="8" ry="8" style="stroke:#181818;stroke-width:0.5;"/><text fill="#000000" font-family="sans-serif" font-size="14" lengthAdjust="spacing" textLength="88.6758" x="417.6621" y="413.0332">GpxWriterPort</text></g><!--entity I_file--><g id="elem_I_file"><ellipse cx="462" cy="423.5" fill="#F1F1F1" rx="8" ry="8" style="stroke:#181818;stroke-width:0.5;"/><text fill="#000000" font-family="sans-serif" font-size="14" lengthAdjust="spacing" textLength="75.4688" x="424.2656" y="455.0332">FileSinkPort</text></g><!--entity I_w3w--><g id="elem_I_w3w"><ellipse cx="462" cy="466.5" fill="#F1F1F1" rx="8" ry="8" style="stroke:#181818;stroke-width:0.5;"/><text fill="#000000" font-family="sans-serif" font-size="14" lengthAdjust="spacing" textLength="92.5791" x="415.7104" y="498.0332">W3wClientPort</text></g><!--entity I_log--><g id="elem_I_log"><ellipse cx="462" cy="509.5" fill="#F1F1F1" rx="8" ry="8" style="stroke:#181818;stroke-width:0.5;"/><text fill="#000000" font-family="sans-serif" font-size="14" lengthAdjust="spacing" textLength="69.2686" x="427.3657" y="541.0332">LoggerPort</text></g><g id="elem_N"><path d="M6,12 L6,87.4063 L298.0005,87.4063 L298.0005,22 L288.0005,12 L6,12 " fill="#FEFFDD" style="stroke:#181818;stroke-width:0.5;"/><path d="M288.0005,12 L288.0005,22 L298.0005,22 L288.0005,12 " fill="#FEFFDD" style="stroke:#181818;stroke-width:1.0;"/><text fill="#000000" font-family="sans-serif" font-size="13" lengthAdjust="spacing" textLength="265.186" x="12" y="30.4951">Connectors: aggregator liefert den Roh-Track,</text><text fill="#000000" font-family="sans-serif" font-size="13" lengthAdjust="spacing" textLength="256.5278" x="12" y="46.8467">pipeline wendet die Optimierer an, calculator</text><text fill="#000000" font-family="sans-serif" font-size="13" lengthAdjust="spacing" textLength="271.0005" x="12" y="63.1982">erzeugt Snapshots; alle Ports werden &#252;ber den</text><text fill="#000000" font-family="sans-serif" font-size="13" lengthAdjust="spacing" textLength="226.8716" x="12" y="79.5498">Konstruktor injiziert (BearingBootstrap).</text></g><!--entity calc--><g id="elem_calc"><rect fill="#E6FFE6" height="65.2188" rx="2.5" ry="2.5" style="stroke:#888888;stroke-width:0.5;" width="151.2822" x="76.5" y="207"/><rect fill="#E6FFE6" height="10" style="stroke:#888888;stroke-width:0.5;" width="15" x="207.7822" y="212"/><rect fill="#E6FFE6" height="2" style="stroke:#888888;stroke-width:0.5;" width="4" x="205.7822" y="214"/><rect fill="#E6FFE6" height="2" style="stroke:#888888;stroke-width:0.5;" width="4" x="205.7822" y="218"/><text fill="#000000" font-family="sans-serif" font-size="14" lengthAdjust="spacing" textLength="67.6963" x="91.5" y="241.5332">calculator :</text><text fill="#000000" font-family="sans-serif" font-size="14" lengthAdjust="spacing" textLength="111.2822" x="91.5" y="259.1426">BearingCalculator</text></g><!--entity pipe--><g id="elem_pipe"><rect fill="#E6FFE6" height="65.2188" rx="2.5" ry="2.5" style="stroke:#888888;stroke-width:0.5;" width="167.6201" x="68" y="124"/><rect fill="#E6FFE6" height="10" style="stroke:#888888;stroke-width:0.5;" width="15" x="215.6201" y="129"/><rect fill="#E6FFE6" height="2" style="stroke:#888888;stroke-width:0.5;" width="4" x="213.6201" y="131"/><rect fill="#E6FFE6" height="2" style="stroke:#888888;stroke-width:0.5;" width="4" x="213.6201" y="135"/><text fill="#000000" font-family="sans-serif" font-size="14" lengthAdjust="spacing" textLength="56.041" x="83" y="158.5332">pipeline :</text><text fill="#000000" font-family="sans-serif" font-size="14" lengthAdjust="spacing" textLength="127.6201" x="83" y="176.1426">OptimizationPipeline</text></g><!--entity agg--><g id="elem_agg"><rect fill="#E6FFE6" height="65.2188" rx="2.5" ry="2.5" style="stroke:#888888;stroke-width:0.5;" width="144.2686" x="390" y="207"/><rect fill="#E6FFE6" height="10" style="stroke:#888888;stroke-width:0.5;" width="15" x="514.2686" y="212"/><rect fill="#E6FFE6" height="2" style="stroke:#888888;stroke-width:0.5;" width="4" x="512.2686" y="214"/><rect fill="#E6FFE6" height="2" style="stroke:#888888;stroke-width:0.5;" width="4" x="512.2686" y="218"/><text fill="#000000" font-family="sans-serif" font-size="14" lengthAdjust="spacing" textLength="75.4961" x="405" y="241.5332">aggregator :</text><text fill="#000000" font-family="sans-serif" font-size="14" lengthAdjust="spacing" textLength="104.2686" x="405" y="259.1426">TrackAggregator</text></g><!--entity listeners--><g id="elem_listeners"><rect fill="#E6F2FF" height="65.2188" rx="2.5" ry="2.5" style="stroke:#888888;stroke-width:0.5;" width="176.1992" x="374" y="124"/><rect fill="#E6F2FF" height="10" style="stroke:#888888;stroke-width:0.5;" width="15" x="530.1992" y="129"/><rect fill="#E6F2FF" height="2" style="stroke:#888888;stroke-width:0.5;" width="4" x="528.1992" y="131"/><rect fill="#E6F2FF" height="2" style="stroke:#888888;stroke-width:0.5;" width="4" x="528.1992" y="135"/><text fill="#000000" font-family="sans-serif" font-size="14" lengthAdjust="spacing" textLength="59.9102" x="389" y="158.5332">listeners :</text><text fill="#000000" font-family="sans-serif" font-size="14" lengthAdjust="spacing" textLength="136.1992" x="389" y="176.1426">List&lt;BearingListener&gt;</text></g><path d="M152,352.2508 C152,346.8161 152,340.1497 152,333.4844 C152,330.1517 152,326.8193 152,323.6411 C152,323.4425 152,323.2445 152,323.0471 C152,322.9484 152,322.8499 152,322.7515 C152,322.7023 152,322.6532 152,322.6041 " fill="none" style="stroke:#181818;stroke-width:1.0;"/><text fill="#000000" font-family="sans-serif" font-size="13" lengthAdjust="spacing" textLength="64.3271" x="107" y="338.9951">&#171;provided&#187;</text><polygon fill="#181818" points="452.7431,341.4277,444.3332,336.3019,447.7847,340.7837,443.3029,344.2353,452.7431,341.4277" style="stroke:#181818;stroke-width:1.0;"/><path d="M308.1011,322.643 C309.0785,322.7699 310.0558,322.8969 311.0329,323.0238 C312.9871,323.2775 314.9404,323.5312 316.8916,323.7846 C320.7941,324.2914 324.688,324.7971 328.5633,325.3004 C336.314,326.307 343.9903,327.3039 351.5117,328.2807 C366.5544,330.2343 380.9773,332.1074 394.1352,333.8163 C420.4511,337.2339 435.7571,339.2217 446.7931,340.6549 " fill="none" style="stroke:#181818;stroke-width:1.0;stroke-dasharray:7.0,7.0;"/><text fill="#000000" font-family="sans-serif" font-size="13" lengthAdjust="spacing" textLength="36.8608" x="318" y="318.9951">&#171;port&#187;</text><polygon fill="#181818" points="452.993,383.2416,444.7515,377.8493,448.0578,382.4393,443.4678,385.7456,452.993,383.2416" style="stroke:#181818;stroke-width:1.0;"/><path d="M232.1245,322.6687 C233.7832,323.1373 235.4518,323.612 237.1284,324.0925 C243.8351,326.0146 250.6712,328.0297 257.5262,330.1229 C271.2363,334.3094 285.0223,338.8084 298,343.5 C306.2331,346.4764 307.6926,348.7378 316,351.5 C366.9571,368.4432 424.9093,378.6761 447.0708,382.2788 " fill="none" style="stroke:#181818;stroke-width:1.0;stroke-dasharray:7.0,7.0;"/><text fill="#000000" font-family="sans-serif" font-size="13" lengthAdjust="spacing" textLength="36.8608" x="318" y="346.9951">&#171;port&#187;</text><polygon fill="#181818" points="452.7871,424.7469,444.8385,418.9314,447.9006,423.6879,443.1441,426.7499,452.7871,424.7469" style="stroke:#181818;stroke-width:1.0;"/><path d="M264.4331,322.5191 C265.2469,322.8801 266.0577,323.2476 266.8652,323.6216 C268.4802,324.3696 270.0821,325.1438 271.6685,325.9452 C274.8411,327.548 277.9514,329.2594 280.9793,331.0867 C287.0352,334.7413 292.7618,338.8596 298,343.5 C313.5079,357.2382 300.777,372.4468 316,386.5 C335.9313,404.8997 347.9062,398.0895 374,405.5 C402.698,413.6501 431.4226,420.1167 446.9233,423.4761 " fill="none" style="stroke:#181818;stroke-width:1.0;stroke-dasharray:7.0,7.0;"/><text fill="#000000" font-family="sans-serif" font-size="13" lengthAdjust="spacing" textLength="36.8608" x="318" y="381.9951">&#171;port&#187;</text><polygon fill="#181818" points="452.7559,467.7473,444.8104,461.9276,447.8699,466.6857,443.1118,469.7451,452.7559,467.7473" style="stroke:#181818;stroke-width:1.0;"/><path d="M269.5823,322.6321 C269.9738,322.8334 270.3641,323.0366 270.7532,323.2417 C271.5315,323.652 272.3052,324.0701 273.0738,324.4961 C276.1483,326.2 279.1429,328.0307 282.0359,329.9972 C287.8218,333.9302 293.201,338.4067 298,343.5 C323.5875,370.6566 291.6174,397.2567 316,425.5 C334.0163,446.3689 347.7035,439.218 374,447.5 C402.5313,456.4858 431.3399,463.0939 446.8927,466.4733 " fill="none" style="stroke:#181818;stroke-width:1.0;stroke-dasharray:7.0,7.0;"/><text fill="#000000" font-family="sans-serif" font-size="13" lengthAdjust="spacing" textLength="36.8608" x="318" y="420.9951">&#171;port&#187;</text><polygon fill="#181818" points="452.6717,512.8046,443.6062,508.9553,447.6724,512.888,443.7397,516.9542,452.6717,512.8046" style="stroke:#181818;stroke-width:1.0;"/><path d="M271.2286,322.6057 C272.0018,323.0254 272.7698,323.4534 273.5324,323.8898 C276.5826,325.6354 279.5451,327.5154 282.3971,329.5398 C288.1009,333.5888 293.3627,338.2156 298,343.5 C334.4415,385.0266 282.0438,422.9176 316,466.5 C350.4112,510.6663 421.2694,513.3287 446.6726,512.9047 " fill="none" style="stroke:#181818;stroke-width:1.0;stroke-dasharray:7.0,7.0;"/><text fill="#000000" font-family="sans-serif" font-size="13" lengthAdjust="spacing" textLength="36.8608" x="318" y="461.9951">&#171;port&#187;</text><!--SRC=[VLJ1RXCn4BtxAuRqG2kb4Kgb5eKe4Wa28IAe258lICZTdNLCdB5bUxjjAdwB4xV-6EFDRh8HePlB-irxCyypitdXl5Hh2KO-s392M6EK98N18aAquBLQHiYrnongIoAiD3dfvHh2KkQsqgIWa2PW9q8snu0EXgywe9UqIk1L5ypisbb2YeluO13AjHaUYyAZ09ZARAMyBIcVMMCzd1HNwPSYrkVe6_Hr_OXVGcYAw0kP8VIcA3qxNM08V8aUo00VVuJjIOXzdTuxB6HfuX5-yrvRwGWoQRBIoCYbHz-fqSrsO2rD73Z1owB0oqErqmwD9apQBoxgjTx8rERh1g_bYNHSBfNogDhYtpntwEqEghNCE2urEaGaz24fvtmODzxdJM1Iw_Uqb6LO5AcnkzR1-Quj8nYFdRTtEiTyCX7Y9TmYFVsEMaM4Q-jZWDE5pLOOmraVDFtK6uq-mfsMyCbIYBvSfNkSDZQcraO6fJlhpd5cE4NAreFqr6FC4jObVN3tDrxpSKkiIShTTodljS65fZPLJIaOwt9kBggPqToiJfhgekfIvbQfjanhnrWbHDkLmM3IEjnsYAdSdSCmUsFnVyF9rpDXjlISckqSXWLPdWXR_SmBCRD4_65R7qRGMIQ-Tf66aoF1LxiyhpUhp_pTlbP8EQR_1OJjtg973vBwiFyWc8z-WwMAi23fmf8d-WQaCUr2LEXJXQS_jwpbDnPqLs6_9FyknK2m0KXN-Gi0]--></g></svg>