<svg xmlns="http://www.w3.org/2000/svg" xmlns:xlink="http://www.w3.org/1999/xlink" contentStyleType="text/css" height="493px" preserveAspectRatio="none" style="width:757px;height:493px;background:#FFFFFF;" version="1.1" viewBox="0 0 757 493" width="757px" zoomAndPan="magnify"><defs/><g><!--entity Host--><g id="elem_Host"><ellipse cx="59.6997" cy="312.5" fill="#F1F1F1" rx="8" ry="8" style="stroke:#181818;stroke-width:0.5;"/><path d="M59.6997,320.5 L59.6997,347.5 M46.6997,328.5 L72.6997,328.5 M59.6997,347.5 L46.6997,362.5 M59.6997,347.5 L72.6997,362.5 " fill="none" style="stroke:#181818;stroke-width:0.5;"/><text fill="#000000" font-family="sans-serif" font-size="14" lengthAdjust="spacing" textLength="107.3994" x="6" y="378.5332">Host-Anwendung</text></g><!--entity API--><g id="elem_API"><rect fill="#FFF2E6" height="47.6094" rx="2.5" ry="2.5" style="stroke:#E6B87E;stroke-width:0.5;" width="110.0479" x="150" y="265"/><rect fill="#FFF2E6" height="10" style="stroke:#E6B87E;stroke-width:0.5;" width="15" x="240.0479" y="270"/><rect fill="#FFF2E6" height="2" style="stroke:#E6B87E;stroke-width:0.5;" width="4" x="238.0479" y="272"/><rect fill="#FFF2E6" height="2" style="stroke:#E6B87E;stroke-width:0.5;" width="4" x="238.0479" y="276"/><text fill="#000000" font-family="sans-serif" font-size="14" lengthAdjust="spacing" textLength="70.0479" x="165" y="299.5332">bearing-api</text></g><!--entity DOM--><g id="elem_DOM"><rect fill="#FFF2E6" height="47.6094" rx="2.5" ry="2.5" style="stroke:#E6B87E;stroke-width:0.5;" width="137.2822" x="380.5" y="12"/><rect fill="#FFF2E6" height="10" style="stroke:#E6B87E;stroke-width:0.5;" width="15" x="497.7822" y="17"/><rect fill="#FFF2E6" height="2" style="stroke:#E6B87E;stroke-width:0.5;" width="4" x="495.7822" y="19"/><rect fill="#FFF2E6" height="2" style="stroke:#E6B87E;stroke-width:0.5;" width="4" x="495.7822" y="23"/><text fill="#000000" font-family="sans-serif" font-size="14" lengthAdjust="spacing" textLength="97.2822" x="395.5" y="46.5332">bearing-domain</text></g><!--entity I_session--><g id="elem_I_session"><ellipse cx="205" cy="340" fill="#FFFFFF" rx="8" ry="8" style="stroke:#888888;stroke-width:0.5;"/><text fill="#000000" font-family="sans-serif" font-size="14" lengthAdjust="spacing" textLength="98.0615" x="155.9692" y="371.5332">BearingSession</text></g><!--entity I_gpx--><g id="elem_I_gpx"><ellipse cx="449" cy="153" fill="#FFFFFF" rx="8" ry="8" style="stroke:#888888;stroke-width:0.5;"/><text fill="#000000" font-family="sans-serif" font-size="14" lengthAdjust="spacing" textLength="88.6758" x="404.6621" y="184.5332">GpxWriterPort</text></g><!--entity I_clock--><g id="elem_I_clock"><ellipse cx="449" cy="261" fill="#FFFFFF" rx="8" ry="8" style="stroke:#888888;stroke-width:0.5;"/><text fill="#000000" font-family="sans-serif" font-size="14" lengthAdjust="spacing" textLength="60.6826" x="418.6587" y="292.5332">ClockPort</text></g><!--entity I_file--><g id="elem_I_file"><ellipse cx="449" cy="303" fill="#FFFFFF" rx="8" ry="8" style="stroke:#888888;stroke-width:0.5;"/><text fill="#000000" font-family="sans-serif" font-size="14" lengthAdjust="spacing" textLength="75.4688" x="411.2656" y="334.5332">FileSinkPort</text></g><!--entity I_log--><g id="elem_I_log"><ellipse cx="449" cy="345" fill="#FFFFFF" rx="8" ry="8" style="stroke:#888888;stroke-width:0.5;"/><text fill="#000000" font-family="sans-serif" font-size="14" lengthAdjust="spacing" textLength="69.2686" x="414.3657" y="376.5332">LoggerPort</text></g><!--entity I_w3w--><g id="elem_I_w3w"><ellipse cx="449" cy="453" fill="#FFFFFF" rx="8" ry="8" style="stroke:#888888;stroke-width:0.5;"/><text fill="#000000" font-family="sans-serif" font-size="14" lengthAdjust="spacing" textLength="92.5791" x="402.7104" y="484.5332">W3wClientPort</text></g><!--entity GPX--><g id="elem_GPX"><rect fill="#FFF2E6" height="47.6094" rx="2.5" ry="2.5" style="stroke:#E6B87E;stroke-width:0.5;" width="166.082" x="366" y="78"/><rect fill="#FFF2E6" height="10" style="stroke:#E6B87E;stroke-width:0.5;" width="15" x="512.082" y="83"/><rect fill="#FFF2E6" height="2" style="stroke:#E6B87E;stroke-width:0.5;" width="4" x="510.082" y="85"/><rect fill="#FFF2E6" height="2" style="stroke:#E6B87E;stroke-width:0.5;" width="4" x="510.082" y="89"/><text fill="#000000" font-family="sans-serif" font-size="14" lengthAdjust="spacing" textLength="126.082" x="381" y="112.5332">bearing-adapter-gpx</text></g><!--entity SYS--><g id="elem_SYS"><rect fill="#FFF2E6" height="47.6094" rx="2.5" ry="2.5" style="stroke:#E6B87E;stroke-width:0.5;" width="187.8477" x="355" y="186"/><rect fill="#FFF2E6" height="10" style="stroke:#E6B87E;stroke-width:0.5;" width="15" x="522.8477" y="191"/><rect fill="#FFF2E6" height="2" style="stroke:#E6B87E;stroke-width:0.5;" width="4" x="520.8477" y="193"/><rect fill="#FFF2E6" height="2" style="stroke:#E6B87E;stroke-width:0.5;" width="4" x="520.8477" y="197"/><text fill="#000000" font-family="sans-serif" font-size="14" lengthAdjust="spacing" textLength="147.8477" x="370" y="220.5332">bearing-adapter-system</text></g><!--entity W3W--><g id="elem_W3W"><rect fill="#FFF2E6" height="47.6094" rx="2.5" ry="2.5" style="stroke:#E6B87E;stroke-width:0.5;" width="171.5166" x="363" y="378"/><rect fill="#FFF2E6" height="10" style="stroke:#E6B87E;stroke-width:0.5;" width="15" x="514.5166" y="383"/><rect fill="#FFF2E6" height="2" style="stroke:#E6B87E;stroke-width:0.5;" width="4" x="512.5166" y="385"/><rect fill="#FFF2E6" height="2" style="stroke:#E6B87E;stroke-width:0.5;" width="4" x="512.5166" y="389"/><text fill="#000000" font-family="sans-serif" font-size="14" lengthAdjust="spacing" textLength="131.5166" x="378" y="412.5332">bearing-adapter-w3w</text></g><!--entity cloudW3W--><g id="elem_cloudW3W"><path d="M644.0401,387.8376 C645.5238,381.6133 651.2288,379.6257 655.7399,384.7037 C658.561,379.7265 664.5467,378.9259 667.8171,384.173 C671.5781,377.395 675.9254,377.9895 680.2345,383.6248 C682.9878,377.0474 687.6104,375.9335 692.2316,381.8281 C696.1238,376.249 701.4372,377.0987 704.341,382.8816 C708.4851,378.1664 713.6514,379.9712 715.3052,385.5373 C718.2914,380.8363 722.947,379.541 726.4348,384.9871 C730.6981,379.2536 735.6687,379.7922 738.6228,386.2915 C749.5476,388.9712 750.3933,395.0543 745.4283,403.8816 C750.7956,411.4581 747.6706,417.6791 738.3857,417.8886 C736.7015,423.6031 731.6355,424.2636 728.0657,419.8006 C724.297,426.1154 719.612,426.5725 715.3191,420.3327 C712.7405,427.0419 708.4308,426.5107 704.0108,422.2269 C700.9387,429.4492 694.6553,429.2336 690.9749,422.8079 C687.1988,427.9432 681.9939,427.4381 679.7201,421.3071 C675.6178,428.3124 671.7532,427.4555 667.2282,421.7216 C663.1027,426.4291 658.4825,425.7905 655.6524,420.2572 C651.0807,425.4341 645.9691,424.2543 643.6247,417.9283 C634.1685,416.7783 629.4516,411.373 634.5873,401.963 C629.3703,393.3179 635.4859,387.267 644.0401,387.8376 " fill="#F1F1F1" style="stroke:#181818;stroke-width:0.5;"/><text fill="#000000" font-family="sans-serif" font-size="14" lengthAdjust="spacing" textLength="80.9102" x="650" y="407.5332">What3Words</text></g><!--entity dbFS--><g id="elem_dbFS"><path d="M642,196.5 C642,186.5 690.5103,186.5 690.5103,186.5 C690.5103,186.5 739.0205,186.5 739.0205,196.5 L739.0205,223.1094 C739.0205,233.1094 690.5103,233.1094 690.5103,233.1094 C690.5103,233.1094 642,233.1094 642,223.1094 L642,196.5 " fill="#F1F1F1" style="stroke:#181818;stroke-width:0.5;"/><path d="M642,196.5 C642,206.5 690.5103,206.5 690.5103,206.5 C690.5103,206.5 739.0205,206.5 739.0205,196.5 " fill="none" style="stroke:#181818;stroke-width:0.5;"/><text fill="#000000" font-family="sans-serif" font-size="14" lengthAdjust="spacing" textLength="77.0205" x="652" y="225.0332">Dateisystem</text></g><path d="M205,313.1458 C205,319.019 205,324.8923 205,330.7656 " fill="none" style="stroke:#181818;stroke-width:1.0;"/><path d="M449,126.1458 C449,132.019 449,137.8923 449,143.7656 " fill="none" style="stroke:#181818;stroke-width:1.0;"/><path d="M449,234.1458 C449,240.019 449,245.8923 449,251.7656 " fill="none" style="stroke:#181818;stroke-width:1.0;"/><path d="M354.7567,224.5668 C317.0836,234.5107 286.9375,250.6208 307.5,276 C340.5399,316.7793 413.9443,310.9692 439.7838,307.4613 " fill="none" style="stroke:#181818;stroke-width:1.0;"/><path d="M354.7845,219.944 C336.3513,226.3498 319.1482,236.3922 307.5,252 C289.9557,275.5083 289.034,295.2085 307.5,318 C340.5399,358.7793 413.9443,352.9692 439.7838,349.4613 " fill="none" style="stroke:#181818;stroke-width:1.0;"/><path d="M449,426.1458 C449,432.019 449,437.8923 449,443.7656 " fill="none" style="stroke:#181818;stroke-width:1.0;"/><polygon fill="#181818" points="195.5592,343,186.5592,339,190.5592,343,186.5592,347,195.5592,343" style="stroke:#181818;stroke-width:1.0;"/><path d="M113.1193,343 C143.8354,343 173.5977,343 189.5592,343 " fill="none" style="stroke:#181818;stroke-width:1.0;stroke-dasharray:7.0,7.0;"/><polygon fill="#181818" points="439.921,156.6751,430.5733,153.5733,434.9449,157.1634,431.3547,161.535,439.921,156.6751" style="stroke:#181818;stroke-width:1.0;"/><path d="M230.9812,264.8706 C258.9401,239.2242 306.6862,199.3526 355,177 C384.444,163.3776 417.3455,158.8907 433.9497,157.2611 " fill="none" style="stroke:#181818;stroke-width:1.0;stroke-dasharray:7.0,7.0;"/><polygon fill="#181818" points="439.6879,264.8587,430.3245,261.8047,434.7144,265.3725,431.1466,269.7623,439.6879,264.8587" style="stroke:#181818;stroke-width:1.0;"/><path d="M260.0083,283.4206 C319.9084,277.2326 405.8244,268.357 433.7196,265.4752 " fill="none" style="stroke:#181818;stroke-width:1.0;stroke-dasharray:7.0,7.0;"/><polygon fill="#181818" points="439.6879,305.4161,430.9903,300.7952,434.7002,305.0657,430.4297,308.7756,439.6879,305.4161" style="stroke:#181818;stroke-width:1.0;"/><path d="M260.0083,292.794 C319.9084,297.0018 405.8074,303.0361 433.7026,304.9956 " fill="none" style="stroke:#181818;stroke-width:1.0;stroke-dasharray:7.0,7.0;"/><polygon fill="#181818" points="439.7715,346.222,431.8254,340.4031,434.8854,345.1609,430.1276,348.2209,439.7715,346.222" style="stroke:#181818;stroke-width:1.0;"/><path d="M260.0536,303.1684 C288.2982,310.4747 323.4626,319.4193 355,327 C386.2222,334.5049 417.668,341.4217 433.9082,344.9486 " fill="none" style="stroke:#181818;stroke-width:1.0;stroke-dasharray:7.0,7.0;"/><polygon fill="#181818" points="439.8957,455.87,431.0471,451.5455,434.899,455.6882,430.7563,459.5402,439.8957,455.87" style="stroke:#181818;stroke-width:1.0;"/><path d="M248.5012,313.123 C252.5151,315.9436 256.4176,318.92 260,322 C309.7522,364.7751 298.9578,400.8787 355,435 C382.8519,451.9576 416.9145,455.034 433.8997,455.6519 " fill="none" style="stroke:#181818;stroke-width:1.0;stroke-dasharray:7.0,7.0;"/><polygon fill="#181818" points="380.3006,54.2074,370.4518,54.2504,375.7404,56.258,373.7328,61.5466,380.3006,54.2074" style="stroke:#181818;stroke-width:1.0;"/><path d="M216.1441,264.7837 C236.155,219.8399 284.9349,123.1797 355,69 C362.5896,63.1311 365.8368,60.7116 374.8284,56.6681 " fill="none" style="stroke:#181818;stroke-width:1.0;"/><text fill="#000000" font-family="sans-serif" font-size="13" lengthAdjust="spacing" textLength="55.6372" x="280" y="83.4951">Fachlogik</text><polygon fill="#181818" points="634.9267,402,625.9267,398,629.9267,402,625.9267,406,634.9267,402" style="stroke:#181818;stroke-width:1.0;"/><path d="M535.1131,402 C568.3226,402 599.4207,402 628.9267,402 " fill="none" style="stroke:#181818;stroke-width:1.0;stroke-dasharray:7.0,7.0;"/><text fill="#000000" font-family="sans-serif" font-size="13" lengthAdjust="spacing" textLength="42.6118" x="568" y="397.4951">HTTPS</text><polygon fill="#181818" points="641.9387,210,632.9387,206,636.9387,210,632.9387,214,641.9387,210" style="stroke:#181818;stroke-width:1.0;"/><path d="M543.2827,210 C577.0379,210 607.7465,210 635.9387,210 " fill="none" style="stroke:#181818;stroke-width:1.0;stroke-dasharray:7.0,7.0;"/><text fill="#000000" font-family="sans-serif" font-size="13" lengthAdjust="spacing" textLength="52.0127" x="563" y="205.4951">Datei-I/O</text><!--SRC=[VLF1Rjim3BthAxZiq9FR8G7QeeS2ROgq0ROrW0kuEnMCJJj2PCcGP2JPi7yV9TUe46JLZO_FVEGZ_QMpsBG82W-cz-1QygXHAAezU0DMDXiFbRHKUccqS5kfExJOWjjWPNPIDr2ZSfHajAd8KGVJQG9QrDi0NdrBmDAqdT6aVUuFYg1lrVHK5lu8W7iijuqrlQxcHXaBN-kwdj9bo1XRaNr7wN9zVKNYRr97Qa-snfB-MuVVSPth-BYEmD8pC7aopcTtUaUwwdKp0NGG824-sfoi2Iqxac4d8-5kjJoLhaoBKaV6m_CF8JuQdDmFb9oSOxiZPVdcXYZbFNRxmaeELyRwTrhJxLFAN9boEwJ3YvGoO2bf8HNbKe-yIAePIpdVJTECGcCXPPgKKinsSoLvoAITtMntsfmAE_umutR7Ue-hry-Oxk0yjR5i_Yl_ZCcQOyrYLh2yCdqLW4cnGJyhUCCkrec9GAdGuneTp_20dcGYLQqNkH1di2PBqZV42QKyGLvkjFG-XgG5xnWWY_z9bkoAHqhXi1lkFOM6NHo1qViZB7ZDhQPGzFOCVlR-Dn-Z28S8v-UtYNviQu22TX8EkWaGDPCuw2LXq1g6p6x3lS8DBB3SC4jkGnEqP-Sr-nAjezXg-7AqcFbFBo-hF8uL4i7OU98t43tFbXVF_m00]--></g></svg>