<svg xmlns="http://www.w3.org/2000/svg" xmlns:xlink="http://www.w3.org/1999/xlink" contentStyleType="text/css" height="453px" preserveAspectRatio="none" style="width:1408px;height:453px;background:#FFFFFF;" version="1.1" viewBox="0 0 1408 453" width="1408px" zoomAndPan="magnify"><defs/><g><g id="elem_session"><rect fill="#E6F2FF" height="64.8281" style="stroke:#7EB8E6;stroke-width:0.5;" width="215.5576" x="598" y="12"/><text fill="#000000" font-family="sans-serif" font-size="14" lengthAdjust="spacing" textLength="201.5576" x="605" y="28.5332">session : DefaultBearingSession</text><line style="stroke:#7EB8E6;stroke-width:0.5;" x1="599" x2="812.5576" y1="33.6094" y2="33.6094"/><text fill="#000000" font-family="sans-serif" font-size="14" lengthAdjust="spacing" textLength="116.3135" x="604" y="52.1426">lifecycle = ACTIVE</text><text fill="#000000" font-family="sans-serif" font-size="14" lengthAdjust="spacing" textLength="135.167" x="604" y="69.752">sessionId = 7c9e&#8230;-v4</text></g><g id="elem_cfg"><rect fill="#E6F2FF" height="117.6563" style="stroke:#7EB8E6;stroke-width:0.5;" width="207.7061" x="6" y="133"/><text fill="#000000" font-family="sans-serif" font-size="14" lengthAdjust="spacing" textLength="181.3232" x="19.1914" y="149.5332">frozenConfig : SessionConfig</text><line style="stroke:#7EB8E6;stroke-width:0.5;" x1="7" x2="212.7061" y1="154.6094" y2="154.6094"/><text fill="#000000" font-family="sans-serif" font-size="14" lengthAdjust="spacing" textLength="114.7754" x="12" y="173.1426">softLimitPoints = 0</text><text fill="#000000" font-family="sans-serif" font-size="14" lengthAdjust="spacing" textLength="120.2305" x="12" y="190.752">hardLimitPoints = 0</text><text fill="#000000" font-family="sans-serif" font-size="14" lengthAdjust="spacing" textLength="195.7061" x="12" y="208.3613">segmentGapThreshold = PT5M</text><text fill="#000000" font-family="sans-serif" font-size="14" lengthAdjust="spacing" textLength="129.5479" x="12" y="225.9707">maxFixAge = PT24H</text><text fill="#000000" font-family="sans-serif" font-size="14" lengthAdjust="spacing" textLength="87.5273" x="12" y="243.5801">optimizers = []</text></g><g id="elem_target"><rect fill="#E6F2FF" height="64.8281" style="stroke:#7EB8E6;stroke-width:0.5;" width="156.4199" x="232" y="159.5"/><text fill="#000000" font-family="sans-serif" font-size="14" lengthAdjust="spacing" textLength="142.4199" x="239" y="176.0332">target : GeoCoordinate</text><line style="stroke:#7EB8E6;stroke-width:0.5;" x1="233" x2="387.4199" y1="181.1094" y2="181.1094"/><text fill="#000000" font-family="sans-serif" font-size="14" lengthAdjust="spacing" textLength="121.8164" x="238" y="199.6426">latitudeDeg = 48.78</text><text fill="#000000" font-family="sans-serif" font-size="14" lengthAdjust="spacing" textLength="125.7129" x="238" y="217.252">longitudeDeg = 9.18</text></g><g id="elem_agg"><rect fill="#E6F2FF" height="82.4375" style="stroke:#7EB8E6;stroke-width:0.5;" width="197.6543" x="406" y="151"/><text fill="#000000" font-family="sans-serif" font-size="14" lengthAdjust="spacing" textLength="183.6543" x="413" y="167.5332">aggregator : TrackAggregator</text><line style="stroke:#7EB8E6;stroke-width:0.5;" x1="407" x2="602.6543" y1="172.6094" y2="172.6094"/><text fill="#000000" font-family="sans-serif" font-size="14" lengthAdjust="spacing" textLength="100.0098" x="412" y="191.1426">storedCount = 2</text><text fill="#000000" font-family="sans-serif" font-size="14" lengthAdjust="spacing" textLength="117.1133" x="412" y="208.752">softWarned = false</text><text fill="#000000" font-family="sans-serif" font-size="14" lengthAdjust="spacing" textLength="156.0508" x="412" y="226.3613">recordingStopped = false</text></g><g id="elem_seg"><rect fill="#E6F2FF" height="37.6094" style="stroke:#7EB8E6;stroke-width:0.5;" width="139.2754" x="382.5" y="307"/><text fill="#000000" font-family="sans-serif" font-size="14" lengthAdjust="spacing" textLength="125.2754" x="389.5" y="323.5332">seg : TrackSegment</text><line style="stroke:#7EB8E6;stroke-width:0.5;" x1="383.5" x2="520.7754" y1="328.6094" y2="328.6094"/></g><g id="elem_p1"><rect fill="#E6F2FF" height="64.8281" style="stroke:#7EB8E6;stroke-width:0.5;" width="166.9023" x="289.5" y="382"/><text fill="#000000" font-family="sans-serif" font-size="14" lengthAdjust="spacing" textLength="84.8271" x="330.5376" y="398.5332">p1 : GpsPoint</text><line style="stroke:#7EB8E6;stroke-width:0.5;" x1="290.5" x2="455.4023" y1="403.6094" y2="403.6094"/><text fill="#000000" font-family="sans-serif" font-size="14" lengthAdjust="spacing" textLength="105.4512" x="295.5" y="422.1426">time = 10:00:00Z</text><text fill="#000000" font-family="sans-serif" font-size="14" lengthAdjust="spacing" textLength="154.9023" x="295.5" y="439.752">lat = 48.770 / lon = 9.170</text></g><g id="elem_p2"><rect fill="#E6F2FF" height="64.8281" style="stroke:#7EB8E6;stroke-width:0.5;" width="166.9023" x="474.5" y="382"/><text fill="#000000" font-family="sans-serif" font-size="14" lengthAdjust="spacing" textLength="84.8271" x="515.5376" y="398.5332">p2 : GpsPoint</text><line style="stroke:#7EB8E6;stroke-width:0.5;" x1="475.5" x2="640.4023" y1="403.6094" y2="403.6094"/><text fill="#000000" font-family="sans-serif" font-size="14" lengthAdjust="spacing" textLength="105.4512" x="480.5" y="422.1426">time = 10:00:02Z</text><text fill="#000000" font-family="sans-serif" font-size="14" lengthAdjust="spacing" textLength="154.9023" x="480.5" y="439.752">lat = 48.771 / lon = 9.171</text></g><g id="elem_fix"><rect fill="#E6F2FF" height="64.8281" style="stroke:#7EB8E6;stroke-width:0.5;" width="166.9023" x="622.5" y="159.5"/><text fill="#000000" font-family="sans-serif" font-size="14" lengthAdjust="spacing" textLength="96.4551" x="657.7236" y="176.0332">lastFix : GpsFix</text><line style="stroke:#7EB8E6;stroke-width:0.5;" x1="623.5" x2="788.4023" y1="181.1094" y2="181.1094"/><text fill="#000000" font-family="sans-serif" font-size="14" lengthAdjust="spacing" textLength="105.4512" x="628.5" y="199.6426">time = 10:00:02Z</text><text fill="#000000" font-family="sans-serif" font-size="14" lengthAdjust="spacing" textLength="154.9023" x="628.5" y="217.252">lat = 48.771 / lon = 9.171</text></g><g id="elem_calc"><rect fill="#E6F2FF" height="37.6094" style="stroke:#7EB8E6;stroke-width:0.5;" width="196.8682" x="807.5" y="173"/><text fill="#000000" font-family="sans-serif" font-size="14" lengthAdjust="spacing" textLength="182.8682" x="814.5" y="189.5332">calculator : BearingCalculator</text><line style="stroke:#7EB8E6;stroke-width:0.5;" x1="808.5" x2="1003.3682" y1="194.6094" y2="194.6094"/></g><g id="elem_clock"><rect fill="#E6F2FF" height="37.6094" style="stroke:#7EB8E6;stroke-width:0.5;" width="188.2822" x="1023" y="173"/><text fill="#000000" font-family="sans-serif" font-size="14" lengthAdjust="spacing" textLength="174.2822" x="1030" y="189.5332">clock : SystemClockAdapter</text><line style="stroke:#7EB8E6;stroke-width:0.5;" x1="1024" x2="1210.2822" y1="194.6094" y2="194.6094"/></g><g id="elem_gpx"><rect fill="#E6F2FF" height="37.6094" style="stroke:#7EB8E6;stroke-width:0.5;" width="172.6758" x="1229.5" y="173"/><text fill="#000000" font-family="sans-serif" font-size="14" lengthAdjust="spacing" textLength="158.6758" x="1236.5" y="189.5332">gpxWriter : GpxXmlWriter</text><line style="stroke:#7EB8E6;stroke-width:0.5;" x1="1230.5" x2="1401.1758" y1="194.6094" y2="194.6094"/></g><polygon fill="#181818" points="214.3005,136.4776,224.1459,136.7357,218.9212,134.5673,221.0895,129.3426,214.3005,136.4776" style="stroke:#181818;stroke-width:1.0;"/><path d="M597.8173,53.3833 C497.8061,63.3715 346.4521,85.4233 223,133 C220.1193,134.1102 222.7606,132.9801 219.8453,134.1853 " fill="none" style="stroke:#181818;stroke-width:1.0;"/><text fill="#000000" font-family="sans-serif" font-size="13" lengthAdjust="spacing" textLength="73.709" x="341" y="110.4951">frozenConfig</text><polygon fill="#181818" points="351.8078,159.2996,361.4977,157.5368,355.9397,156.4839,356.9926,150.9259,351.8078,159.2996" style="stroke:#181818;stroke-width:1.0;"/><path d="M597.9554,67.3505 C537.2521,81.7601 461.0514,103.4714 397,133 C381.5037,140.144 370.6158,146.4828 356.766,155.9208 " fill="none" style="stroke:#181818;stroke-width:1.0;"/><text fill="#000000" font-family="sans-serif" font-size="13" lengthAdjust="spacing" textLength="33.2427" x="498" y="110.4951">target</text><polygon fill="#181818" points="559.3444,150.8585,568.965,148.7505,563.3729,147.8969,564.2265,142.3048,559.3444,150.8585" style="stroke:#181818;stroke-width:1.0;"/><path d="M661.1087,77.0757 C652.7451,83.0063 644.0934,89.1735 636,95 C610.7141,113.2035 587.6842,130.0244 564.1786,147.3046 " fill="none" style="stroke:#181818;stroke-width:1.0;"/><text fill="#000000" font-family="sans-serif" font-size="13" lengthAdjust="spacing" textLength="62.8799" x="638" y="110.4951">aggregator</text><polygon fill="#181818" points="706,159.4903,710,150.4903,706,154.4903,702,150.4903,706,159.4903" style="stroke:#181818;stroke-width:1.0;"/><path d="M706,77.0713 C706,101.4766 706,129.1006 706,153.4903 " fill="none" style="stroke:#181818;stroke-width:1.0;"/><text fill="#000000" font-family="sans-serif" font-size="13" lengthAdjust="spacing" textLength="37.5591" x="708" y="110.4951">lastFix</text><polygon fill="#181818" points="881.2457,172.9912,876.321,164.462,877.2024,170.0498,871.6146,170.9312,881.2457,172.9912" style="stroke:#181818;stroke-width:1.0;"/><path d="M749.397,77.0713 C789.722,106.4077 843.5052,145.535 876.3938,169.4615 " fill="none" style="stroke:#181818;stroke-width:1.0;"/><text fill="#000000" font-family="sans-serif" font-size="13" lengthAdjust="spacing" textLength="55.6372" x="803" y="110.4951">calculator</text><polygon fill="#181818" points="1088.7586,172.8967,1083.17,164.787,1084.4938,170.2868,1078.9941,171.6106,1088.7586,172.8967" style="stroke:#181818;stroke-width:1.0;"/><path d="M814.269,69.8467 C874.0169,84.8879 948.882,106.4044 1013,133 C1039.7344,144.0892 1063.2139,157.2638 1083.6409,169.7648 " fill="none" style="stroke:#181818;stroke-width:1.0;"/><text fill="#000000" font-family="sans-serif" font-size="13" lengthAdjust="spacing" textLength="29.6182" x="967" y="110.4951">clock</text><polygon fill="#181818" points="1291.643,172.7779,1286.5639,164.3397,1287.5469,169.9105,1281.9761,170.8935,1291.643,172.7779" style="stroke:#181818;stroke-width:1.0;"/><path d="M814.1545,52.0084 C920.3485,61.127 1085.5177,82.6831 1220,133 C1246.0797,142.7578 1268.0628,156.271 1286.7277,169.3371 " fill="none" style="stroke:#181818;stroke-width:1.0;"/><text fill="#000000" font-family="sans-serif" font-size="13" lengthAdjust="spacing" textLength="55.6182" x="1169" y="110.4951">gpxWriter</text><polygon fill="#181818" points="459.2548,306.9314,466.3202,300.0699,461.1178,302.2914,458.8963,297.089,459.2548,306.9314" style="stroke:#181818;stroke-width:1.0;"/><path d="M488.8103,233.3216 C478.947,257.8866 469.0618,282.5063 461.4904,301.3634 " fill="none" style="stroke:#181818;stroke-width:1.0;"/><text fill="#000000" font-family="sans-serif" font-size="13" lengthAdjust="spacing" textLength="40.46" x="476" y="284.4951">current</text><polygon fill="#181818" points="401.8631,381.8967,410.8861,377.9486,405.235,378.2047,404.9789,372.5537,401.8631,381.8967" style="stroke:#181818;stroke-width:1.0;"/><path d="M435.2461,345.3444 C425.5535,355.9572 417.1353,365.1746 405.9094,377.4663 " fill="none" style="stroke:#181818;stroke-width:1.0;"/><polygon fill="#181818" points="519.0974,381.754,514.6534,372.9647,515.2235,378.5928,509.5955,379.1629,519.0974,381.754" style="stroke:#181818;stroke-width:1.0;"/><path d="M474.2211,345.1332 C487.2126,355.7348 499.3314,365.6242 514.4487,377.9605 " fill="none" style="stroke:#181818;stroke-width:1.0;"/><polygon fill="#181818" points="550.3808,381.8014,552.1667,372.1158,549.2123,376.9399,544.3882,373.9855,550.3808,381.8014" style="stroke:#181818;stroke-width:1.0;"/><path d="M514.6594,233.1867 C524.9304,275.9178 539.5621,336.7914 548.9786,375.9676 " fill="none" style="stroke:#181818;stroke-width:1.0;"/><text fill="#000000" font-family="sans-serif" font-size="13" lengthAdjust="spacing" textLength="88.1626" x="544" y="331.4951">lastStoredPoint</text><!--SRC=[fLDHRzCm47xFhp3ZkQEDojfL0gdBO4m2QL8hXa0yt9AB6-hObkr0ksaIluOVnY_XxBXfmdWZoaFyVUVlxhkxFDC6U0rCm5urZjaQ7KX8xBQI6WpKp6wWK3ygoLa9mcAFKNVVC7Vi8M7i0l8jDwgHHQQ4CkmvdfLfMNf6cG9DH6TuDyUpv359ujqJYzPMIh85kyGI6k4k40mbMxNu2GFB3Z4-aQXApFUvGFQABRFrzSSt1CQ0wuB0MNwElt_-6dsVKff3bjAeUvIPacN5ALKKRyyXHLxo86zLwTvNTULkL2MT9RqneHimnLFK8gzHkYlGwur1kr72vxzPl_n0P0sxjzLkoJ50wVGTOKex4hb7unM-VEtLvy1mT5JP5QfCKSSg2Gv3PP4Ati5LhYdm4Za9JEUdixb7bUGz-FnqCkyf0-S6EJZg_eAj3OrfsI51dm9QvmGWJQ-HZbJIs8jRC1AzhNRsZ1dCGtbyvPJMFUgnDr9-oBLgMnIdoBiGFV5UjGtz32mXlWfgaE_OPBmO-_TpwpgwdOtP2s-tTJaRztBgz8bW-W_1z2_1oK1mqXCKO1qDi5MbZw1P4l0_eZc8l15n677Himvh5v6EntYXygtVrxrrM6V-j2n0Euon7kY2kTxTceguKFFkKotQOmWbCaaE_z5ez3eiF3qBrlyr1X7TJhOV0yulJRXzNAy1xniL-DZ6OMgo6CXZEuPySEtvuAzFaOrMjpER-58yvRSkFdIpCORsBl6W9_Na-9bsLsX5ZbTyfQlm3uGT-WC0]--></g></svg>