<svg xmlns="http://www.w3.org/2000/svg" xmlns:xlink="http://www.w3.org/1999/xlink" contentStyleType="text/css" height="561px" preserveAspectRatio="none" style="width:736px;height:561px;background:#FFFFFF;" version="1.1" viewBox="0 0 736 561" width="736px" zoomAndPan="magnify"><defs/><g><!--cluster SPI--><g id="cluster_SPI"><rect fill="#E6F2FF" height="202" rx="2.5" ry="2.5" style="stroke:#888888;stroke-width:1.5;" width="102" x="371" y="353"/><text fill="#000000" font-family="sans-serif" font-size="14" font-weight="bold" lengthAdjust="spacing" textLength="75.4551" x="384.2725" y="369.5332">bearing-spi</text></g><!--cluster DOM--><g id="cluster_DOM"><rect fill="#E6FFE6" height="220" rx="2.5" ry="2.5" style="stroke:#888888;stroke-width:1.5;" width="180" x="14" y="224"/><text fill="#000000" font-family="sans-serif" font-size="14" font-weight="bold" lengthAdjust="spacing" textLength="105.0068" x="51.4966" y="240.5332">bearing-domain</text></g><!--cluster A_GPX--><g id="cluster_A_GPX"><rect fill="#FFE6E6" height="91" rx="2.5" ry="2.5" style="stroke:#888888;stroke-width:1.5;" width="151" x="202" y="224"/><text fill="#000000" font-family="sans-serif" font-size="14" font-weight="bold" lengthAdjust="spacing" textLength="135.3516" x="209.8242" y="240.5332">bearing-adapter-gpx</text></g><!--cluster A_SYS--><g id="cluster_A_SYS"><rect fill="#FFE6E6" height="91" rx="2.5" ry="2.5" style="stroke:#888888;stroke-width:1.5;" width="174" x="392" y="224"/><text fill="#000000" font-family="sans-serif" font-size="14" font-weight="bold" lengthAdjust="spacing" textLength="158.7168" x="399.6416" y="240.5332">bearing-adapter-system</text></g><!--cluster A_W3W--><g id="cluster_A_W3W"><rect fill="#FFE6E6" height="91" rx="2.5" ry="2.5" style="stroke:#888888;stroke-width:1.5;" width="156" x="574" y="224"/><text fill="#000000" font-family="sans-serif" font-size="14" font-weight="bold" lengthAdjust="spacing" textLength="140.0273" x="581.9863" y="240.5332">bearing-adapter-w3w</text></g><!--cluster API--><g id="cluster_API"><rect fill="#FFF2E6" height="91" rx="2.5" ry="2.5" style="stroke:#888888;stroke-width:1.5;" width="204" x="356" y="114"/><text fill="#000000" font-family="sans-serif" font-size="14" font-weight="bold" lengthAdjust="spacing" textLength="75.4551" x="420.2725" y="130.5332">bearing-api</text></g><!--cluster DEMO--><g id="cluster_DEMO"><rect fill="#F4F4F4" height="91" rx="2.5" ry="2.5" style="stroke:#888888;stroke-width:1.5;" width="108" x="356" y="4"/><text fill="#000000" font-family="sans-serif" font-size="14" font-weight="bold" lengthAdjust="spacing" textLength="92.5654" x="363.7173" y="20.5332">bearing-demo</text></g><rect fill="#F7F7F7" height="55.2188" rx="2.5" ry="2.5" style="stroke:#888888;stroke-width:0.5;" width="40.2275" x="413" y="381"/><text fill="#000000" font-family="sans-serif" font-size="14" font-weight="bold" lengthAdjust="spacing" textLength="20.2275" x="423" y="397.5332">spi</text><rect fill="#F7F7F7" height="55.2188" rx="2.5" ry="2.5" style="stroke:#888888;stroke-width:0.5;" width="85.3447" x="379.5" y="492"/><text fill="#000000" font-family="sans-serif" font-size="14" font-weight="bold" lengthAdjust="spacing" textLength="65.3447" x="389.5" y="508.5332">spi.model</text><rect fill="#F7F7F7" height="55.2188" rx="2.5" ry="2.5" style="stroke:#888888;stroke-width:0.5;" width="69.7793" x="86" y="381"/><text fill="#000000" font-family="sans-serif" font-size="14" font-weight="bold" lengthAdjust="spacing" textLength="49.7793" x="96" y="397.5332">domain</text><rect fill="#F7F7F7" height="55.2188" rx="2.5" ry="2.5" style="stroke:#888888;stroke-width:0.5;" width="130.4482" x="56" y="252"/><text fill="#000000" font-family="sans-serif" font-size="14" font-weight="bold" lengthAdjust="spacing" textLength="110.4482" x="66" y="268.5332">domain.optimize</text><rect fill="#F7F7F7" height="55.2188" rx="2.5" ry="2.5" style="stroke:#888888;stroke-width:0.5;" width="99.3516" x="244.5" y="252"/><text fill="#000000" font-family="sans-serif" font-size="14" font-weight="bold" lengthAdjust="spacing" textLength="79.3516" x="254.5" y="268.5332">adapter.gpx</text><rect fill="#F7F7F7" height="55.2188" rx="2.5" ry="2.5" style="stroke:#888888;stroke-width:0.5;" width="122.7168" x="434.5" y="252"/><text fill="#000000" font-family="sans-serif" font-size="14" font-weight="bold" lengthAdjust="spacing" textLength="102.7168" x="444.5" y="268.5332">adapter.system</text><rect fill="#F7F7F7" height="55.2188" rx="2.5" ry="2.5" style="stroke:#888888;stroke-width:0.5;" width="104.0273" x="617" y="252"/><text fill="#000000" font-family="sans-serif" font-size="14" font-weight="bold" lengthAdjust="spacing" textLength="84.0273" x="627" y="268.5332">adapter.w3w</text><rect fill="#F7F7F7" height="55.2188" rx="2.5" ry="2.5" style="stroke:#888888;stroke-width:0.5;" width="40.2275" x="512" y="142"/><text fill="#000000" font-family="sans-serif" font-size="14" font-weight="bold" lengthAdjust="spacing" textLength="20.2275" x="522" y="158.5332">api</text><rect fill="#F7F7F7" height="55.2188" rx="2.5" ry="2.5" style="stroke:#888888;stroke-width:0.5;" width="94.6826" x="398.5" y="142"/><text fill="#000000" font-family="sans-serif" font-size="14" font-weight="bold" lengthAdjust="spacing" textLength="74.6826" x="408.5" y="158.5332">api.internal</text><rect fill="#F7F7F7" height="55.2188" rx="2.5" ry="2.5" style="stroke:#888888;stroke-width:0.5;" width="57.3379" x="398.5" y="32"/><text fill="#000000" font-family="sans-serif" font-size="14" font-weight="bold" lengthAdjust="spacing" textLength="37.3379" x="408.5" y="48.5332">demo</text><polygon fill="#181818" points="121,380.9117,125,371.9117,121,375.9117,117,371.9117,121,380.9117" style="stroke:#181818;stroke-width:1.0;"/><path d="M121,307.1234 C121,328.7985 121,353.246 121,374.9117 " fill="none" style="stroke:#181818;stroke-width:1.0;stroke-dasharray:7.0,7.0;"/><text fill="#000000" font-family="sans-serif" font-size="13" lengthAdjust="spacing" textLength="35.4199" x="123" y="340.4951">&#171;use&#187;</text><polygon fill="#181818" points="424.7012,491.7331,429.5847,483.1802,425.2033,486.7584,421.6251,482.377,424.7012,491.7331" style="stroke:#181818;stroke-width:1.0;"/><path d="M430.3091,436.1644 C428.6045,453.0554 427.0103,468.8528 425.3037,485.7634 " fill="none" style="stroke:#181818;stroke-width:1.0;stroke-dasharray:7.0,7.0;"/><text fill="#000000" font-family="sans-serif" font-size="13" lengthAdjust="spacing" textLength="35.4199" x="430" y="469.4951">&#171;use&#187;</text><polygon fill="#181818" points="370.8156,401.276,363.9933,394.1728,366.1861,399.3874,360.9715,401.5801,370.8156,401.276" style="stroke:#181818;stroke-width:1.0;"/><path d="M235,315 C257.1028,339.1594 286.9618,359.1707 314.3644,374.327 C328.0657,381.9052 341.1529,388.2695 352.3494,393.3318 C357.9477,395.8629 363.0733,398.0685 367.5667,399.9376 C368.69,400.4048 364.2183,398.5847 365.2601,399.0097 " fill="none" style="stroke:#181818;stroke-width:1.0;stroke-dasharray:7.0,7.0;"/><polygon fill="#181818" points="396.0311,352.8836,401.4457,344.6568,396.8467,347.9506,393.5529,343.3517,396.0311,352.8836" style="stroke:#181818;stroke-width:1.0;"/><path d="M402.2338,315.3719 C402.2103,315.5141 402.1867,315.6566 402.1631,315.7993 C402.1159,316.0847 402.0686,316.3711 402.021,316.6584 C401.926,317.2331 401.8304,317.8114 401.7342,318.3931 C401.5418,319.5567 401.3471,320.734 401.1505,321.9231 C400.7573,324.3013 400.3562,326.7266 399.95,329.1834 C399.1375,334.0968 398.3043,339.1356 397.4714,344.173 C397.0549,346.6916 396.6385,349.2099 396.2248,351.712 C396.1731,352.0248 396.1214,352.3373 396.0698,352.6495 C396.0569,352.7276 397.0228,346.886 397.0099,346.964 " fill="none" style="stroke:#181818;stroke-width:1.0;stroke-dasharray:7.0,7.0;"/><polygon fill="#181818" points="404.6507,352.4026,413.9977,349.299,408.347,349.0355,408.6105,343.3848,404.6507,352.4026" style="stroke:#181818;stroke-width:1.0;"/><path d="M573.9612,311.5451 C573.9073,311.5998 573.8532,311.6544 573.799,311.7087 C573.6906,311.8174 573.5816,311.9253 573.472,312.0325 C573.2527,312.2469 573.0311,312.4583 572.807,312.6665 C571.9106,313.4993 570.9752,314.2811 570,315 C539.5389,337.4548 511.9256,334.1024 484.9842,331.5625 C471.5135,330.2925 458.2108,329.2257 444.8041,331.6895 C438.1008,332.9214 431.3714,335.0359 424.5821,338.449 C421.1874,340.1556 417.7777,342.1868 414.3488,344.5946 C412.6343,345.7985 410.915,347.0966 409.1904,348.4953 C408.3281,349.1947 407.4645,349.9192 406.5994,350.6697 C406.1669,351.045 405.734,351.4267 405.3008,351.8151 C405.0842,352.0093 409.3031,348.1646 409.0863,348.3621 " fill="none" style="stroke:#181818;stroke-width:1.0;stroke-dasharray:7.0,7.0;"/><polygon fill="#181818" points="47.2921,223.7481,56.7315,220.9378,51.0917,220.4981,51.5315,214.8583,47.2921,223.7481" style="stroke:#181818;stroke-width:1.0;"/><path d="M355.6262,170.9872 C355.3823,170.9958 355.1359,171.0046 354.8872,171.0134 C354.3897,171.0312 353.8826,171.0494 353.366,171.0683 C349.2336,171.2189 344.4969,171.4054 339.241,171.6341 C328.7292,172.0915 316.1408,172.718 302.1574,173.5658 C274.1906,175.2613 240.6436,177.842 206.9686,181.7255 C173.2936,185.609 139.4906,190.7952 111.0118,197.7017 C96.7724,201.155 83.864,205.0384 72.9682,209.404 C67.5203,211.5868 62.5755,213.8902 58.2191,216.3207 C56.0409,217.536 54.0098,218.783 52.1364,220.0626 C51.1997,220.7024 50.3024,221.3503 49.4459,222.0065 C49.0176,222.3346 48.5996,222.6648 48.1919,222.997 C47.988,223.1632 47.7868,223.3298 47.5881,223.497 C47.4888,223.5805 51.9497,219.7642 51.8517,219.8481 " fill="none" style="stroke:#181818;stroke-width:1.0;stroke-dasharray:7.0,7.0;"/><polygon fill="#181818" points="383.5501,352.992,386.9737,343.7573,383.2343,348.002,378.9896,344.2627,383.5501,352.992" style="stroke:#181818;stroke-width:1.0;"/><path d="M374.185,205.023 C374.2166,205.5225 374.2485,206.026 374.2806,206.5335 C374.4091,208.5637 374.5416,210.6579 374.6779,212.8103 C374.9503,217.1152 375.2375,221.6529 375.5365,226.377 C376.7325,245.2733 378.1171,267.1505 379.5017,289.0264 C380.8862,310.9024 382.2707,332.7772 383.4664,351.6687 C383.4851,351.9639 383.5037,352.2583 383.5223,352.552 C383.5316,352.6989 383.1619,346.8575 383.1711,347.004 " fill="none" style="stroke:#181818;stroke-width:1.0;stroke-dasharray:7.0,7.0;"/><polygon fill="#181818" points="235.2146,223.7705,244.2898,219.9441,238.6358,220.1242,238.4556,214.4702,235.2146,223.7705" style="stroke:#181818;stroke-width:1.0;"/><path d="M355.7456,172.291 C355.6221,172.3084 355.4979,172.3259 355.3732,172.3436 C355.1239,172.3789 354.8722,172.4149 354.6183,172.4515 C354.1105,172.5246 353.5937,172.6004 353.0683,172.6787 C348.8646,173.3056 344.1054,174.1005 338.9419,175.1025 C328.615,177.1066 316.6708,179.9394 304.3193,183.9153 C291.9677,187.8912 279.2088,193.01 267.2523,199.5861 C261.2741,202.8741 255.4965,206.5265 250.0707,210.5823 C247.3578,212.6103 244.7328,214.7391 242.2147,216.9738 C240.9557,218.0911 239.7234,219.2349 238.5201,220.4057 C237.9185,220.9911 237.3242,221.5833 236.7374,222.1823 C236.444,222.4818 236.1525,222.7831 235.8629,223.086 C235.7181,223.2375 235.5738,223.3894 235.43,223.5417 C235.3581,223.6179 239.3917,219.3186 239.32,219.3949 " fill="none" style="stroke:#181818;stroke-width:1.0;stroke-dasharray:7.0,7.0;"/><polygon fill="#181818" points="391.9969,230.4908,392.9456,220.6878,390.4158,225.7474,385.3562,223.2176,391.9969,230.4908" style="stroke:#181818;stroke-width:1.0;"/><path d="M383.5183,205.0548 C383.677,205.5311 383.8366,206.0098 383.9969,206.4906 C384.6379,208.4138 385.2905,210.3715 385.9507,212.3522 C387.2712,216.3136 388.6223,220.3669 389.9736,224.4209 C390.6493,226.4479 389.4276,222.7829 390.0996,224.7987 " fill="none" style="stroke:#181818;stroke-width:1.0;stroke-dasharray:7.0,7.0;"/><polygon fill="#181818" points="573.9349,227.6007,570.6886,218.3022,570.5117,223.9563,564.8576,223.7794,573.9349,227.6007" style="stroke:#181818;stroke-width:1.0;"/><path d="M390,205 C456.5053,250.2587 506.5544,174.5433 570,224 C570.8346,224.6506 571.6345,225.3396 572.4009,226.0626 C572.7842,226.4241 573.159,226.7941 573.5258,227.1721 C573.6175,227.2666 573.7086,227.3616 573.7993,227.4571 C573.8446,227.5048 569.782,223.1795 569.827,223.2274 " fill="none" style="stroke:#181818;stroke-width:1.0;stroke-dasharray:7.0,7.0;"/><polygon fill="#181818" points="372,113.9933,376,104.9933,372,108.9933,368,104.9933,372,113.9933" style="stroke:#181818;stroke-width:1.0;"/><path d="M372,95.0548 C372,95.5311 372,96.0098 372,96.4906 C372,98.4138 372,100.3715 372,102.3522 C372,104.3329 372,106.3366 372,108.3518 C372,109.3595 372,110.37 372,111.382 C372,111.888 372,112.3943 372,112.9009 C372,113.1541 372,113.4075 372,113.6608 C372,113.7241 372,113.7875 372,113.8508 C372,113.8825 372,113.9142 372,113.9458 C372,113.9617 372,107.9775 372,107.9933 " fill="none" style="stroke:#181818;stroke-width:1.0;stroke-dasharray:7.0,7.0;"/><!--SRC=[XPFDRi8m48JlVeejdCa1AbfL28d-gEA0GCg1zeIsZPr6n75a1r5QyUvTEt6IKaZ9WLtlvvbW3rUvnbWYf7XGkmACv0LcoCmsoNBKAC5yOAJsIHQ3mDJmrYJ7zot6F2mEAGVDtsbZd9u1u9i1t5CTQxNBeWULAWrzSMCVEr4wuhfQlNKVTcJCR-wzSTHaFp1vqWCq4AxcqETZCHJ2ATUW1-XxevKgtFHuGWHIHJojETTLu3dJI4bCCeS_BXVEL_3nRzyMG-K5wn8AL5uaCldYDKqB7VOOOLvmFOZpJxTZjdbUlT3PqJkSlaM51Xx5Q4DbhNrHsXnCmMMb7hw6tUejcWoe-zzWFzfNwklHkblTeoHDPTUvL5SziraGGWp_A5O0Nim2JO8a8zSCqnhr2rs9u5ALUNXQBCdysZudWV28BThsfEVl7208farUu0ucavtXqochu-k89gGDmSeOs37z6LXvRKrdZzbtp9wGRIYzTUsmgdPIhOwaMXr9CUP-gEjNyny0]--></g></svg>