<svg xmlns="http://www.w3.org/2000/svg" xmlns:xlink="http://www.w3.org/1999/xlink" contentStyleType="text/css" height="809px" preserveAspectRatio="none" style="width:958px;height:809px;background:#FFFFFF;" version="1.1" viewBox="0 0 958 809" width="958px" zoomAndPan="magnify"><defs/><g><!--cluster Java-Peilungskomponente--><g id="cluster_Java-Peilungskomponente"><rect fill="none" height="610" rx="2.5" ry="2.5" style="stroke:#181818;stroke-width:1.0;" width="810" x="142" y="12"/><text fill="#000000" font-family="sans-serif" font-size="14" font-weight="bold" lengthAdjust="spacing" textLength="177.3789" x="458.3105" y="28.5332">Java-Peilungskomponente</text></g><!--entity Host--><g id="elem_Host"><ellipse cx="59.6997" cy="297.5" fill="#F4F4F4" rx="8" ry="8" style="stroke:#B4B4B4;stroke-width:0.5;"/><path d="M59.6997,305.5 L59.6997,332.5 M46.6997,313.5 L72.6997,313.5 M59.6997,332.5 L46.6997,347.5 M59.6997,332.5 L72.6997,347.5 " fill="none" style="stroke:#B4B4B4;stroke-width:0.5;"/><text fill="#000000" font-family="sans-serif" font-size="14" lengthAdjust="spacing" textLength="107.3994" x="6" y="363.5332">Host-Anwendung</text></g><!--entity W3W--><g id="elem_W3W"><ellipse cx="567.5688" cy="638.5" fill="#F4F4F4" rx="8" ry="8" style="stroke:#B4B4B4;stroke-width:0.5;"/><path d="M567.5688,646.5 L567.5688,673.5 M554.5688,654.5 L580.5688,654.5 M567.5688,673.5 L554.5688,688.5 M567.5688,673.5 L580.5688,688.5 " fill="none" style="stroke:#B4B4B4;stroke-width:0.5;"/><text fill="#000000" font-family="sans-serif" font-size="14" lengthAdjust="spacing" textLength="108.1377" x="513.5" y="704.5332">What3Words-API</text></g><!--entity FS--><g id="elem_FS"><ellipse cx="855.5103" cy="734.5" fill="#F4F4F4" rx="8" ry="8" style="stroke:#B4B4B4;stroke-width:0.5;"/><path d="M855.5103,742.5 L855.5103,769.5 M842.5103,750.5 L868.5103,750.5 M855.5103,769.5 L842.5103,784.5 M855.5103,769.5 L868.5103,784.5 " fill="none" style="stroke:#B4B4B4;stroke-width:0.5;"/><text fill="#000000" font-family="sans-serif" font-size="14" lengthAdjust="spacing" textLength="77.0205" x="817" y="800.5332">Dateisystem</text></g><!--entity Log--><g id="elem_Log"><ellipse cx="855.3032" cy="638.5" fill="#F4F4F4" rx="8" ry="8" style="stroke:#B4B4B4;stroke-width:0.5;"/><path d="M855.3032,646.5 L855.3032,673.5 M842.3032,654.5 L868.3032,654.5 M855.3032,673.5 L842.3032,688.5 M855.3032,673.5 L868.3032,688.5 " fill="none" style="stroke:#B4B4B4;stroke-width:0.5;"/><text fill="#000000" font-family="sans-serif" font-size="14" lengthAdjust="spacing" textLength="99.6064" x="805.5" y="704.5332">SLF4J-Backend</text></g><g id="elem_UC_start"><ellipse cx="259.2183" cy="67.9034" fill="#E6F2FF" rx="79.7183" ry="27.9034" style="stroke:#7EB8E6;stroke-width:0.5;"/><text fill="#000000" font-family="sans-serif" font-size="14" lengthAdjust="spacing" textLength="96.4961" x="210.9703" y="62.8272">Session starten</text><text fill="#000000" font-family="sans-serif" font-size="14" lengthAdjust="spacing" textLength="56.7998" x="230.8184" y="80.4366">(/LF010/)</text></g><g id="elem_UC_pos"><ellipse cx="259.1021" cy="141.9349" fill="#E6F2FF" rx="99.1021" ry="27.9349" style="stroke:#7EB8E6;stroke-width:0.5;"/><text fill="#000000" font-family="sans-serif" font-size="14" lengthAdjust="spacing" textLength="123.7373" x="194.2334" y="137.6468">Position verarbeiten</text><text fill="#000000" font-family="sans-serif" font-size="14" lengthAdjust="spacing" textLength="56.7998" x="227.7022" y="155.2562">(/LF030/)</text></g><g id="elem_UC_course"><ellipse cx="259.1699" cy="215.9037" fill="#E6F2FF" rx="90.1699" ry="27.9037" style="stroke:#7EB8E6;stroke-width:0.5;"/><text fill="#000000" font-family="sans-serif" font-size="14" lengthAdjust="spacing" textLength="111.2754" x="203.2326" y="210.9131">Kurs aktualisieren</text><text fill="#000000" font-family="sans-serif" font-size="14" lengthAdjust="spacing" textLength="56.7998" x="230.4704" y="228.5225">(/LF040/)</text></g><g id="elem_UC_snap"><ellipse cx="258.9258" cy="289.9034" fill="#E6F2FF" rx="70.9258" ry="27.9034" style="stroke:#7EB8E6;stroke-width:0.5;"/><text fill="#000000" font-family="sans-serif" font-size="14" lengthAdjust="spacing" textLength="84.0615" x="216.895" y="284.8272">Peilung lesen</text><text fill="#000000" font-family="sans-serif" font-size="14" lengthAdjust="spacing" textLength="56.7998" x="230.5259" y="302.4366">(/LF050/)</text></g><g id="elem_UC_complete"><ellipse cx="258.9937" cy="363.9034" fill="#E6F2FF" rx="87.9937" ry="27.9034" style="stroke:#7EB8E6;stroke-width:0.5;"/><text fill="#000000" font-family="sans-serif" font-size="14" lengthAdjust="spacing" textLength="108.1992" x="204.8941" y="358.8272">Session beenden</text><text fill="#000000" font-family="sans-serif" font-size="14" lengthAdjust="spacing" textLength="56.7998" x="230.5938" y="376.4366">(/LF060/)</text></g><g id="elem_UC_abort"><ellipse cx="258.8033" cy="437.9203" fill="#E6F2FF" rx="96.3033" ry="27.9203" style="stroke:#7EB8E6;stroke-width:0.5;"/><text fill="#000000" font-family="sans-serif" font-size="14" lengthAdjust="spacing" textLength="119.8613" x="196.4439" y="433.4928">Session abbrechen</text><text fill="#000000" font-family="sans-serif" font-size="14" lengthAdjust="spacing" textLength="56.7998" x="227.9747" y="451.1022">(/LF070/)</text></g><g id="elem_UC_reset"><ellipse cx="259.0964" cy="511.9791" fill="#E6F2FF" rx="108.0964" ry="27.9791" style="stroke:#7EB8E6;stroke-width:0.5;"/><text fill="#000000" font-family="sans-serif" font-size="14" lengthAdjust="spacing" textLength="136.1787" x="188.007" y="507.691">Session zur&#252;cksetzen</text><text fill="#000000" font-family="sans-serif" font-size="14" lengthAdjust="spacing" textLength="56.7998" x="227.6965" y="525.3003">(/LF090/)</text></g><g id="elem_UC_val"><ellipse cx="567.5535" cy="261.9319" fill="#E6F2FF" rx="98.5535" ry="27.9319" style="stroke:#7EB8E6;stroke-width:0.5;"/><text fill="#000000" font-family="sans-serif" font-size="14" lengthAdjust="spacing" textLength="122.9785" x="503.0643" y="257.6438">Eingaben validieren</text><text fill="#000000" font-family="sans-serif" font-size="14" lengthAdjust="spacing" textLength="112.0547" x="508.5262" y="275.2532">(/LF230/, /LF240/)</text></g><g id="elem_UC_gpx"><ellipse cx="567.6681" cy="385.9034" fill="#E6F2FF" rx="84.6681" ry="27.9034" style="stroke:#7EB8E6;stroke-width:0.5;"/><text fill="#000000" font-family="sans-serif" font-size="14" lengthAdjust="spacing" textLength="103.4961" x="515.92" y="380.8272">GPX exportieren</text><text fill="#000000" font-family="sans-serif" font-size="14" lengthAdjust="spacing" textLength="56.7998" x="539.2682" y="398.4366">(/LF140/)</text></g><g id="elem_UC_opt"><ellipse cx="855.5157" cy="385.9034" fill="#E6F2FF" rx="88.5157" ry="27.9034" style="stroke:#7EB8E6;stroke-width:0.5;"/><text fill="#000000" font-family="sans-serif" font-size="14" lengthAdjust="spacing" textLength="104.2549" x="803.3883" y="380.8272">Track optimieren</text><text fill="#000000" font-family="sans-serif" font-size="14" lengthAdjust="spacing" textLength="108.9375" x="801.047" y="398.4366">(/LF170/-/LF200/)</text></g><g id="elem_UC_file"><ellipse cx="567.7161" cy="492.9633" fill="#E6F2FF" rx="104.7161" ry="27.9633" style="stroke:#7EB8E6;stroke-width:0.5;"/><text fill="#000000" font-family="sans-serif" font-size="14" lengthAdjust="spacing" textLength="131.5029" x="498.9646" y="488.6753">GPX-Datei speichern</text><text fill="#000000" font-family="sans-serif" font-size="14" lengthAdjust="spacing" textLength="56.7998" x="536.3162" y="506.2846">(/LF150/)</text></g><g id="elem_UC_w3w"><ellipse cx="259.2182" cy="585.984" fill="#E6F2FF" rx="109.2182" ry="27.984" style="stroke:#7EB8E6;stroke-width:0.5;"/><text fill="#000000" font-family="sans-serif" font-size="14" lengthAdjust="spacing" textLength="137.7305" x="187.353" y="581.696">What3Words aufl&#246;sen</text><text fill="#000000" font-family="sans-serif" font-size="14" lengthAdjust="spacing" textLength="56.7998" x="227.8183" y="599.3053">(/LF210/)</text></g><polygon fill="#181818" points="179.2884,82.3392,169.4503,81.8797,174.6296,84.1545,172.3548,89.3338,179.2884,82.3392" style="stroke:#181818;stroke-width:1.0;"/><path d="M64.3569,288.8725 C71.3001,239.3376 90.3888,154.5064 142,105 C152.4497,94.9765 160.022,89.8463 173.6978,84.5176 " fill="none" style="stroke:#181818;stroke-width:1.0;"/><polygon fill="#181818" points="159.8212,167.0558,150.007,167.8813,155.4384,169.4623,153.8573,174.8937,159.8212,167.0558" style="stroke:#181818;stroke-width:1.0;"/><path d="M72.56,288.9859 C84.8807,255.3152 107.1938,207.6987 142,179 C147.4637,174.495 148.2245,173.4233 154.5618,169.9436 " fill="none" style="stroke:#181818;stroke-width:1.0;"/><polygon fill="#181818" points="168.863,239.9842,159.0188,239.6831,164.234,241.8743,162.0429,247.0895,168.863,239.9842" style="stroke:#181818;stroke-width:1.0;"/><path d="M96.2891,288.7644 C109.6223,275.9462 125.54,262.5632 142,253 C150.4077,248.1152 153.9844,246.0593 163.3082,242.2523 " fill="none" style="stroke:#181818;stroke-width:1.0;"/><polygon fill="#181818" points="187.6606,303.5337,178.0669,301.3062,182.7506,304.4784,179.5784,309.1621,187.6606,303.5337" style="stroke:#181818;stroke-width:1.0;"/><path d="M113.1669,317.8666 C136.021,313.4694 157.2282,309.389 181.7686,304.6673 " fill="none" style="stroke:#181818;stroke-width:1.0;"/><polygon fill="#181818" points="170.7847,348.1025,162.6479,342.5534,165.8657,347.2059,161.2133,350.4238,170.7847,348.1025" style="stroke:#181818;stroke-width:1.0;"/><path d="M113.1669,337.6 C130.8789,340.8286 145.2377,343.4459 164.8819,347.0266 " fill="none" style="stroke:#181818;stroke-width:1.0;"/><polygon fill="#181818" points="162.27,411.099,155.6246,403.83,157.6883,409.097,152.4214,411.1608,162.27,411.099" style="stroke:#181818;stroke-width:1.0;"/><path d="M97.6636,367.2915 C110.7531,379.4162 126.1712,391.9454 142,401 C148.422,404.6736 149.7582,405.6319 156.772,408.6966 " fill="none" style="stroke:#181818;stroke-width:1.0;"/><polygon fill="#181818" points="154.5343,483.839,148.9317,475.739,150.2651,481.2365,144.7676,482.5699,154.5343,483.839" style="stroke:#181818;stroke-width:1.0;"/><path d="M72.9397,367.1481 C85.3974,400.3299 107.6976,446.8808 142,475 C145.9235,478.2162 145.0077,478.0316 149.4112,480.716 " fill="none" style="stroke:#181818;stroke-width:1.0;"/><polygon fill="#181818" points="152.8468,557.8296,147.7497,549.4023,148.7445,554.971,143.1759,555.9659,152.8468,557.8296" style="stroke:#181818;stroke-width:1.0;"/><path d="M64.523,367.2088 C71.628,416.3658 90.8731,500.1011 142,549 C145.3608,552.2143 144.078,551.7191 147.9241,554.3993 " fill="none" style="stroke:#181818;stroke-width:1.0;"/><polygon fill="#181818" points="502.1188,233.8131,495.4283,226.5855,497.5248,231.8395,492.2707,233.9359,502.1188,233.8131" style="stroke:#181818;stroke-width:1.0;"/><path d="M343.6279,170.0375 C351.8892,172.9907 360.1256,176.0086 368,179 C413.2193,196.1784 457.9714,214.848 496.6059,231.4448 " fill="none" style="stroke:#181818;stroke-width:1.0;stroke-dasharray:7.0,7.0;"/><text fill="#000000" font-family="sans-serif" font-size="13" lengthAdjust="spacing" textLength="55.6563" x="388" y="183.4951">&#171;include&#187;</text><polygon fill="#181818" points="482.969,380.0043,474.2785,375.3702,477.9818,379.6463,473.7057,383.3497,482.969,380.0043" style="stroke:#181818;stroke-width:1.0;"/><path d="M347.0108,370.2455 C389.6634,373.307 434.8084,376.5474 476.9844,379.5747 " fill="none" style="stroke:#181818;stroke-width:1.0;stroke-dasharray:7.0,7.0;"/><text fill="#000000" font-family="sans-serif" font-size="13" lengthAdjust="spacing" textLength="55.6563" x="388" y="369.4951">&#171;include&#187;</text><polygon fill="#181818" points="482.8931,400.1845,473.3508,397.7463,477.9635,401.0209,474.689,405.6336,482.8931,400.1845" style="stroke:#181818;stroke-width:1.0;"/><path d="M355.7178,421.7608 C396.4676,414.8473 437.6507,407.8602 476.9776,401.1881 " fill="none" style="stroke:#181818;stroke-width:1.0;stroke-dasharray:7.0,7.0;"/><text fill="#000000" font-family="sans-serif" font-size="13" lengthAdjust="spacing" textLength="55.6563" x="388" y="403.4951">&#171;include&#187;</text><polygon fill="#181818" points="766.895,386,757.895,382,761.895,386,757.895,390,766.895,386" style="stroke:#181818;stroke-width:1.0;"/><path d="M652.377,386 C688.3912,386 724.4779,386 760.895,386 " fill="none" style="stroke:#181818;stroke-width:1.0;stroke-dasharray:7.0,7.0;"/><text fill="#000000" font-family="sans-serif" font-size="13" lengthAdjust="spacing" textLength="55.6563" x="692" y="381.4951">&#171;include&#187;</text><polygon fill="#181818" points="462.5963,477.7101,455.0868,471.3377,457.7987,476.3022,452.8342,479.014,462.5963,477.7101" style="stroke:#181818;stroke-width:1.0;"/><path d="M347.2201,386.7114 C354.7152,390.731 361.7927,395.4535 368,401 C381.9351,413.4518 371.8225,426.8249 386,439 C407.5888,457.5396 429.5934,468.0253 456.8391,476.0206 " fill="none" style="stroke:#181818;stroke-width:1.0;stroke-dasharray:7.0,7.0;"/><text fill="#000000" font-family="sans-serif" font-size="13" lengthAdjust="spacing" textLength="53.4917" x="389" y="434.4951">&#171;extend&#187;</text><polygon fill="#181818" points="462.7513,505.4911,453.8133,501.3544,457.7519,505.4149,453.6914,509.3535,462.7513,505.4911" style="stroke:#181818;stroke-width:1.0;"/><path d="M351.168,466.0091 C356.9923,468.7776 362.6562,471.7717 368,475 C377.4186,480.69 375.7859,487.9063 386,492 C409.8522,501.5597 430.9441,505.0064 456.752,505.3997 " fill="none" style="stroke:#181818;stroke-width:1.0;stroke-dasharray:7.0,7.0;"/><text fill="#000000" font-family="sans-serif" font-size="13" lengthAdjust="spacing" textLength="53.4917" x="389" y="487.4951">&#171;extend&#187;</text><polygon fill="#181818" points="513.1884,654.5633,505.5468,648.3498,508.3622,653.2563,503.4557,656.0717,513.1884,654.5633" style="stroke:#181818;stroke-width:1.0;"/><path d="M363.7669,614.1 C413.957,627.6914 466.288,641.8627 507.397,652.9949 " fill="none" style="stroke:#181818;stroke-width:1.0;"/><polygon fill="#181818" points="816.7696,757.9244,808.9528,751.9329,811.9079,756.7565,807.0843,759.7116,816.7696,757.9244" style="stroke:#181818;stroke-width:1.0;"/><path d="M597.6052,521.4525 C620.9503,545.836 652.8742,582.9557 672,621 C686.4285,649.7005 669.3086,666.4283 690,691 C722.4756,729.5659 773.3325,747.4904 810.9356,756.523 " fill="none" style="stroke:#181818;stroke-width:1.0;"/><polygon fill="#181818" points="805.0845,652.7643,798.6494,645.3085,800.5619,650.6323,795.2381,652.5447,805.0845,652.7643" style="stroke:#181818;stroke-width:1.0;"/><path d="M612.8203,290.1887 C633.4637,305.3542 656.7707,325.7231 672,349 C687.4759,372.6539 681.2509,383.1213 690,410 C721.5455,506.9126 699.1686,549.9338 767,626 C777.2514,637.4959 785.8438,643.6939 799.6574,650.2058 " fill="none" style="stroke:#181818;stroke-width:1.0;stroke-dasharray:7.0,7.0;"/><text fill="#000000" font-family="sans-serif" font-size="13" lengthAdjust="spacing" textLength="53.4917" x="693" y="405.4951">&#171;extend&#187;</text><!--SRC=[ZLJDRjD04BxxAOPm02JSluGMK1Mf_1GeFKGAA1oGqDWUEwiukzRkkccBU1kUWHEtlXYpNjjTjwb4VCdEpFVDp3Up-wZIMAmHIhnIjGMp9eiIev9o2rQ15iNIGYOqfLOe6PcLa1LgN8DPOgOsGXQGOsaey5IOhh2WkRqg2HmGPL660RMX50t1pmZW3GSNMjKoUwjAfU4n7UO7UUuyIcUaM-iH9I_fCFeLi61gsREL8v-uxov7Cd4VSqGUElgeZ8rFv8PaLijY16Z0cJhtOebsl6064v_CFZNknNZHUT-X9M6kZALrupgTTvxv-UdaB7P5CN7ZErT55FLAmEWCBp2UaIWvhLcfTQKaIKkZffjEdT6SZ67DmLZKbkHt-NJt_7HlVs_tsGY27_D_VVkZ2GhHCsM46nbSa4QTaBYb60SK7bqf4s8_rze0hcoDfJ22T8-S399xRAeucWQfVMTGakcHB-wMtHSkiThMTKAiNWy_tDvrojgLP6aR0IO9IxxiAOw659u04pMKhKDVr_hcRxeoPAzxXbVtTDFSuG3-dYy49iIgitHP8Dq1Y_uSt1-leSTpL8Z-CFi6T5bnIG5oVxAzzwAw3B5VD2ySgCgATGZchcENTQybyLWEkvCtRlOPJ4M2DTCTV30sZyr5ET3xzfe0rdbvywSV-i7-VVHcl74ty0dCj5ZV_DQyPLJhoDqxYEFfxIg75hUUuRbTkG78hT4mfbsDqEZ77Lhy14EBgv3h4p8jwunWboV2LoUBV1s-bvsTQJi-VtuDnySjO3gDWknT90_hWSYcf83puSZUqqRo4FypknjP7-dRsPvyUo2hCQSLFw_zl2ZoGa4ZcdiLEx0xyrFOYUDu-VKRyFq3]--></g></svg>