<svg xmlns="http://www.w3.org/2000/svg" xmlns:xlink="http://www.w3.org/1999/xlink" contentStyleType="text/css" height="276px" preserveAspectRatio="none" style="width:898px;height:276px;background:#FFFFFF;" version="1.1" viewBox="0 0 898 276" width="898px" zoomAndPan="magnify"><defs/><g><!--cluster Device--><g id="cluster_Device"><polygon fill="#F7F7F7" points="256,14,266,4,460,4,460,249,450,259,256,259,256,14" style="stroke:#888888;stroke-width:1.0;"/><line style="stroke:#888888;stroke-width:1.0;" x1="450" x2="460" y1="14" y2="4"/><line style="stroke:#888888;stroke-width:1.0;" x1="256" x2="450" y1="14" y2="14"/><line style="stroke:#888888;stroke-width:1.0;" x1="450" x2="450" y1="14" y2="259"/><text fill="#000000" font-family="sans-serif" font-size="14" font-weight="bold" lengthAdjust="spacing" textLength="72.3447" x="317.8276" y="31.5332">Host-Ger&#228;t</text></g><!--cluster JVM--><g id="cluster_JVM"><polygon fill="#F7F7F7" points="264,47,274,37,452,37,452,241,442,251,264,251,264,47" style="stroke:#888888;stroke-width:1.0;"/><line style="stroke:#888888;stroke-width:1.0;" x1="442" x2="452" y1="47" y2="37"/><line style="stroke:#888888;stroke-width:1.0;" x1="264" x2="442" y1="47" y2="47"/><line style="stroke:#888888;stroke-width:1.0;" x1="442" x2="442" y1="47" y2="251"/><text fill="#000000" font-family="sans-serif" font-size="14" font-weight="bold" lengthAdjust="spacing" textLength="100.7822" x="303.6089" y="64.5332">JVM (Java 11+)</text></g><!--cluster FS--><g id="cluster_FS"><polygon fill="#F7F7F7" points="468,170.5,478,160.5,682,160.5,682,232.5,672,242.5,468,242.5,468,170.5" style="stroke:#888888;stroke-width:1.0;"/><line style="stroke:#888888;stroke-width:1.0;" x1="672" x2="682" y1="170.5" y2="160.5"/><line style="stroke:#888888;stroke-width:1.0;" x1="468" x2="672" y1="170.5" y2="170.5"/><line style="stroke:#888888;stroke-width:1.0;" x1="672" x2="672" y1="170.5" y2="242.5"/><text fill="#000000" font-family="sans-serif" font-size="14" font-weight="bold" lengthAdjust="spacing" textLength="138.5166" x="501.7417" y="188.0332">Lokales Dateisystem</text></g><!--cluster Cloud--><g id="cluster_Cloud"><path d="M700.2878,166.6395 C703.655,161.9082 707.067,161.1662 711.123,165.8465 C714.8547,159.9678 721.3325,159.2095 725.0718,165.838 C728.375,159.5853 732.8359,159.5993 737.2029,164.7016 C740.5081,158.117 745.6709,157.5354 749.6098,164.1038 C753.8172,156.5364 759.3264,156.7633 764.2987,163.3077 C766.8559,157.7858 771.3893,156.9336 775.865,160.9915 C780.3786,154.4659 785.6966,153.4989 790.166,161.0366 C794.7332,156.4738 799.5389,156.1294 801.9545,163.2142 C805.1436,157.0554 810.1666,156.236 814.4813,162.035 C819.7206,155.5923 824.6369,155.4445 828.7641,163.157 C832.5039,157.2903 836.5268,158.2322 839.9868,163.4405 C845.3226,157.0919 849.7734,157.0224 853.6035,164.8834 C858.1727,158.8877 864.4514,159.2052 867.5506,166.4337 C870.3708,160.9718 874.9477,160.2566 878.637,165.5367 C885.8502,168.6394 887.3767,174.9998 880.7942,180.1404 C886.1844,183.7843 887.0346,187.3579 882.0913,192.1205 C888.1882,194.874 890.0803,199.2511 884.9727,204.593 C891.9656,209.5773 890.6961,215.4489 883.7094,219.2262 C888.7336,224.4398 886.4659,230.4239 879.9614,232.3433 C885.7088,236.1356 884.5147,240.0088 879.6337,243.4886 C875.6231,250.1267 871.3395,249.5497 867.1851,243.6313 C863.2394,251.758 857.8107,250.808 852.804,244.7035 C850.6065,250.5127 845.0428,250.8493 841.3257,246.4045 C836.777,252.2835 830.546,251.7071 827.0617,245.1808 C824.3004,250.0319 819.289,251.2727 815.7753,246.0214 C813.5906,253.4929 807.2739,254.3679 802.9465,248.009 C797.7588,255.4647 793.1556,254.4309 788.6264,247.3599 C785.305,252.7206 780.0121,252.9715 777.2269,246.8286 C773.0749,252.4966 768.7008,252.1399 764.6265,246.7402 C759.1047,251.7218 754.6029,251.8227 750.7811,244.7823 C746.753,250.5034 742.0149,252.0968 737.2059,245.6539 C733.6246,251.1553 727.883,250.9118 724.9665,244.9445 C722.0415,251.0535 716.0773,250.0148 712.9953,245.1152 C708.4094,251.3961 704.2519,251.3768 699.4801,245.3188 C693.1571,242.5457 691.5366,236.5523 697.6037,232.0297 C690.2961,229.7495 688.8795,222.4164 694.3749,217.3249 C687.6953,215.3122 685.004,210.1172 690.967,204.6935 C686.1878,200.1858 687.0934,195.3998 692.8875,192.5666 C688.1326,187.339 688.1374,180.3505 696.6207,178.6823 C691.2936,172.8182 692.7851,168.5969 700.2878,166.6395 " fill="none" style="stroke:#181818;stroke-width:1.0;"/><text fill="#000000" font-family="sans-serif" font-size="14" font-weight="bold" lengthAdjust="spacing" textLength="129.0967" x="723.4517" y="184.5332">What3Words Cloud</text></g><g id="elem_GMN13"><path d="M6,184.5 L6,243.5547 A0,0 0 0 0 6,243.5547 L248.1016,243.5547 A0,0 0 0 0 248.1016,243.5547 L248.1016,218 L271.6449,214 L248.1016,210 L248.1016,194.5 L238.1016,184.5 L6,184.5 A0,0 0 0 0 6,184.5 " fill="#FEFFDD" style="stroke:#181818;stroke-width:0.5;"/><path d="M238.1016,184.5 L238.1016,194.5 L248.1016,194.5 L238.1016,184.5 " fill="#FEFFDD" style="stroke:#181818;stroke-width:0.5;"/><text fill="#000000" font-family="sans-serif" font-size="13" lengthAdjust="spacing" textLength="200.186" x="12" y="202.9951">Eingebetteter Betrieb: kein eigener</text><text fill="#000000" font-family="sans-serif" font-size="13" lengthAdjust="spacing" textLength="197.2598" x="12" y="219.3467">Prozess/Server. Kernfunktion l&#228;uft</text><text fill="#000000" font-family="sans-serif" font-size="13" lengthAdjust="spacing" textLength="221.1016" x="12" y="235.6982">offline; FS und W3W sind abschaltbar.</text></g><!--entity HostApp--><g id="elem_HostApp"><rect fill="#FFF2E6" height="40.6094" rx="2.5" ry="2.5" style="stroke:#E6B87E;stroke-width:0.5;" width="137.3994" x="272.5" y="70"/><polygon fill="#FFF2E6" points="392.8994,75,392.8994,89,404.8994,89,404.8994,81,398.8994,75,392.8994,75" style="stroke:#E6B87E;stroke-width:0.5;"/><line style="stroke:#E6B87E;stroke-width:0.5;" x1="398.8994" x2="398.8994" y1="75" y2="81"/><line style="stroke:#E6B87E;stroke-width:0.5;" x1="404.8994" x2="398.8994" y1="81" y2="81"/><text fill="#000000" font-family="sans-serif" font-size="14" lengthAdjust="spacing" textLength="107.3994" x="282.5" y="97.5332">Host-Anwendung</text></g><!--entity Lib--><g id="elem_Lib"><rect fill="#FFF2E6" height="58.2188" rx="2.5" ry="2.5" style="stroke:#E6B87E;stroke-width:0.5;" width="170.082" x="272" y="185"/><polygon fill="#FFF2E6" points="425.082,190,425.082,204,437.082,204,437.082,196,431.082,190,425.082,190" style="stroke:#E6B87E;stroke-width:0.5;"/><line style="stroke:#E6B87E;stroke-width:0.5;" x1="431.082" x2="431.082" y1="190" y2="196"/><line style="stroke:#E6B87E;stroke-width:0.5;" x1="437.082" x2="431.082" y1="196" y2="196"/><text fill="#000000" font-family="sans-serif" font-size="14" lengthAdjust="spacing" textLength="76.2617" x="282" y="212.5332">bearing-*.jar</text><text fill="#000000" font-family="sans-serif" font-size="14" lengthAdjust="spacing" textLength="140.082" x="282" y="230.1426">(Peilungskomponente)</text></g><!--entity Gpx--><g id="elem_Gpx"><rect fill="#FFF2E6" height="40.6094" rx="2.5" ry="2.5" style="stroke:#E6B87E;stroke-width:0.5;" width="86.7998" x="548.5" y="193.5"/><polygon fill="#FFF2E6" points="618.2998,198.5,618.2998,212.5,630.2998,212.5,630.2998,204.5,624.2998,198.5,618.2998,198.5" style="stroke:#E6B87E;stroke-width:0.5;"/><line style="stroke:#E6B87E;stroke-width:0.5;" x1="624.2998" x2="624.2998" y1="198.5" y2="204.5"/><line style="stroke:#E6B87E;stroke-width:0.5;" x1="630.2998" x2="624.2998" y1="204.5" y2="204.5"/><text fill="#000000" font-family="sans-serif" font-size="14" lengthAdjust="spacing" textLength="56.7998" x="558.5" y="221.0332">track.gpx</text></g><!--entity W3WApi--><g id="elem_W3WApi"><rect fill="#FFF2E6" height="58.2188" rx="2.5" ry="2.5" style="stroke:#E6B87E;stroke-width:0.5;" width="145.1582" x="732.5" y="185"/><polygon fill="#FFF2E6" points="860.6582,190,860.6582,204,872.6582,204,872.6582,196,866.6582,190,860.6582,190" style="stroke:#E6B87E;stroke-width:0.5;"/><line style="stroke:#E6B87E;stroke-width:0.5;" x1="866.6582" x2="866.6582" y1="190" y2="196"/><line style="stroke:#E6B87E;stroke-width:0.5;" x1="872.6582" x2="866.6582" y1="196" y2="196"/><text fill="#000000" font-family="sans-serif" font-size="14" lengthAdjust="spacing" textLength="102.6689" x="742.5" y="212.5332">W3W REST-API</text><text fill="#000000" font-family="sans-serif" font-size="14" lengthAdjust="spacing" textLength="115.1582" x="742.5" y="230.1426">/v3/convert-to-3wa</text></g><polygon fill="#181818" points="330.4463,184.9443,328.0421,175.3934,327.3617,181.0092,321.7459,180.3288,330.4463,184.9443" style="stroke:#181818;stroke-width:1.0;"/><path d="M320.4341,111.2864 C316.1732,116.595 312.2879,122.6415 310,129 C306.9905,137.3639 307.2316,140.5532 310,149 C314.2505,161.9688 318.5408,169.7562 326.7448,180.2222 " fill="none" style="stroke:#181818;stroke-width:1.0;stroke-dasharray:7.0,7.0;"/><text fill="#000000" font-family="sans-serif" font-size="13" lengthAdjust="spacing" textLength="139.4326" x="312" y="144.4951">API-Aufrufe (in-process)</text><polygon fill="#181818" points="467.9751,167.7375,468.6155,157.9095,466.2458,163.046,461.1092,160.6764,467.9751,167.7375" style="stroke:#181818;stroke-width:1.0;"/><path d="M452.03,126.661 C452.0599,126.7324 452.0897,126.8038 452.1196,126.8752 C452.1792,127.0178 452.2387,127.1603 452.2979,127.3026 C452.5351,127.8719 452.7692,128.4379 453,129 C455.642,135.435 458.3076,142.1871 460.9078,148.9487 C462.2079,152.3294 463.4917,155.7126 464.7479,159.0598 C465.3761,160.7333 465.9974,162.3979 466.6104,164.0486 C466.9169,164.874 467.2213,165.6959 467.5235,166.5138 C467.6746,166.9227 465.75,161.7009 465.9,162.1078 " fill="none" style="stroke:#181818;stroke-width:1.0;stroke-dasharray:7.0,7.0;"/><text fill="#000000" font-family="sans-serif" font-size="13" lengthAdjust="spacing" textLength="190.0234" x="463" y="144.4951">Datei-I/O (SafeFileSink, optional)</text><polygon fill="#181818" points="689.9968,163.3532,689.4301,153.5207,687.7065,158.9086,682.3186,157.185,689.9968,163.3532" style="stroke:#181818;stroke-width:1.0;"/><path d="M452.319,90.8636 C452.4811,90.8602 452.6442,90.8568 452.8084,90.8535 C453.4653,90.8403 454.139,90.8279 454.8293,90.8165 C456.2098,90.7937 457.6563,90.7748 459.1654,90.7612 C465.2018,90.7067 472.2398,90.7355 480.0631,90.9268 C495.7099,91.3093 514.4981,92.3416 534.698,94.6565 C575.0979,99.2863 621.1447,109.0465 659,129 C665.985,132.6818 671.9926,137.866 677.1458,143.8727 C679.7223,146.876 682.0853,150.0849 684.25,153.4145 C685.3323,155.0792 686.3651,156.7742 687.3502,158.4886 C687.8427,159.3458 688.3234,160.2079 688.7924,161.0736 C689.0268,161.5064 689.2584,161.9401 689.4871,162.3746 C689.6014,162.5918 689.715,162.8092 689.8279,163.0267 C689.8844,163.1355 687.1924,157.9108 687.2485,158.0196 " fill="none" style="stroke:#181818;stroke-width:1.0;stroke-dasharray:7.0,7.0;"/><text fill="#000000" font-family="sans-serif" font-size="13" lengthAdjust="spacing" textLength="193.6099" x="682" y="144.4951">HTTPS (W3wHttpClient, optional)</text><!--SRC=[TL91Rjim4Bpx5LltuhILZDH04hX00STDugGfQbH6VSbb9IrbLZGfa2ixQP7Vv2VvM4dAg0q39I_4xkpip81l6elL6a7XasaPt9eODVPSBNM35jVWLbYQhTGL25IE3ZhQb0H_UW2NMDILDQqkfqOP2s_5URYXOsn9TbUzYAVtV421bgN0Wlz38yH7EZkceRFyufmyJIyAwC-Cu-I6xEiBzm4TVA6DB3fX7U3kvpSOtE46uVJq_Kd4X580m5v1npFHMz9bgwi82wL9qnm1SqBhyqZUfR_GFkZ1dAJo4wuswyPeqapTadkPnyaT2wJfvr23CKpcjyca5ROL10EfayQQWfmxyV3dlR5xKwCYRmYPf7joJEl8Uvr5xNj1R7roQTKynlPDynWu2cNQ4lhB5V9ewVDpC0sL28cl8vBbQ0a_hh95uiKzwE5cD2oCtf3bX4qosc8SzA198mDzI30OycBy6NSYazlXTnXaAEXQAigahZ-0QLWQZUhatqYtVGopnMAUmM0vsiwOcwcIFhf3l8-12QoiLWn6xEAyyibJJip4PE6Is4hAnr2Jr42o8atMe-RM_FQ13ZEota8ANybgqUewK8DwVMa5UvGHGabDdu89_-k2Et3IFp1tnGeLvsZJdlyF49Jy1G00]--></g></svg>