<svg xmlns="http://www.w3.org/2000/svg" xmlns:xlink="http://www.w3.org/1999/xlink" contentStyleType="text/css" height="352px" preserveAspectRatio="none" style="width:484px;height:352px;background:#FFFFFF;" version="1.1" viewBox="0 0 484 352" width="484px" zoomAndPan="magnify"><defs/><g><line style="stroke:#181818;stroke-width:0.5;stroke-dasharray:5.0,5.0;" x1="22" x2="22" y1="82.6094" y2="270.7188"/><line style="stroke:#181818;stroke-width:0.5;stroke-dasharray:5.0,5.0;" x1="187.6812" x2="187.6812" y1="82.6094" y2="270.7188"/><line style="stroke:#181818;stroke-width:0.5;stroke-dasharray:5.0,5.0;" x1="375.4961" x2="375.4961" y1="82.6094" y2="270.7188"/><line style="stroke:#181818;stroke-width:0.5;stroke-dasharray:5.0,5.0;" x1="448.751" x2="448.751" y1="82.6094" y2="270.7188"/><text fill="#000000" font-family="sans-serif" font-size="14" lengthAdjust="spacing" textLength="28.7861" x="5" y="79.5332">Host</text><ellipse cx="22.3931" cy="13.5" fill="#E3E3E3" rx="8" ry="8" style="stroke:#181818;stroke-width:0.5;"/><path d="M22.3931,21.5 L22.3931,48.5 M9.3931,29.5 L35.3931,29.5 M22.3931,48.5 L9.3931,63.5 M22.3931,48.5 L35.3931,63.5 " fill="none" style="stroke:#181818;stroke-width:0.5;"/><text fill="#000000" font-family="sans-serif" font-size="14" lengthAdjust="spacing" textLength="28.7861" x="5" y="284.252">Host</text><ellipse cx="22.3931" cy="295.8281" fill="#E3E3E3" rx="8" ry="8" style="stroke:#181818;stroke-width:0.5;"/><path d="M22.3931,303.8281 L22.3931,330.8281 M9.3931,311.8281 L35.3931,311.8281 M22.3931,330.8281 L9.3931,345.8281 M22.3931,330.8281 L35.3931,345.8281 " fill="none" style="stroke:#181818;stroke-width:0.5;"/><rect fill="#E3E3E3" height="31.6094" rx="2.5" ry="2.5" style="stroke:#181818;stroke-width:0.5;" width="112.0615" x="131.6812" y="50"/><text fill="#000000" font-family="sans-serif" font-size="14" lengthAdjust="spacing" textLength="98.0615" x="138.6812" y="71.5332">BearingSession</text><rect fill="#E3E3E3" height="31.6094" rx="2.5" ry="2.5" style="stroke:#181818;stroke-width:0.5;" width="112.0615" x="131.6812" y="269.7188"/><text fill="#000000" font-family="sans-serif" font-size="14" lengthAdjust="spacing" textLength="98.0615" x="138.6812" y="291.252">BearingSession</text><rect fill="#E3E3E3" height="31.6094" rx="2.5" ry="2.5" style="stroke:#181818;stroke-width:0.5;" width="69.2549" x="341.4961" y="50"/><text fill="#000000" font-family="sans-serif" font-size="14" lengthAdjust="spacing" textLength="55.2549" x="348.4961" y="71.5332">Validator</text><rect fill="#E3E3E3" height="31.6094" rx="2.5" ry="2.5" style="stroke:#181818;stroke-width:0.5;" width="69.2549" x="341.4961" y="269.7188"/><text fill="#000000" font-family="sans-serif" font-size="14" lengthAdjust="spacing" textLength="55.2549" x="348.4961" y="291.252">Validator</text><rect fill="#E3E3E3" height="31.6094" rx="2.5" ry="2.5" style="stroke:#181818;stroke-width:0.5;" width="57.5928" x="420.751" y="50"/><text fill="#000000" font-family="sans-serif" font-size="14" lengthAdjust="spacing" textLength="43.5928" x="427.751" y="71.5332">Logger</text><rect fill="#E3E3E3" height="31.6094" rx="2.5" ry="2.5" style="stroke:#181818;stroke-width:0.5;" width="57.5928" x="420.751" y="269.7188"/><text fill="#000000" font-family="sans-serif" font-size="14" lengthAdjust="spacing" textLength="43.5928" x="427.751" y="291.252">Logger</text><polygon fill="#181818" points="175.7119,110.9609,185.7119,114.9609,175.7119,118.9609,179.7119,114.9609" style="stroke:#181818;stroke-width:1.0;"/><line style="stroke:#181818;stroke-width:1.0;" x1="22.3931" x2="181.7119" y1="114.9609" y2="114.9609"/><text fill="#000000" font-family="sans-serif" font-size="13" font-weight="bold" lengthAdjust="spacing" textLength="7.23" x="29.3931" y="110.1045">1</text><text fill="#000000" font-family="sans-serif" font-size="13" lengthAdjust="spacing" textLength="124.2871" x="40.623" y="110.1045">onPositionUpdate(fix)</text><polygon fill="#181818" points="364.1235,141.3125,374.1235,145.3125,364.1235,149.3125,368.1235,145.3125" style="stroke:#181818;stroke-width:1.0;"/><line style="stroke:#181818;stroke-width:1.0;" x1="187.7119" x2="370.1235" y1="145.3125" y2="145.3125"/><text fill="#000000" font-family="sans-serif" font-size="13" font-weight="bold" lengthAdjust="spacing" textLength="7.23" x="194.7119" y="140.4561">2</text><text fill="#000000" font-family="sans-serif" font-size="13" lengthAdjust="spacing" textLength="66.4663" x="205.9419" y="140.4561">validate(fix)</text><polygon fill="#181818" points="198.7119,188.0156,188.7119,192.0156,198.7119,196.0156,194.7119,192.0156" style="stroke:#181818;stroke-width:1.0;"/><line style="stroke:#181818;stroke-width:1.0;stroke-dasharray:2.0,2.0;" x1="192.7119" x2="375.1235" y1="192.0156" y2="192.0156"/><text fill="#000000" font-family="sans-serif" font-size="13" font-weight="bold" lengthAdjust="spacing" textLength="7.23" x="204.7119" y="178.9834">3</text><text fill="#000000" font-family="sans-serif" font-size="13" font-weight="bold" lengthAdjust="spacing" textLength="35.3818" x="215.9419" y="170.8076">throw</text><text fill="#000000" font-family="sans-serif" font-size="13" lengthAdjust="spacing" textLength="114.188" x="254.9355" y="170.8076">ValidationException</text><text fill="#000000" font-family="sans-serif" font-size="13" lengthAdjust="spacing" textLength="110.5063" x="215.9419" y="187.1592">(COORD_RANGE)</text><polygon fill="#181818" points="437.5474,218.3672,447.5474,222.3672,437.5474,226.3672,441.5474,222.3672" style="stroke:#181818;stroke-width:1.0;"/><line style="stroke:#181818;stroke-width:1.0;" x1="187.7119" x2="443.5474" y1="222.3672" y2="222.3672"/><text fill="#000000" font-family="sans-serif" font-size="13" font-weight="bold" lengthAdjust="spacing" textLength="7.23" x="194.7119" y="217.5107">4</text><text fill="#000000" font-family="sans-serif" font-size="13" lengthAdjust="spacing" textLength="127.1689" x="205.9419" y="217.5107">warn(sessionId, code)</text><polygon fill="#181818" points="33.3931,248.7188,23.3931,252.7188,33.3931,256.7188,29.3931,252.7188" style="stroke:#181818;stroke-width:1.0;"/><line style="stroke:#181818;stroke-width:1.0;stroke-dasharray:2.0,2.0;" x1="27.3931" x2="186.7119" y1="252.7188" y2="252.7188"/><text fill="#000000" font-family="sans-serif" font-size="13" font-weight="bold" lengthAdjust="spacing" textLength="7.23" x="39.3931" y="247.8623">5</text><text fill="#000000" font-family="sans-serif" font-size="13" lengthAdjust="spacing" textLength="130.0889" x="50.623" y="247.8623">Exception propagieren</text><!--SRC=[LO_1QiCm38RlVWhHKnRM5yYXi6nb6uHsD2odmT0SDJLh96CvInz_pf8LUXFwz7-IzDknnu0zzC9YJq5wWXW6CdebUi9MHiST7F6iP728maF_HS4Oj542l8X6auQZiyuZHrYLX24bQb9rmYj0XRA-7Mdmx5fCyJ_QtC9AkevcKXap-M6zIOe2XDz4NKpMTv_Yb1tTvSwKzSIR0dvcwz9kOBt4yZocvyOyXsLl4cmlblnKV73skDyVdZuF3xldxR-jAc34m9dEJxoszs2bfHadFbrLm5K2FeZ7pb4W_WK0]--></g></svg>