<svg xmlns="http://www.w3.org/2000/svg" xmlns:xlink="http://www.w3.org/1999/xlink" contentStyleType="text/css" data-diagram-type="DESCRIPTION" height="602px" preserveAspectRatio="none" style="width:658px;height:602px;background:#FFFFFF;" version="1.1" viewBox="0 0 658 602" width="658px" zoomAndPan="magnify"><?plantuml 1.2026.3beta6?><defs/><g><!--cluster DEVICE--><g class="cluster" data-qualified-name="DEVICE" data-source-line="4" id="ent0002"><polygon fill="none" points="16,125.29,26,115.29,405,115.29,405,490.18,395,500.18,16,500.18,16,125.29" style="stroke:#181818;stroke-width:1;"/><line style="stroke:#181818;stroke-width:1;" x1="395" x2="405" y1="125.29" y2="115.29"/><line style="stroke:#181818;stroke-width:1;" x1="16" x2="395" y1="125.29" y2="125.29"/><line style="stroke:#181818;stroke-width:1;" x1="395" x2="395" y1="125.29" y2="500.18"/><text fill="#000000" font-family="sans-serif" font-size="14" font-weight="700" lengthAdjust="spacing" textLength="161.376" x="125.812" y="141.2851">Endgeraet / Rechner</text></g><!--cluster JVM--><g class="cluster" data-qualified-name="DEVICE.JVM" data-source-line="5" id="ent0003"><polygon fill="none" points="40,173.29,50,163.29,381,163.29,381,364.89,371,374.89,40,374.89,40,173.29" style="stroke:#181818;stroke-width:1;"/><line style="stroke:#181818;stroke-width:1;" x1="371" x2="381" y1="173.29" y2="163.29"/><line style="stroke:#181818;stroke-width:1;" x1="40" x2="371" y1="173.29" y2="173.29"/><line style="stroke:#181818;stroke-width:1;" x1="371" x2="371" y1="173.29" y2="374.89"/><text fill="#000000" font-family="sans-serif" font-size="14" font-weight="700" lengthAdjust="spacing" textLength="96.8789" x="158.0605" y="189.2851">JVM-Prozess</text></g><!--entity FS--><g class="entity" data-qualified-name="DEVICE.FS" data-source-line="9" id="ent0006"><polygon fill="#F1F1F1" points="125.37,447.89,135.37,437.89,310.6337,437.89,310.6337,474.1869,300.6337,484.1869,125.37,484.1869,125.37,447.89" style="stroke:#181818;stroke-width:0.5;"/><line style="stroke:#181818;stroke-width:0.5;" x1="300.6337" x2="310.6337" y1="447.89" y2="437.89"/><line style="stroke:#181818;stroke-width:0.5;" x1="125.37" x2="300.6337" y1="447.89" y2="447.89"/><line style="stroke:#181818;stroke-width:0.5;" x1="300.6337" x2="300.6337" y1="447.89" y2="484.1869"/><text fill="#000000" font-family="sans-serif" font-size="14" lengthAdjust="spacing" textLength="145.2637" x="140.37" y="470.8851">Lokales Dateisystem</text></g><!--entity HOST--><g class="entity" data-qualified-name="DEVICE.JVM.HOST" data-source-line="6" id="ent0004"><rect fill="#F1F1F1" height="39.2969" rx="2.5" ry="2.5" style="stroke:#181818;stroke-width:0.5;" width="149.834" x="99.08" y="203.29"/><polygon fill="#F1F1F1" points="231.914,208.29,231.914,222.29,243.914,222.29,243.914,214.29,237.914,208.29,231.914,208.29" style="stroke:#181818;stroke-width:0.5;"/><line style="stroke:#181818;stroke-width:0.5;" x1="237.914" x2="237.914" y1="208.29" y2="214.29"/><line style="stroke:#181818;stroke-width:0.5;" x1="243.914" x2="237.914" y1="214.29" y2="214.29"/><text fill="#000000" font-family="sans-serif" font-size="14" lengthAdjust="spacing" textLength="119.834" x="109.08" y="229.2851">Host-Anwendung</text></g><!--entity LIB--><g class="entity" data-qualified-name="DEVICE.JVM.LIB" data-source-line="7" id="ent0005"><rect fill="#F1F1F1" height="39.2969" rx="2.5" ry="2.5" style="stroke:#181818;stroke-width:0.5;" width="211.6104" x="112.19" y="319.59"/><polygon fill="#F1F1F1" points="306.8004,324.59,306.8004,338.59,318.8004,338.59,318.8004,330.59,312.8004,324.59,306.8004,324.59" style="stroke:#181818;stroke-width:0.5;"/><line style="stroke:#181818;stroke-width:0.5;" x1="312.8004" x2="312.8004" y1="324.59" y2="330.59"/><line style="stroke:#181818;stroke-width:0.5;" x1="318.8004" x2="312.8004" y1="330.59" y2="330.59"/><text fill="#000000" font-family="sans-serif" font-size="14" lengthAdjust="spacing" textLength="181.6104" x="122.19" y="345.5851">Java-Peilungskomponente</text></g><!--entity GNSS--><g class="entity" data-qualified-name="GNSS" data-source-line="12" id="ent0007"><polygon fill="#F1F1F1" points="47.69,16,57.69,6,300.315,6,300.315,42.2969,290.315,52.2969,47.69,52.2969,47.69,16" style="stroke:#181818;stroke-width:0.5;"/><line style="stroke:#181818;stroke-width:0.5;" x1="290.315" x2="300.315" y1="16" y2="6"/><line style="stroke:#181818;stroke-width:0.5;" x1="47.69" x2="290.315" y1="16" y2="16"/><line style="stroke:#181818;stroke-width:0.5;" x1="290.315" x2="290.315" y1="16" y2="52.2969"/><text fill="#000000" font-family="sans-serif" font-size="14" lengthAdjust="spacing" textLength="212.625" x="62.69" y="38.9951">GNSS/Sensorstack (hostseitig)</text></g><!--entity W3W--><g class="entity" data-qualified-name="W3W" data-source-line="13" id="ent0008"><path d="M429.6092,446.9316 C432.7096,441.7231 438.7429,441.9158 441.7935,446.9905 C446.1096,440.654 452.2343,438.581 456.8737,446.6521 C460.4523,441.1834 464.4341,439.0182 469.3128,445.2727 C472.6622,438.1604 478.8682,438.1422 482.7816,444.7177 C485.5331,438.9631 491.1332,438.2448 495.1069,443.3277 C500.7006,437.5593 505.2214,437.4505 509.0111,445.1852 C512.0447,439.6148 517.6786,438.8327 520.7197,445.1779 C525.4207,438.0881 530.096,438.7157 535.0289,444.9285 C538.9834,440.1132 543.7774,439.1926 547.0805,445.6263 C551.9223,439.908 556.6692,440.4002 560.8516,446.401 C569.3682,449.9397 570.8157,457.3315 562.5774,462.6497 C567.8673,468.2958 568.3691,473.5241 559.9769,476.624 C555.5573,483.0782 551.3729,482.3714 546.52,477.1223 C544.3311,483.7168 538.2267,484.5051 533.839,479.533 C529.9867,486.0368 525.4429,486.2996 521.0003,480.131 C517.4318,486.7096 511.1093,486.0087 507.5033,480.1718 C505.2219,486.7807 499.7788,486.6203 496.0757,481.5648 C491.6193,487.2868 485.3691,487.9835 481.4649,480.933 C477.3973,486.0937 471.1936,487.3091 468.2037,479.8045 C464.0601,484.5867 458.0151,484.612 455.6176,477.8936 C451.1789,483.6866 447.3891,483.7258 443.7138,477.1583 C438.5151,484.239 433.7325,483.5338 428.9244,476.7419 C422.0721,474.0457 421.0802,467.2872 426.5948,462.5596 C420.5386,456.223 421.4917,450.5343 429.6092,446.9316" fill="#F1F1F1" style="stroke:#181818;stroke-width:0.5;"/><text fill="#000000" font-family="sans-serif" font-size="14" lengthAdjust="spacing" textLength="116.6348" x="435.68" y="465.8851">What3Words API</text></g><g class="entity" data-qualified-name="GMN14" data-source-line="22" id="ent0015"><path d="M344.45,547.18 L344.45,587.4456 A0,0 0 0 0 344.45,587.4456 L643.5599,587.4456 A0,0 0 0 0 643.5599,587.4456 L643.5599,557.18 L633.5599,547.18 L498,547.18 L494,484.66 L490,547.18 L344.45,547.18 A0,0 0 0 0 344.45,547.18" fill="#FAFAFA" style="stroke:#181818;stroke-width:0.5;"/><path d="M633.5599,547.18 L633.5599,557.18 L643.5599,557.18 L633.5599,547.18" fill="#FAFAFA" style="stroke:#181818;stroke-width:0.5;"/><text fill="#000000" font-family="sans-serif" font-size="13" lengthAdjust="spacing" textLength="270.2515" x="350.45" y="564.2469">No direct hardware control by the library.</text><text fill="#000000" font-family="sans-serif" font-size="13" lengthAdjust="spacing" textLength="278.1099" x="350.45" y="579.3797">Network access is optional and decoupled.</text></g><!--link GNSS to HOST--><g class="link" data-entity-1="ent0007" data-entity-2="ent0004" data-link-type="dependency" data-source-line="15" id="lnk9"><path d="M174,52.52 C174,90.57 174,161.19 174,196.86" fill="none" id="GNSS-to-HOST" style="stroke:#181818;stroke-width:1;"/><polygon fill="#181818" points="174,202.86,178,193.86,174,197.86,170,193.86,174,202.86" style="stroke:#181818;stroke-width:1;"/><text fill="#000000" font-family="sans-serif" font-size="13" lengthAdjust="spacing" textLength="84.3413" x="175" y="95.3569">Position/Kurs</text></g><!--link HOST to LIB--><g class="link" data-entity-1="ent0004" data-entity-2="ent0005" data-link-type="dependency" data-source-line="16" id="lnk10"><path d="M118.4,243.04 C94.49,254.45 74.73,270.45 88,289.59 C97.06,302.66 104.6974,309.5895 119.0474,316.5895" fill="none" id="HOST-to-LIB" style="stroke:#181818;stroke-width:1;"/><polygon fill="#181818" points="124.44,319.22,118.1048,311.6791,119.9462,317.0279,114.5974,318.8693,124.44,319.22" style="stroke:#181818;stroke-width:1;"/><text fill="#000000" font-family="sans-serif" font-size="13" lengthAdjust="spacing" textLength="85.96" x="89" y="285.6569">Java-API calls</text></g><!--link LIB to HOST--><g class="link" data-entity-1="ent0005" data-entity-2="ent0004" data-link-type="dependency" data-source-line="17" id="lnk11"><path d="M210.76,319.43 C202.64,298.33 191.6972,269.8988 183.5172,248.6688" fill="none" id="LIB-to-HOST" style="stroke:#181818;stroke-width:1;"/><polygon fill="#181818" points="181.36,243.07,180.8633,252.9063,183.1577,247.7357,188.3284,250.03,181.36,243.07" style="stroke:#181818;stroke-width:1;"/><text fill="#000000" font-family="sans-serif" font-size="13" lengthAdjust="spacing" textLength="145.4438" x="199" y="285.6569">snapshots/events/GPX</text></g><!--link LIB to FS--><g class="link" data-entity-1="ent0005" data-entity-2="ent0006" data-link-type="dependency" data-source-line="18" id="lnk12"><path d="M218,359.22 C218,380.47 218,408.86 218,431.47" fill="none" id="LIB-to-FS" style="stroke:#181818;stroke-width:1;"/><polygon fill="#181818" points="218,437.47,222,428.47,218,432.47,214,428.47,218,437.47" style="stroke:#181818;stroke-width:1;"/><text fill="#000000" font-family="sans-serif" font-size="13" lengthAdjust="spacing" textLength="144.3838" x="219" y="403.9569">optional GPX file write</text></g><!--link LIB to W3W--><g class="link" data-entity-1="ent0005" data-entity-2="ent0008" data-link-type="dependency" data-source-line="19" id="lnk13"><path d="M317.26,359.34 C346.41,367 377.76,377.31 405,390.89 C429.34,403.02 449.0117,418.3769 465.9917,433.5169" fill="none" id="LIB-to-W3W" style="stroke:#181818;stroke-width:1;"/><polygon fill="#181818" points="470.47,437.51,466.4145,428.5349,466.7381,434.1825,461.0905,434.506,470.47,437.51" style="stroke:#181818;stroke-width:1;"/><text fill="#000000" font-family="sans-serif" font-size="13" lengthAdjust="spacing" textLength="98.5664" x="432" y="403.9569">optional HTTPS</text></g><?plantuml-src NP51Rzim38Nl-XL4Jjl1zQ6t7WPqMzgaxJ9Z3ffT6Oc91SkY8J8rig7_VRA6PiMEulj8lYTAx-E82GSOEBBj4Wy4cavavA98Xuud7uzmm21aJ6H7i5X6TwI4f5333x9TfBG05FYwV5v_MS9l0_0NV7Z-LZM9Vv580VAxg02Or1_GAYnMB5hTnecYEyLZmLRVs-r_r0E-ODMG3vcHdeUH8qMbWZ-jFsVwzRBrYNiCbEsWafUpA0s5kslDwrk4-qtRrYr5uIIAjeSFNVOXvDKVFnPw9emDV7Ams7MerpjEJk2sMHTvTxqpPcQWgZuLnt033KiUmB5-F2KnfJYhsM0MIuJS3XP343CNtxLAn54wLgdf9IUJ-hxvUM7ksapmE8_605c1Wmy4K_9A5oWxUa-jjjkcdUCgmPvLUJ0R1kSJvV_iCBa94u7bg8a3xC-W7K7m-uJfV6Ksf1Ed7j3QV3pmycymHWUEB9_6GExAvBl1lEGF?></g></svg>