<svg xmlns="http://www.w3.org/2000/svg" xmlns:xlink="http://www.w3.org/1999/xlink" contentStyleType="text/css" height="550px" preserveAspectRatio="none" style="width:880px;height:550px;background:#FFFFFF;" version="1.1" viewBox="0 0 880 550" width="880px" zoomAndPan="magnify"><defs/><g><rect fill="none" height="79.0547" style="stroke:#000000;stroke-width:1.5;" width="280.5166" x="375.8613" y="221.0156"/><line style="stroke:#181818;stroke-width:0.5;stroke-dasharray:5.0,5.0;" x1="22" x2="22" y1="82.6094" y2="468.8281"/><line style="stroke:#181818;stroke-width:0.5;stroke-dasharray:5.0,5.0;" x1="185.8403" x2="185.8403" y1="82.6094" y2="468.8281"/><line style="stroke:#181818;stroke-width:0.5;stroke-dasharray:5.0,5.0;" x1="316.9443" x2="316.9443" y1="82.6094" y2="468.8281"/><line style="stroke:#181818;stroke-width:0.5;stroke-dasharray:5.0,5.0;" x1="455.8613" x2="455.8613" y1="82.6094" y2="468.8281"/><line style="stroke:#181818;stroke-width:0.5;stroke-dasharray:5.0,5.0;" x1="591.4814" x2="591.4814" y1="82.6094" y2="468.8281"/><line style="stroke:#181818;stroke-width:0.5;stroke-dasharray:5.0,5.0;" x1="705.3779" x2="705.3779" y1="82.6094" y2="468.8281"/><line style="stroke:#181818;stroke-width:0.5;stroke-dasharray:5.0,5.0;" x1="828.7544" x2="828.7544" y1="82.6094" y2="468.8281"/><text fill="#000000" font-family="sans-serif" font-size="14" lengthAdjust="spacing" textLength="28.7861" x="5" y="79.5332">Host</text><ellipse cx="22.3931" cy="13.5" fill="#E3E3E3" rx="8" ry="8" style="stroke:#181818;stroke-width:0.5;"/><path d="M22.3931,21.5 L22.3931,48.5 M9.3931,29.5 L35.3931,29.5 M22.3931,48.5 L9.3931,63.5 M22.3931,48.5 L35.3931,63.5 " fill="none" style="stroke:#181818;stroke-width:0.5;"/><text fill="#000000" font-family="sans-serif" font-size="14" lengthAdjust="spacing" textLength="28.7861" x="5" y="482.3613">Host</text><ellipse cx="22.3931" cy="493.9375" fill="#E3E3E3" rx="8" ry="8" style="stroke:#181818;stroke-width:0.5;"/><path d="M22.3931,501.9375 L22.3931,528.9375 M9.3931,509.9375 L35.3931,509.9375 M22.3931,528.9375 L9.3931,543.9375 M22.3931,528.9375 L35.3931,543.9375 " fill="none" style="stroke:#181818;stroke-width:0.5;"/><rect fill="#E3E3E3" height="31.6094" rx="2.5" ry="2.5" style="stroke:#181818;stroke-width:0.5;" width="112.0615" x="129.8403" y="50"/><text fill="#000000" font-family="sans-serif" font-size="14" lengthAdjust="spacing" textLength="98.0615" x="136.8403" y="71.5332">BearingSession</text><rect fill="#E3E3E3" height="31.6094" rx="2.5" ry="2.5" style="stroke:#181818;stroke-width:0.5;" width="112.0615" x="129.8403" y="467.8281"/><text fill="#000000" font-family="sans-serif" font-size="14" lengthAdjust="spacing" textLength="98.0615" x="136.8403" y="489.3613">BearingSession</text><rect fill="#E3E3E3" height="31.6094" rx="2.5" ry="2.5" style="stroke:#181818;stroke-width:0.5;" width="115.917" x="259.9443" y="50"/><text fill="#000000" font-family="sans-serif" font-size="14" lengthAdjust="spacing" textLength="101.917" x="266.9443" y="71.5332">TrackRepository</text><rect fill="#E3E3E3" height="31.6094" rx="2.5" ry="2.5" style="stroke:#181818;stroke-width:0.5;" width="115.917" x="259.9443" y="467.8281"/><text fill="#000000" font-family="sans-serif" font-size="14" lengthAdjust="spacing" textLength="101.917" x="266.9443" y="489.3613">TrackRepository</text><rect fill="#E3E3E3" height="31.6094" rx="2.5" ry="2.5" style="stroke:#181818;stroke-width:0.5;" width="141.6201" x="385.8613" y="50"/><text fill="#000000" font-family="sans-serif" font-size="14" lengthAdjust="spacing" textLength="127.6201" x="392.8613" y="71.5332">OptimizationPipeline</text><rect fill="#E3E3E3" height="31.6094" rx="2.5" ry="2.5" style="stroke:#181818;stroke-width:0.5;" width="141.6201" x="385.8613" y="467.8281"/><text fill="#000000" font-family="sans-serif" font-size="14" lengthAdjust="spacing" textLength="127.6201" x="392.8613" y="489.3613">OptimizationPipeline</text><rect fill="#E3E3E3" height="31.6094" rx="2.5" ry="2.5" style="stroke:#181818;stroke-width:0.5;" width="108.8965" x="537.4814" y="50"/><text fill="#000000" font-family="sans-serif" font-size="14" lengthAdjust="spacing" textLength="94.8965" x="544.4814" y="71.5332">TrackOptimizer</text><rect fill="#E3E3E3" height="31.6094" rx="2.5" ry="2.5" style="stroke:#181818;stroke-width:0.5;" width="108.8965" x="537.4814" y="467.8281"/><text fill="#000000" font-family="sans-serif" font-size="14" lengthAdjust="spacing" textLength="94.8965" x="544.4814" y="489.3613">TrackOptimizer</text><rect fill="#E3E3E3" height="31.6094" rx="2.5" ry="2.5" style="stroke:#181818;stroke-width:0.5;" width="98.0273" x="656.3779" y="50"/><text fill="#000000" font-family="sans-serif" font-size="14" lengthAdjust="spacing" textLength="84.0273" x="663.3779" y="71.5332">GpxSerializer</text><rect fill="#E3E3E3" height="31.6094" rx="2.5" ry="2.5" style="stroke:#181818;stroke-width:0.5;" width="98.0273" x="656.3779" y="467.8281"/><text fill="#000000" font-family="sans-serif" font-size="14" lengthAdjust="spacing" textLength="84.0273" x="663.3779" y="489.3613">GpxSerializer</text><rect fill="#E3E3E3" height="31.6094" rx="2.5" ry="2.5" style="stroke:#181818;stroke-width:0.5;" width="89.4688" x="784.7544" y="50"/><text fill="#000000" font-family="sans-serif" font-size="14" lengthAdjust="spacing" textLength="75.4688" x="791.7544" y="71.5332">XmlEscaper</text><rect fill="#E3E3E3" height="31.6094" rx="2.5" ry="2.5" style="stroke:#181818;stroke-width:0.5;" width="89.4688" x="784.7544" y="467.8281"/><text fill="#000000" font-family="sans-serif" font-size="14" lengthAdjust="spacing" textLength="75.4688" x="791.7544" y="489.3613">XmlEscaper</text><polygon fill="#181818" points="173.8711,110.9609,183.8711,114.9609,173.8711,118.9609,177.8711,114.9609" style="stroke:#181818;stroke-width:1.0;"/><line style="stroke:#181818;stroke-width:1.0;" x1="22.3931" x2="179.8711" y1="114.9609" y2="114.9609"/><text fill="#000000" font-family="sans-serif" font-size="13" font-weight="bold" lengthAdjust="spacing" textLength="7.23" x="29.3931" y="110.1045">1</text><text fill="#000000" font-family="sans-serif" font-size="13" lengthAdjust="spacing" textLength="61.4072" x="40.623" y="110.1045">complete()</text><polygon fill="#181818" points="305.9028,141.3125,315.9028,145.3125,305.9028,149.3125,309.9028,145.3125" style="stroke:#181818;stroke-width:1.0;"/><line style="stroke:#181818;stroke-width:1.0;" x1="185.8711" x2="311.9028" y1="145.3125" y2="145.3125"/><text fill="#000000" font-family="sans-serif" font-size="13" font-weight="bold" lengthAdjust="spacing" textLength="7.23" x="192.8711" y="140.4561">2</text><text fill="#000000" font-family="sans-serif" font-size="13" lengthAdjust="spacing" textLength="96.8018" x="204.1011" y="140.4561">immutableView()</text><polygon fill="#181818" points="196.8711,171.6641,186.8711,175.6641,196.8711,179.6641,192.8711,175.6641" style="stroke:#181818;stroke-width:1.0;"/><line style="stroke:#181818;stroke-width:1.0;stroke-dasharray:2.0,2.0;" x1="190.8711" x2="316.9028" y1="175.6641" y2="175.6641"/><text fill="#000000" font-family="sans-serif" font-size="13" font-weight="bold" lengthAdjust="spacing" textLength="7.23" x="202.8711" y="170.8076">3</text><text fill="#000000" font-family="sans-serif" font-size="13" lengthAdjust="spacing" textLength="28.1709" x="214.1011" y="170.8076">track</text><polygon fill="#181818" points="444.6714,202.0156,454.6714,206.0156,444.6714,210.0156,448.6714,206.0156" style="stroke:#181818;stroke-width:1.0;"/><line style="stroke:#181818;stroke-width:1.0;" x1="185.8711" x2="450.6714" y1="206.0156" y2="206.0156"/><text fill="#000000" font-family="sans-serif" font-size="13" font-weight="bold" lengthAdjust="spacing" textLength="7.23" x="192.8711" y="201.1592">4</text><text fill="#000000" font-family="sans-serif" font-size="13" lengthAdjust="spacing" textLength="96.0972" x="204.1011" y="201.1592">apply(strategies)</text><path d="M375.8613,221.0156 L448.2959,221.0156 L448.2959,229.3672 L438.2959,239.3672 L375.8613,239.3672 L375.8613,221.0156 " fill="#EEEEEE" style="stroke:#000000;stroke-width:1.5;"/><rect fill="none" height="79.0547" style="stroke:#000000;stroke-width:1.5;" width="280.5166" x="375.8613" y="221.0156"/><text fill="#000000" font-family="sans-serif" font-size="13" font-weight="bold" lengthAdjust="spacing" textLength="27.4346" x="390.8613" y="235.5107">loop</text><text fill="#000000" font-family="sans-serif" font-size="11" font-weight="bold" lengthAdjust="spacing" textLength="66.6284" x="463.2959" y="234.4346">[je Strategie]</text><polygon fill="#181818" points="579.9297,257.7188,589.9297,261.7188,579.9297,265.7188,583.9297,261.7188" style="stroke:#181818;stroke-width:1.0;"/><line style="stroke:#181818;stroke-width:1.0;" x1="456.6714" x2="585.9297" y1="261.7188" y2="261.7188"/><text fill="#000000" font-family="sans-serif" font-size="13" font-weight="bold" lengthAdjust="spacing" textLength="7.23" x="463.6714" y="256.8623">5</text><text fill="#000000" font-family="sans-serif" font-size="13" lengthAdjust="spacing" textLength="91.7554" x="474.9014" y="256.8623">optimize(points)</text><polygon fill="#181818" points="467.6714,288.0703,457.6714,292.0703,467.6714,296.0703,463.6714,292.0703" style="stroke:#181818;stroke-width:1.0;"/><line style="stroke:#181818;stroke-width:1.0;stroke-dasharray:2.0,2.0;" x1="461.6714" x2="590.9297" y1="292.0703" y2="292.0703"/><text fill="#000000" font-family="sans-serif" font-size="13" font-weight="bold" lengthAdjust="spacing" textLength="7.23" x="473.6714" y="287.2139">6</text><text fill="#000000" font-family="sans-serif" font-size="13" lengthAdjust="spacing" textLength="46.979" x="484.9014" y="287.2139">reduced</text><polygon fill="#181818" points="693.3916,325.4219,703.3916,329.4219,693.3916,333.4219,697.3916,329.4219" style="stroke:#181818;stroke-width:1.0;"/><line style="stroke:#181818;stroke-width:1.0;" x1="185.8711" x2="699.3916" y1="329.4219" y2="329.4219"/><text fill="#000000" font-family="sans-serif" font-size="13" font-weight="bold" lengthAdjust="spacing" textLength="7.23" x="192.8711" y="324.5654">7</text><text fill="#000000" font-family="sans-serif" font-size="13" lengthAdjust="spacing" textLength="168.3462" x="204.1011" y="324.5654">toDocument(track, metadata)</text><polygon fill="#181818" points="817.4888,355.7734,827.4888,359.7734,817.4888,363.7734,821.4888,359.7734" style="stroke:#181818;stroke-width:1.0;"/><line style="stroke:#181818;stroke-width:1.0;" x1="705.3916" x2="823.4888" y1="359.7734" y2="359.7734"/><text fill="#000000" font-family="sans-serif" font-size="13" font-weight="bold" lengthAdjust="spacing" textLength="7.23" x="712.3916" y="354.917">8</text><text fill="#000000" font-family="sans-serif" font-size="13" lengthAdjust="spacing" textLength="88.8672" x="723.6216" y="354.917">escape(strings)</text><polygon fill="#181818" points="716.3916,386.125,706.3916,390.125,716.3916,394.125,712.3916,390.125" style="stroke:#181818;stroke-width:1.0;"/><line style="stroke:#181818;stroke-width:1.0;stroke-dasharray:2.0,2.0;" x1="710.3916" x2="828.4888" y1="390.125" y2="390.125"/><text fill="#000000" font-family="sans-serif" font-size="13" font-weight="bold" lengthAdjust="spacing" textLength="7.23" x="722.3916" y="385.2686">9</text><text fill="#000000" font-family="sans-serif" font-size="13" lengthAdjust="spacing" textLength="24.5718" x="733.6216" y="385.2686">safe</text><polygon fill="#181818" points="196.8711,416.4766,186.8711,420.4766,196.8711,424.4766,192.8711,420.4766" style="stroke:#181818;stroke-width:1.0;"/><line style="stroke:#181818;stroke-width:1.0;stroke-dasharray:2.0,2.0;" x1="190.8711" x2="704.3916" y1="420.4766" y2="420.4766"/><text fill="#000000" font-family="sans-serif" font-size="13" font-weight="bold" lengthAdjust="spacing" textLength="14.46" x="202.8711" y="415.6201">10</text><text fill="#000000" font-family="sans-serif" font-size="13" lengthAdjust="spacing" textLength="124.998" x="221.3311" y="415.6201">GpxDocument / bytes</text><polygon fill="#181818" points="33.3931,446.8281,23.3931,450.8281,33.3931,454.8281,29.3931,450.8281" style="stroke:#181818;stroke-width:1.0;"/><line style="stroke:#181818;stroke-width:1.0;stroke-dasharray:2.0,2.0;" x1="27.3931" x2="184.8711" y1="450.8281" y2="450.8281"/><text fill="#000000" font-family="sans-serif" font-size="13" font-weight="bold" lengthAdjust="spacing" textLength="14.46" x="39.3931" y="445.9717">11</text><text fill="#000000" font-family="sans-serif" font-size="13" lengthAdjust="spacing" textLength="121.0181" x="57.853" y="445.9717">GpxResult + Statistik</text><!--SRC=[RP4zRy9038Rt-nKMKr2BkcVeW8he5fH4LLQJ67hbldJdYD9VN-SQa29rjPzxxDUNBje5Z6Z1UkVxp-Wj0SUHL7fqqYSE_ghT6Kve4YaSsRlH7YagXJtx2Ey-iHAOTQy3EeRLbZ3AYuPIqjwj01DicoNIHkmlDGMVj3XkcMdh9LC5rbR_88lae0CPxIY3rU4VsKnJ_7DLIsGVlXkA6is3s7TBehDcbteCSxlRAJKbWyshB5z2xsqmn5IirRQPYcrTWhPsP3mQ-j1qbKvRmsRcUTffHgj32HY2kHL9oandJMcjZFS1lWYQUqs1a5bTbU3dE4Nmsh7W8ELidsoHXh6dGP4RvXdxJcRwDz-FbXmNUVmpM68Sa76jzjr4TRiIAAUSLf4_4d6tozf9aF14cPn3oDNkHdY1uuqfvN7IdcwJWPhIQ1YU98VyL69z-GK0]--></g></svg>