<svg xmlns="http://www.w3.org/2000/svg" xmlns:xlink="http://www.w3.org/1999/xlink" contentStyleType="text/css" height="470px" preserveAspectRatio="none" style="width:642px;height:470px;background:#FFFFFF;" version="1.1" viewBox="0 0 642 470" width="642px" zoomAndPan="magnify"><defs/><g><!--class Peilung--><g id="elem_Peilung"><rect codeLine="5" fill="#F1F1F1" height="93.9219" id="Peilung" rx="2.5" ry="2.5" style="stroke:#181818;stroke-width:0.5;" width="85.1445" x="305" y="7"/><text fill="#000000" font-family="sans-serif" font-size="12" font-style="italic" lengthAdjust="spacing" textLength="52.7051" x="321.2197" y="24.457">&#171;domain&#187;</text><text fill="#000000" font-family="sans-serif" font-size="14" lengthAdjust="spacing" textLength="46.7031" x="324.2207" y="41.627">Peilung</text><line style="stroke:#181818;stroke-width:0.5;" x1="306" x2="389.1445" y1="49.7031" y2="49.7031"/><ellipse cx="316" cy="64.0078" fill="none" rx="3" ry="3" style="stroke:#545454;stroke-width:1.0;"/><text fill="#000000" font-family="sans-serif" font-size="14" lengthAdjust="spacing" textLength="59.1445" x="325" y="68.2363">sessionId</text><ellipse cx="316" cy="81.6172" fill="none" rx="3" ry="3" style="stroke:#545454;stroke-width:1.0;"/><text fill="#000000" font-family="sans-serif" font-size="14" lengthAdjust="spacing" textLength="37.3516" x="325" y="85.8457">status</text><line style="stroke:#181818;stroke-width:0.5;" x1="306" x2="389.1445" y1="92.9219" y2="92.9219"/></g><!--class Zielpunkt--><g id="elem_Zielpunkt"><rect codeLine="10" fill="#F1F1F1" height="93.9219" id="Zielpunkt" rx="2.5" ry="2.5" style="stroke:#181818;stroke-width:0.5;" width="62.8066" x="7" y="188"/><text fill="#000000" font-family="sans-serif" font-size="12" font-style="italic" lengthAdjust="spacing" textLength="42.0352" x="17.3857" y="205.457">&#171;value&#187;</text><text fill="#000000" font-family="sans-serif" font-size="14" lengthAdjust="spacing" textLength="56.8066" x="10" y="222.627">Zielpunkt</text><line style="stroke:#181818;stroke-width:0.5;" x1="8" x2="68.8066" y1="230.7031" y2="230.7031"/><ellipse cx="18" cy="245.0078" fill="none" rx="3" ry="3" style="stroke:#545454;stroke-width:1.0;"/><text fill="#000000" font-family="sans-serif" font-size="14" lengthAdjust="spacing" textLength="14.7861" x="27" y="249.2363">lat</text><ellipse cx="18" cy="262.6172" fill="none" rx="3" ry="3" style="stroke:#545454;stroke-width:1.0;"/><text fill="#000000" font-family="sans-serif" font-size="14" lengthAdjust="spacing" textLength="18.6826" x="27" y="266.8457">lon</text><line style="stroke:#181818;stroke-width:0.5;" x1="8" x2="68.8066" y1="273.9219" y2="273.9219"/></g><!--class Standortfolge--><g id="elem_Standortfolge"><rect codeLine="15" fill="#F1F1F1" height="76.3125" id="Standortfolge" rx="2.5" ry="2.5" style="stroke:#181818;stroke-width:0.5;" width="148.9307" x="105" y="197"/><text fill="#000000" font-family="sans-serif" font-size="12" font-style="italic" lengthAdjust="spacing" textLength="42.0293" x="158.4507" y="214.457">&#171;entity&#187;</text><text fill="#000000" font-family="sans-serif" font-size="14" lengthAdjust="spacing" textLength="83.2822" x="137.8242" y="231.627">Standortfolge</text><line style="stroke:#181818;stroke-width:0.5;" x1="106" x2="252.9307" y1="239.7031" y2="239.7031"/><ellipse cx="116" cy="254.0078" fill="none" rx="3" ry="3" style="stroke:#545454;stroke-width:1.0;"/><text fill="#000000" font-family="sans-serif" font-size="14" lengthAdjust="spacing" textLength="122.9307" x="125" y="258.2363">fixes : List&lt;GpsFix&gt;</text><line style="stroke:#181818;stroke-width:0.5;" x1="106" x2="252.9307" y1="265.3125" y2="265.3125"/></g><!--class Peilungsgroessen--><g id="elem_Peilungsgroessen"><rect codeLine="19" fill="#F1F1F1" height="111.5313" id="Peilungsgroessen" rx="2.5" ry="2.5" style="stroke:#181818;stroke-width:0.5;" width="117.2959" x="289" y="179"/><text fill="#000000" font-family="sans-serif" font-size="12" font-style="italic" lengthAdjust="spacing" textLength="42.0352" x="326.6304" y="196.457">&#171;value&#187;</text><text fill="#000000" font-family="sans-serif" font-size="14" lengthAdjust="spacing" textLength="111.2959" x="292" y="213.627">Peilungsgroessen</text><line style="stroke:#181818;stroke-width:0.5;" x1="290" x2="405.2959" y1="221.7031" y2="221.7031"/><ellipse cx="300" cy="236.0078" fill="none" rx="3" ry="3" style="stroke:#545454;stroke-width:1.0;"/><text fill="#000000" font-family="sans-serif" font-size="14" lengthAdjust="spacing" textLength="74.7031" x="309" y="240.2363">azimuthDeg</text><ellipse cx="300" cy="253.6172" fill="none" rx="3" ry="3" style="stroke:#545454;stroke-width:1.0;"/><text fill="#000000" font-family="sans-serif" font-size="14" lengthAdjust="spacing" textLength="63.8066" x="309" y="257.8457">distanceM</text><ellipse cx="300" cy="271.2266" fill="none" rx="3" ry="3" style="stroke:#545454;stroke-width:1.0;"/><text fill="#000000" font-family="sans-serif" font-size="14" lengthAdjust="spacing" textLength="42.0273" x="309" y="275.4551">ordinal</text><line style="stroke:#181818;stroke-width:0.5;" x1="290" x2="405.2959" y1="282.5313" y2="282.5313"/></g><!--class Track--><g id="elem_Track"><rect codeLine="25" fill="#F1F1F1" height="76.3125" id="Track" rx="2.5" ry="2.5" style="stroke:#181818;stroke-width:0.5;" width="86.6963" x="441" y="197"/><text fill="#000000" font-family="sans-serif" font-size="12" font-style="italic" lengthAdjust="spacing" textLength="67.3945" x="450.6509" y="214.457">&#171;aggregate&#187;</text><text fill="#000000" font-family="sans-serif" font-size="14" lengthAdjust="spacing" textLength="35" x="466.8481" y="231.627">Track</text><line style="stroke:#181818;stroke-width:0.5;" x1="442" x2="526.6963" y1="239.7031" y2="239.7031"/><ellipse cx="452" cy="254.0078" fill="none" rx="3" ry="3" style="stroke:#545454;stroke-width:1.0;"/><text fill="#000000" font-family="sans-serif" font-size="14" lengthAdjust="spacing" textLength="60.6963" x="461" y="258.2363">segments</text><line style="stroke:#181818;stroke-width:0.5;" x1="442" x2="526.6963" y1="265.3125" y2="265.3125"/></g><!--class Trackpunkt--><g id="elem_Trackpunkt"><rect codeLine="29" fill="#F1F1F1" height="111.5313" id="Trackpunkt" rx="2.5" ry="2.5" style="stroke:#181818;stroke-width:0.5;" width="75.248" x="447" y="352"/><text fill="#000000" font-family="sans-serif" font-size="12" font-style="italic" lengthAdjust="spacing" textLength="42.0352" x="463.6064" y="369.457">&#171;value&#187;</text><text fill="#000000" font-family="sans-serif" font-size="14" lengthAdjust="spacing" textLength="69.248" x="450" y="386.627">Trackpunkt</text><line style="stroke:#181818;stroke-width:0.5;" x1="448" x2="521.248" y1="394.7031" y2="394.7031"/><ellipse cx="458" cy="409.0078" fill="none" rx="3" ry="3" style="stroke:#545454;stroke-width:1.0;"/><text fill="#000000" font-family="sans-serif" font-size="14" lengthAdjust="spacing" textLength="26.4482" x="467" y="413.2363">time</text><ellipse cx="458" cy="426.6172" fill="none" rx="3" ry="3" style="stroke:#545454;stroke-width:1.0;"/><text fill="#000000" font-family="sans-serif" font-size="14" lengthAdjust="spacing" textLength="14.7861" x="467" y="430.8457">lat</text><ellipse cx="458" cy="444.2266" fill="none" rx="3" ry="3" style="stroke:#545454;stroke-width:1.0;"/><text fill="#000000" font-family="sans-serif" font-size="14" lengthAdjust="spacing" textLength="18.6826" x="467" y="448.4551">lon</text><line style="stroke:#181818;stroke-width:0.5;" x1="448" x2="521.248" y1="455.5313" y2="455.5313"/></g><!--class Export--><g id="elem_Export"><rect codeLine="35" fill="#F1F1F1" height="76.3125" id="Export" rx="2.5" ry="2.5" style="stroke:#181818;stroke-width:0.5;" width="72.6826" x="563" y="197"/><text fill="#000000" font-family="sans-serif" font-size="12" font-style="italic" lengthAdjust="spacing" textLength="49.3594" x="574.6616" y="214.457">&#171;artifact&#187;</text><text fill="#000000" font-family="sans-serif" font-size="14" lengthAdjust="spacing" textLength="40.4619" x="579.1104" y="231.627">Export</text><line style="stroke:#181818;stroke-width:0.5;" x1="564" x2="634.6826" y1="239.7031" y2="239.7031"/><ellipse cx="574" cy="254.0078" fill="none" rx="3" ry="3" style="stroke:#545454;stroke-width:1.0;"/><text fill="#000000" font-family="sans-serif" font-size="14" lengthAdjust="spacing" textLength="46.6826" x="583" y="258.2363">gpxXml</text><line style="stroke:#181818;stroke-width:0.5;" x1="564" x2="634.6826" y1="265.3125" y2="265.3125"/></g><!--link Peilung to Zielpunkt--><g id="link_Peilung_Zielpunkt"><path codeLine="39" d="M304.58,69.44 C250.55,88.91 156.49,127.2 87.5,179 C81.47,183.53 79.7984,184.5938 74.3584,190.1738 " fill="none" id="Peilung-to-Zielpunkt" style="stroke:#181818;stroke-width:1.0;"/><polygon fill="#181818" points="70.17,194.47,79.3167,190.818,73.6603,190.8898,73.5885,185.2334,70.17,194.47" style="stroke:#181818;stroke-width:1.0;"/><text fill="#000000" font-family="sans-serif" font-size="13" lengthAdjust="spacing" textLength="7.23" x="289.8988" y="68.203">1</text><text fill="#000000" font-family="sans-serif" font-size="13" lengthAdjust="spacing" textLength="7.23" x="77.9097" y="181.3962">1</text></g><!--reverse link Peilung to Standortfolge--><g id="link_Peilung_Standortfolge"><path codeLine="40" d="M296.4573,109.3794 C268.4573,139.2094 240.57,168.93 214.34,196.88 " fill="none" id="Peilung-backto-Standortfolge" style="stroke:#181818;stroke-width:1.0;"/><polygon fill="none" points="304.67,100.63,297.6472,102.2672,296.4573,109.3794,303.4801,107.7423,304.67,100.63" style="stroke:#181818;stroke-width:1.0;"/><text fill="#000000" font-family="sans-serif" font-size="13" lengthAdjust="spacing" textLength="7.23" x="289.7144" y="104.8016">1</text><text fill="#000000" font-family="sans-serif" font-size="13" lengthAdjust="spacing" textLength="5.0591" x="215.112" y="186.1635">*</text></g><!--link Peilung to Peilungsgroessen--><g id="link_Peilung_Peilungsgroessen"><path codeLine="41" d="M347.5,101.1 C347.5,124.82 347.5,147.91 347.5,172.82 " fill="none" id="Peilung-to-Peilungsgroessen" style="stroke:#181818;stroke-width:1.0;"/><polygon fill="#181818" points="347.5,178.82,351.5,169.82,347.5,173.82,343.5,169.82,347.5,178.82" style="stroke:#181818;stroke-width:1.0;"/><text fill="#000000" font-family="sans-serif" font-size="13" lengthAdjust="spacing" textLength="7.23" x="340.0138" y="122.3738">1</text><text fill="#000000" font-family="sans-serif" font-size="13" lengthAdjust="spacing" textLength="21.6836" x="325.1795" y="168.1446">0..1</text></g><!--reverse link Peilung to Track--><g id="link_Peilung_Track"><path codeLine="42" d="M390.0725,110.6299 C412.8225,140.3599 434.74,168.99 456.02,196.78 " fill="none" id="Peilung-backto-Track" style="stroke:#181818;stroke-width:1.0;"/><polygon fill="#181818" points="382.78,101.1,383.2496,108.2958,390.0725,110.6299,389.6029,103.4341,382.78,101.1" style="stroke:#181818;stroke-width:1.0;"/><text fill="#000000" font-family="sans-serif" font-size="13" lengthAdjust="spacing" textLength="7.23" x="380.2551" y="122.3738">1</text><text fill="#000000" font-family="sans-serif" font-size="13" lengthAdjust="spacing" textLength="7.23" x="443.3711" y="186.0457">1</text></g><!--reverse link Track to Trackpunkt--><g id="link_Track_Trackpunkt"><path codeLine="43" d="M484.5,285.1 C484.5,308.09 484.5,326.03 484.5,351.77 " fill="none" id="Track-backto-Trackpunkt" style="stroke:#181818;stroke-width:1.0;"/><polygon fill="#181818" points="484.5,273.1,480.5,279.1,484.5,285.1,488.5,279.1,484.5,273.1" style="stroke:#181818;stroke-width:1.0;"/><text fill="#000000" font-family="sans-serif" font-size="13" lengthAdjust="spacing" textLength="7.23" x="476.9241" y="294.8102">1</text><text fill="#000000" font-family="sans-serif" font-size="13" lengthAdjust="spacing" textLength="5.0591" x="479.1676" y="341.0882">*</text></g><!--link Peilung to Export--><g id="link_Peilung_Export"><path codeLine="44" d="M390.37,77.95 C431.84,101.03 495.55,138.85 545.5,179 C552.28,184.45 554.8107,186.4845 561.2107,192.7445 " fill="none" id="Peilung-to-Export" style="stroke:#181818;stroke-width:1.0;stroke-dasharray:7.0,7.0;"/><polygon fill="#181818" points="565.5,196.94,561.863,187.7873,561.9256,193.4438,556.2691,193.5063,565.5,196.94" style="stroke:#181818;stroke-width:1.0;"/><text fill="#000000" font-family="sans-serif" font-size="13" lengthAdjust="spacing" textLength="98.2935" x="506.5" y="145.4951">erzeugt bei Ende</text></g><!--SRC=[TP1DJyCm38Rl_HLMZqETu3fDFV4X992Gu82ucSPDhUMZIbmeG_ntqa9RDk3aEFPZ-ttZZbsB0IrOxtpL16y997IKnRaI6rJ-bPs66asah655K76e36LPPJ16k2CsNMhORfMtoAuiuJq3E8aK8tjthSP4KBgOVKpG4vDfExUJXBsWwMYY3CeOl5kQxmMTya5gRpGbW9oml4r4pJr5sC0DHzbUjV6I-t9Xlw-BElXq3xdZVRXdsqbpJdh8L9g1hgBR8V51iKEpp7e8MEtI0DGwa4QXHQgswQXurFgdG65B_mczwDiaSzWGX6kiP89qsp_QyPB9xVmiXw8enpYRUL3rHG7vAZzqxpT_kbwdvx5D1tshOLAAewZiouNvVvN_43jZwtKvgTa0XJrrMk2P62wSeay0]--></g></svg>