<svg xmlns="http://www.w3.org/2000/svg" xmlns:xlink="http://www.w3.org/1999/xlink" contentStyleType="text/css" data-diagram-type="DESCRIPTION" height="593px" preserveAspectRatio="none" style="width:1125px;height:593px;background:#FFFFFF;" version="1.1" viewBox="0 0 1125 593" width="1125px" zoomAndPan="magnify"><?plantuml 1.2026.3beta6?><defs/><g><!--cluster SESSION--><g class="cluster" data-qualified-name="SESSION" data-source-line="12" id="ent0008"><rect fill="none" height="512.17" rx="2.5" ry="2.5" style="stroke:#181818;stroke-width:1;" width="443" x="7" y="67"/><text fill="#000000" font-family="sans-serif" font-size="14" font-weight="700" lengthAdjust="spacing" textLength="121.9326" x="167.5337" y="81.9951">BearingSession</text></g><!--entity SM--><g class="entity" data-qualified-name="SESSION.SM" data-source-line="13" id="ent0009"><rect fill="#F1F1F1" height="36.2969" rx="2.5" ry="2.5" style="stroke:#181818;stroke-width:0.5;" width="169.0781" x="116.46" y="110"/><text fill="#000000" font-family="sans-serif" font-size="14" lengthAdjust="spacing" textLength="149.0781" x="126.46" y="132.9951">SessionStateMachine</text></g><!--entity VAL--><g class="entity" data-qualified-name="SESSION.VAL" data-source-line="14" id="ent0010"><rect fill="#F1F1F1" height="36.2969" rx="2.5" ry="2.5" style="stroke:#181818;stroke-width:0.5;" width="119.4629" x="141.27" y="219.13"/><text fill="#000000" font-family="sans-serif" font-size="14" lengthAdjust="spacing" textLength="99.4629" x="151.27" y="242.1251">InputValidator</text></g><!--entity BC--><g class="entity" data-qualified-name="SESSION.BC" data-source-line="15" id="ent0011"><rect fill="#F1F1F1" height="36.2969" rx="2.5" ry="2.5" style="stroke:#181818;stroke-width:0.5;" width="145.2959" x="38.35" y="326.28"/><text fill="#000000" font-family="sans-serif" font-size="14" lengthAdjust="spacing" textLength="125.2959" x="48.35" y="349.2751">BearingCalculator</text></g><!--entity TA--><g class="entity" data-qualified-name="SESSION.TA" data-source-line="16" id="ent0012"><rect fill="#F1F1F1" height="36.2969" rx="2.5" ry="2.5" style="stroke:#181818;stroke-width:0.5;" width="137.6875" x="218.16" y="326.28"/><text fill="#000000" font-family="sans-serif" font-size="14" lengthAdjust="spacing" textLength="117.6875" x="228.16" y="349.2751">TrackAggregator</text></g><!--entity OC--><g class="entity" data-qualified-name="SESSION.OC" data-source-line="17" id="ent0013"><rect fill="#F1F1F1" height="36.2969" rx="2.5" ry="2.5" style="stroke:#181818;stroke-width:0.5;" width="192.2588" x="225.87" y="422.58"/><text fill="#000000" font-family="sans-serif" font-size="14" lengthAdjust="spacing" textLength="172.2588" x="235.87" y="445.5751">OptimizationCoordinator</text></g><!--entity SA--><g class="entity" data-qualified-name="SESSION.SA" data-source-line="18" id="ent0014"><rect fill="#F1F1F1" height="36.2969" rx="2.5" ry="2.5" style="stroke:#181818;stroke-width:0.5;" width="159.0088" x="31.5" y="422.58"/><text fill="#000000" font-family="sans-serif" font-size="14" lengthAdjust="spacing" textLength="139.0088" x="41.5" y="445.5751">SnapshotAssembler</text></g><!--entity EP--><g class="entity" data-qualified-name="SESSION.EP" data-source-line="19" id="ent0015"><rect fill="#F1F1F1" height="36.2969" rx="2.5" ry="2.5" style="stroke:#181818;stroke-width:0.5;" width="124.624" x="48.69" y="518.87"/><text fill="#000000" font-family="sans-serif" font-size="14" lengthAdjust="spacing" textLength="104.624" x="58.69" y="541.8651">EventPublisher</text></g><!--entity P_HOST--><g class="entity" data-qualified-name="P_HOST" data-source-line="5" id="ent0002"><ellipse cx="442" cy="14" fill="#F1F1F1" rx="8" ry="8" style="stroke:#181818;stroke-width:0.5;"/><text fill="#000000" font-family="sans-serif" font-size="14" lengthAdjust="spacing" textLength="82.4824" x="400.7588" y="43.9951">HostApiPort</text></g><!--entity P_GPX--><g class="entity" data-qualified-name="P_GPX" data-source-line="6" id="ent0003"><ellipse cx="531" cy="237.28" fill="#F1F1F1" rx="8" ry="8" style="stroke:#181818;stroke-width:0.5;"/><text fill="#000000" font-family="sans-serif" font-size="14" lengthAdjust="spacing" textLength="99.6201" x="481.1899" y="267.2751">GpxWriterPort</text></g><!--entity P_W3W--><g class="entity" data-qualified-name="P_W3W" data-source-line="7" id="ent0004"><ellipse cx="682" cy="237.28" fill="#F1F1F1" rx="8" ry="8" style="stroke:#181818;stroke-width:0.5;"/><text fill="#000000" font-family="sans-serif" font-size="14" lengthAdjust="spacing" textLength="102.9834" x="630.5083" y="267.2751">W3wClientPort</text></g><!--entity P_CLK--><g class="entity" data-qualified-name="P_CLK" data-source-line="8" id="ent0005"><ellipse cx="817" cy="237.28" fill="#F1F1F1" rx="8" ry="8" style="stroke:#181818;stroke-width:0.5;"/><text fill="#000000" font-family="sans-serif" font-size="14" lengthAdjust="spacing" textLength="66.2881" x="783.856" y="267.2751">ClockPort</text></g><!--entity P_FS--><g class="entity" data-qualified-name="P_FS" data-source-line="9" id="ent0006"><ellipse cx="942" cy="237.28" fill="#F1F1F1" rx="8" ry="8" style="stroke:#181818;stroke-width:0.5;"/><text fill="#000000" font-family="sans-serif" font-size="14" lengthAdjust="spacing" textLength="82.4551" x="900.7725" y="267.2751">FileSinkPort</text></g><!--entity P_LOG--><g class="entity" data-qualified-name="P_LOG" data-source-line="10" id="ent0007"><ellipse cx="1072" cy="237.28" fill="#F1F1F1" rx="8" ry="8" style="stroke:#181818;stroke-width:0.5;"/><text fill="#000000" font-family="sans-serif" font-size="14" lengthAdjust="spacing" textLength="76.7607" x="1033.6196" y="267.2751">LoggerPort</text></g><g class="entity" data-qualified-name="GMN29" data-source-line="38" id="ent0030"><path d="M477.78,108.01 L477.78,148.2756 L858.2287,148.2756 L858.2287,118.01 L848.2287,108.01 L477.78,108.01" fill="#FAFAFA" style="stroke:#181818;stroke-width:0.5;"/><path d="M848.2287,108.01 L848.2287,118.01 L858.2287,118.01 L848.2287,108.01" fill="#FAFAFA" style="stroke:#181818;stroke-width:1;"/><text fill="#000000" font-family="sans-serif" font-size="13" lengthAdjust="spacing" textLength="359.4487" x="483.78" y="125.0769">Internal composition of the central session component.</text><text fill="#000000" font-family="sans-serif" font-size="13" lengthAdjust="spacing" textLength="319.979" x="483.78" y="140.2097">Business logic stays encapsulated in the session.</text></g><!--link P_HOST to SESSION--><g class="link" data-entity-1="ent0002" data-entity-2="ent0008" data-link-type="dependency" data-source-line="22" id="lnk16"><path d="M442,22.71 C442,28.945 442,38.4362 442,49.2034 C442,54.587 442,60.2896 442,66.0636 C442,66.2441 442,60.4246 442,60.6051" fill="none" id="P_HOST-to-SESSION" style="stroke:#181818;stroke-width:1;"/><polygon fill="#181818" points="442,66.6051,446,57.6051,442,61.6051,438,57.6051,442,66.6051" style="stroke:#181818;stroke-width:1;"/></g><!--link SESSION to P_GPX--><g class="link" data-entity-1="ent0008" data-entity-2="ent0003" data-link-type="dependency" data-source-line="23" id="lnk17"><path d="M450.0258,138.8045 C450.1118,138.9079 450.1983,139.0121 450.2854,139.1169 C450.4596,139.3265 450.636,139.5389 450.8147,139.7539 C451.5294,140.6141 452.2797,141.5171 453.0627,142.4594 C459.3259,149.9975 467.6756,160.0475 476.5838,170.77 C494.4,192.215 510.616,211.7347 520.676,223.8447" fill="none" id="SESSION-to-P_GPX" style="stroke:#181818;stroke-width:1;"/><polygon fill="#181818" points="524.51,228.46,521.8359,218.9811,521.315,224.614,515.6822,224.0931,524.51,228.46" style="stroke:#181818;stroke-width:1;"/></g><!--link SESSION to P_W3W--><g class="link" data-entity-1="ent0008" data-entity-2="ent0004" data-link-type="dependency" data-source-line="24" id="lnk18"><path d="M450.0126,139.2862 C450.0407,139.3171 450.0688,139.3481 450.097,139.3791 C450.1533,139.4411 450.2099,139.5031 450.2667,139.5651 C450.3802,139.6893 450.4946,139.8135 450.6098,139.9379 C451.5313,140.9332 452.5047,141.9355 453.5188,142.9152 C455.5469,144.8744 457.7375,146.7425 460,148.28 C479.16,161.3 628.4487,216.589 667.4687,230.939" fill="none" id="SESSION-to-P_W3W" style="stroke:#181818;stroke-width:1;stroke-dasharray:7,7;"/><polygon fill="#181818" points="673.1,233.01,666.0337,226.1494,668.4073,231.2842,663.2725,233.6577,673.1,233.01" style="stroke:#181818;stroke-width:1;"/></g><!--link SESSION to P_CLK--><g class="link" data-entity-1="ent0008" data-entity-2="ent0005" data-link-type="dependency" data-source-line="25" id="lnk19"><path d="M450.0203,139.962 C450.1333,140.0869 450.2473,140.2118 450.3623,140.3366 C451.2817,141.3354 452.2603,142.3296 453.2894,143.2852 C455.3475,145.1962 457.6075,146.9525 460,148.28 C578.49,214.09 630.51,165.14 759,208.28 C777.23,214.4 791.9218,221.9962 803.0218,228.2462" fill="none" id="SESSION-to-P_CLK" style="stroke:#181818;stroke-width:1;stroke-dasharray:7,7;"/><polygon fill="#181818" points="808.25,231.19,802.3702,223.2888,803.8932,228.7368,798.4452,230.2598,808.25,231.19" style="stroke:#181818;stroke-width:1;"/></g><!--link SESSION to P_FS--><g class="link" data-entity-1="ent0008" data-entity-2="ent0006" data-link-type="dependency" data-source-line="26" id="lnk20"><path d="M450.0414,140.1773 C450.0697,140.2086 450.0981,140.2399 450.1266,140.2712 C450.1835,140.3338 450.2407,140.3963 450.2981,140.4588 C451.2166,141.4588 452.1962,142.4508 453.2289,143.3991 C455.2944,145.2956 457.5725,147.0175 460,148.28 C625.73,234.47 696.08,158.05 876,208.28 C897.34,214.24 915.5565,222.7408 927.9465,229.0108" fill="none" id="SESSION-to-P_FS" style="stroke:#181818;stroke-width:1;stroke-dasharray:7,7;"/><polygon fill="#181818" points="933.3,231.72,927.0758,224.0872,928.8387,229.4624,923.4636,231.2253,933.3,231.72" style="stroke:#181818;stroke-width:1;"/></g><!--link SESSION to P_LOG--><g class="link" data-entity-1="ent0008" data-entity-2="ent0007" data-link-type="dependency" data-source-line="27" id="lnk21"><path d="M450.0845,140.351 C450.1414,140.4136 450.1985,140.4762 450.2559,140.5388 C451.1739,141.5396 452.1543,142.5301 453.1895,143.4736 C455.26,145.3606 457.55,147.06 460,148.28 C679.68,257.77 772.02,144.34 1009,208.28 C1029.34,213.77 1046.2191,222.0734 1058.0791,228.5234" fill="none" id="SESSION-to-P_LOG" style="stroke:#181818;stroke-width:1;stroke-dasharray:7,7;"/><polygon fill="#181818" points="1063.35,231.39,1057.3546,223.5762,1058.9576,229.0012,1053.5325,230.6041,1063.35,231.39" style="stroke:#181818;stroke-width:1;"/></g><!--link SM to VAL--><g class="link" data-entity-1="ent0009" data-entity-2="ent0010" data-link-type="dependency" data-source-line="29" id="lnk22"><path d="M201,146.36 C201,166.23 201,192.75 201,212.75" fill="none" id="SM-to-VAL" style="stroke:#181818;stroke-width:1;"/><polygon fill="#181818" points="201,218.75,205,209.75,201,213.75,197,209.75,201,218.75" style="stroke:#181818;stroke-width:1;"/></g><!--link VAL to BC--><g class="link" data-entity-1="ent0010" data-entity-2="ent0011" data-link-type="dependency" data-source-line="30" id="lnk23"><path d="M186.14,255.64 C169.46,275.12 146.4726,301.9926 129.7826,321.4826" fill="none" id="VAL-to-BC" style="stroke:#181818;stroke-width:1;"/><polygon fill="#181818" points="125.88,326.04,134.7722,321.8057,129.1322,322.2422,128.6957,316.6022,125.88,326.04" style="stroke:#181818;stroke-width:1;"/></g><!--link VAL to TA--><g class="link" data-entity-1="ent0010" data-entity-2="ent0012" data-link-type="dependency" data-source-line="31" id="lnk24"><path d="M215.2,255.64 C231.14,275.12 253.0301,301.9067 268.9801,321.3967" fill="none" id="VAL-to-TA" style="stroke:#181818;stroke-width:1;"/><polygon fill="#181818" points="272.78,326.04,270.1756,316.5417,269.6134,322.1706,263.9845,321.6083,272.78,326.04" style="stroke:#181818;stroke-width:1;"/></g><!--link TA to OC--><g class="link" data-entity-1="ent0012" data-entity-2="ent0013" data-link-type="dependency" data-source-line="32" id="lnk25"><path d="M293.42,362.72 C299.7,379.63 307.1129,399.6147 313.4129,416.5947" fill="none" id="TA-to-OC" style="stroke:#181818;stroke-width:1;"/><polygon fill="#181818" points="315.5,422.22,316.1195,412.3906,313.7607,417.5323,308.6191,415.1735,315.5,422.22" style="stroke:#181818;stroke-width:1;"/></g><!--link BC to SA--><g class="link" data-entity-1="ent0011" data-entity-2="ent0014" data-link-type="dependency" data-source-line="33" id="lnk26"><path d="M111,362.72 C111,379.63 111,399.24 111,416.22" fill="none" id="BC-to-SA" style="stroke:#181818;stroke-width:1;"/><polygon fill="#181818" points="111,422.22,115,413.22,111,417.22,107,413.22,111,422.22" style="stroke:#181818;stroke-width:1;"/></g><!--link TA to SA--><g class="link" data-entity-1="ent0012" data-entity-2="ent0014" data-link-type="dependency" data-source-line="34" id="lnk27"><path d="M254.31,362.94 C222.8,379.83 180.6594,402.4076 149.0994,419.3076" fill="none" id="TA-to-SA" style="stroke:#181818;stroke-width:1;"/><polygon fill="#181818" points="143.81,422.14,153.6323,421.4177,148.2178,419.7797,149.8558,414.3652,143.81,422.14" style="stroke:#181818;stroke-width:1;"/></g><!--link SA to EP--><g class="link" data-entity-1="ent0014" data-entity-2="ent0015" data-link-type="dependency" data-source-line="35" id="lnk28"><path d="M111,459.02 C111,475.93 111,495.54 111,512.52" fill="none" id="SA-to-EP" style="stroke:#181818;stroke-width:1;"/><polygon fill="#181818" points="111,518.52,115,509.52,111,513.52,107,509.52,111,518.52" style="stroke:#181818;stroke-width:1;"/></g><!--link SESSION to GMN29--><g class="link" data-entity-1="ent0008" data-entity-2="ent0030" data-link-type="association" data-source-line="38" id="lnk31"><path d="M450.0131,128.15 C450.059,128.15 450.1049,128.15 450.1508,128.15 C450.518,128.15 450.8852,128.15 451.2523,128.15 C454.1897,128.15 457.1269,128.15 460.0638,128.15 C465.9375,128.15 471.81,128.15 477.68,128.15" fill="none" id="SESSION-GMN29" style="stroke:#181818;stroke-width:1;stroke-dasharray:7,7;"/></g><?plantuml-src LPB1QkCm48RlUWgHUtFflU2OD0sRh0CApK9P5bMUs4DaoMZaxNPBtxsIxBZAmJ2UxzTevX_H1KqldUnuPurLhRCTSEy6O3GJQcLjtz0q_2mrvKJPhhS6Z1V-NGDteBmqZGR6q7XmPwc0Bvui-QB7WtL-mINnmv-dIXnpnQR_Tt8OVZFDvl0hbvpktqgDuQPCShe_vP9IMtN9SBdxaUD7r23Gv8f7aGjsjcbkMjXL6yRc4VbY1T855mGGeJL99DP2RAkV_8Dn_Z81uQM7lLGj6lYTHFj8jwOV_BFKM4jlNGBFnIwIgMufjHhq35TbP4SdrQLe6WVDJ8v595NliSF_qeShIsjTZMPMLEciCBAdrlg22BfN3ICJwVJwR_HoUDL8xGJM1_R9sBWTVdVtS1sENOUCkN4nryno-J3juJOJhR_D1Ajl4ybSiKz5em_XIt4O-ng6EOz5Yi8ygtBiQSw5I8nHQ9mPwyFxmwRrt9xdphTnkqRgyQ4IHgyYzorm5Gnm0T6ujU-tl6IhWSBkYBYs3IfENhuJ1wE2dN51K7CqgSPqTid0r3osy0K0?></g></svg>