<svg xmlns="http://www.w3.org/2000/svg" xmlns:xlink="http://www.w3.org/1999/xlink" contentStyleType="text/css" height="345px" preserveAspectRatio="none" style="width:1039px;height:345px;background:#FFFFFF;" version="1.1" viewBox="0 0 1039 345" width="1039px" zoomAndPan="magnify"><defs/><g><!--cluster API-Schicht--><g id="cluster_API-Schicht"><path d="M461.5,6 L541.0654,6 A3.75,3.75 0 0 1 543.5654,8.5 L550.5654,29.6094 L674.5,29.6094 A2.5,2.5 0 0 1 677,32.1094 L677,211.5 A2.5,2.5 0 0 1 674.5,214 L461.5,214 A2.5,2.5 0 0 1 459,211.5 L459,8.5 A2.5,2.5 0 0 1 461.5,6 " fill="none" style="stroke:#000000;stroke-width:1.5;"/><line style="stroke:#000000;stroke-width:1.5;" x1="459" x2="550.5654" y1="29.6094" y2="29.6094"/><text fill="#000000" font-family="sans-serif" font-size="14" font-weight="bold" lengthAdjust="spacing" textLength="78.5654" x="463" y="22.5332">API-Schicht</text></g><!--cluster Domain-Schicht--><g id="cluster_Domain-Schicht"><path d="M8.5,238 L116.0654,238 A3.75,3.75 0 0 1 118.5654,240.5 L125.5654,261.6094 L569.5,261.6094 A2.5,2.5 0 0 1 572,264.1094 L572,335.5 A2.5,2.5 0 0 1 569.5,338 L8.5,338 A2.5,2.5 0 0 1 6,335.5 L6,240.5 A2.5,2.5 0 0 1 8.5,238 " fill="none" style="stroke:#000000;stroke-width:1.5;"/><line style="stroke:#000000;stroke-width:1.5;" x1="6" x2="125.5654" y1="261.6094" y2="261.6094"/><text fill="#000000" font-family="sans-serif" font-size="14" font-weight="bold" lengthAdjust="spacing" textLength="106.5654" x="10" y="254.5332">Domain-Schicht</text></g><!--cluster Infrastruktur--><g id="cluster_Infrastruktur"><path d="M598.5,238 L682.7344,238 A3.75,3.75 0 0 1 685.2344,240.5 L692.2344,261.6094 L1029.5,261.6094 A2.5,2.5 0 0 1 1032,264.1094 L1032,335.5 A2.5,2.5 0 0 1 1029.5,338 L598.5,338 A2.5,2.5 0 0 1 596,335.5 L596,240.5 A2.5,2.5 0 0 1 598.5,238 " fill="none" style="stroke:#000000;stroke-width:1.5;"/><line style="stroke:#000000;stroke-width:1.5;" x1="596" x2="692.2344" y1="261.6094" y2="261.6094"/><text fill="#000000" font-family="sans-serif" font-size="14" font-weight="bold" lengthAdjust="spacing" textLength="83.2344" x="600" y="254.5332">Infrastruktur</text></g><!--entity F--><g id="elem_F"><rect fill="#F1F1F1" height="47.6094" rx="2.5" ry="2.5" style="stroke:#181818;stroke-width:0.5;" width="184.7373" x="475.5" y="42"/><rect fill="#F1F1F1" height="10" style="stroke:#181818;stroke-width:0.5;" width="15" x="640.2373" y="47"/><rect fill="#F1F1F1" height="2" style="stroke:#181818;stroke-width:0.5;" width="4" x="638.2373" y="49"/><rect fill="#F1F1F1" height="2" style="stroke:#181818;stroke-width:0.5;" width="4" x="638.2373" y="53"/><text fill="#000000" font-family="sans-serif" font-size="14" lengthAdjust="spacing" textLength="144.7373" x="490.5" y="76.5332">BearingSessionFactory</text></g><!--entity S--><g id="elem_S"><rect fill="#F1F1F1" height="47.6094" rx="2.5" ry="2.5" style="stroke:#181818;stroke-width:0.5;" width="138.0615" x="499" y="150"/><rect fill="#F1F1F1" height="10" style="stroke:#181818;stroke-width:0.5;" width="15" x="617.0615" y="155"/><rect fill="#F1F1F1" height="2" style="stroke:#181818;stroke-width:0.5;" width="4" x="615.0615" y="157"/><rect fill="#F1F1F1" height="2" style="stroke:#181818;stroke-width:0.5;" width="4" x="615.0615" y="161"/><text fill="#000000" font-family="sans-serif" font-size="14" lengthAdjust="spacing" textLength="98.0615" x="514" y="184.5332">BearingSession</text></g><!--entity BC--><g id="elem_BC"><rect fill="#F1F1F1" height="47.6094" rx="2.5" ry="2.5" style="stroke:#181818;stroke-width:0.5;" width="151.2822" x="404.5" y="274"/><rect fill="#F1F1F1" height="10" style="stroke:#181818;stroke-width:0.5;" width="15" x="535.7822" y="279"/><rect fill="#F1F1F1" height="2" style="stroke:#181818;stroke-width:0.5;" width="4" x="533.7822" y="281"/><rect fill="#F1F1F1" height="2" style="stroke:#181818;stroke-width:0.5;" width="4" x="533.7822" y="285"/><text fill="#000000" font-family="sans-serif" font-size="14" lengthAdjust="spacing" textLength="111.2822" x="419.5" y="308.5332">BearingCalculator</text></g><!--entity TA--><g id="elem_TA"><rect fill="#F1F1F1" height="47.6094" rx="2.5" ry="2.5" style="stroke:#181818;stroke-width:0.5;" width="144.2686" x="225" y="274"/><rect fill="#F1F1F1" height="10" style="stroke:#181818;stroke-width:0.5;" width="15" x="349.2686" y="279"/><rect fill="#F1F1F1" height="2" style="stroke:#181818;stroke-width:0.5;" width="4" x="347.2686" y="281"/><rect fill="#F1F1F1" height="2" style="stroke:#181818;stroke-width:0.5;" width="4" x="347.2686" y="285"/><text fill="#000000" font-family="sans-serif" font-size="14" lengthAdjust="spacing" textLength="104.2686" x="240" y="308.5332">TrackAggregator</text></g><!--entity OP--><g id="elem_OP"><rect fill="#F1F1F1" height="47.6094" rx="2.5" ry="2.5" style="stroke:#181818;stroke-width:0.5;" width="167.6201" x="22" y="274"/><rect fill="#F1F1F1" height="10" style="stroke:#181818;stroke-width:0.5;" width="15" x="169.6201" y="279"/><rect fill="#F1F1F1" height="2" style="stroke:#181818;stroke-width:0.5;" width="4" x="167.6201" y="281"/><rect fill="#F1F1F1" height="2" style="stroke:#181818;stroke-width:0.5;" width="4" x="167.6201" y="285"/><text fill="#000000" font-family="sans-serif" font-size="14" lengthAdjust="spacing" textLength="127.6201" x="37" y="308.5332">OptimizationPipeline</text></g><!--entity GX--><g id="elem_GX"><rect fill="#F1F1F1" height="47.6094" rx="2.5" ry="2.5" style="stroke:#181818;stroke-width:0.5;" width="124.0273" x="892" y="274"/><rect fill="#F1F1F1" height="10" style="stroke:#181818;stroke-width:0.5;" width="15" x="996.0273" y="279"/><rect fill="#F1F1F1" height="2" style="stroke:#181818;stroke-width:0.5;" width="4" x="994.0273" y="281"/><rect fill="#F1F1F1" height="2" style="stroke:#181818;stroke-width:0.5;" width="4" x="994.0273" y="285"/><text fill="#000000" font-family="sans-serif" font-size="14" lengthAdjust="spacing" textLength="84.0273" x="907" y="308.5332">GpxSerializer</text></g><!--entity W3W--><g id="elem_W3W"><rect fill="#F1F1F1" height="47.6094" rx="2.5" ry="2.5" style="stroke:#181818;stroke-width:0.5;" width="120.1445" x="737" y="274"/><rect fill="#F1F1F1" height="10" style="stroke:#181818;stroke-width:0.5;" width="15" x="837.1445" y="279"/><rect fill="#F1F1F1" height="2" style="stroke:#181818;stroke-width:0.5;" width="4" x="835.1445" y="281"/><rect fill="#F1F1F1" height="2" style="stroke:#181818;stroke-width:0.5;" width="4" x="835.1445" y="285"/><text fill="#000000" font-family="sans-serif" font-size="14" lengthAdjust="spacing" textLength="80.1445" x="752" y="308.5332">W3wAdapter</text></g><!--entity FS--><g id="elem_FS"><rect fill="#F1F1F1" height="47.6094" rx="2.5" ry="2.5" style="stroke:#181818;stroke-width:0.5;" width="89.793" x="612" y="274"/><rect fill="#F1F1F1" height="10" style="stroke:#181818;stroke-width:0.5;" width="15" x="681.793" y="279"/><rect fill="#F1F1F1" height="2" style="stroke:#181818;stroke-width:0.5;" width="4" x="679.793" y="281"/><rect fill="#F1F1F1" height="2" style="stroke:#181818;stroke-width:0.5;" width="4" x="679.793" y="285"/><text fill="#000000" font-family="sans-serif" font-size="14" lengthAdjust="spacing" textLength="49.793" x="627" y="308.5332">FileSink</text></g><!--link F to S--><g id="link_F_S"><path d="M568,90 C568,107.66 568,125.94 568,143.68 " fill="none" id="F-to-S" style="stroke:#181818;stroke-width:1;"/><polygon fill="#181818" points="568,149.68,572,140.68,568,144.68,564,140.68,568,149.68" style="stroke:#181818;stroke-width:1;"/></g><!--link S to BC--><g id="link_S_BC"><path d="M551.24,198.23 C535.58,219.94 515.8503,247.304 500.2103,268.984 " fill="none" id="S-to-BC" style="stroke:#181818;stroke-width:1;"/><polygon fill="#181818" points="496.7,273.85,505.2095,268.8913,499.6253,269.795,498.7215,264.2108,496.7,273.85" style="stroke:#181818;stroke-width:1;"/></g><!--link S to TA--><g id="link_S_TA"><path d="M498.81,190.04 C464.15,199.05 422.18,212.24 387,230 C363.7,241.76 344.7404,255.7302 327.5704,270.0302 " fill="none" id="S-to-TA" style="stroke:#181818;stroke-width:1;"/><polygon fill="#181818" points="322.96,273.87,332.4355,271.1839,326.802,270.6702,327.3158,265.0367,322.96,273.87" style="stroke:#181818;stroke-width:1;"/></g><!--link S to OP--><g id="link_S_OP"><path d="M498.76,176.85 C424.59,180.8 304.51,192.97 208,230 C180.9,240.4 158.3591,255.2191 138.8291,270.1291 " fill="none" id="S-to-OP" style="stroke:#181818;stroke-width:1;"/><polygon fill="#181818" points="134.06,273.77,143.6408,271.488,138.0342,270.7359,138.7863,265.1293,134.06,273.77" style="stroke:#181818;stroke-width:1;"/></g><!--link S to GX--><g id="link_S_GX"><path d="M637.27,177.16 C701.61,181.49 798.71,194.05 875,230 C897.29,240.5 914.1246,254.6902 928.8846,269.5702 " fill="none" id="S-to-GX" style="stroke:#181818;stroke-width:1;"/><polygon fill="#181818" points="933.11,273.83,929.6117,264.6234,929.5888,270.2802,923.932,270.2573,933.11,273.83" style="stroke:#181818;stroke-width:1;"/></g><!--link S to W3W--><g id="link_S_W3W"><path d="M637.37,194.11 C664.18,203.01 694.48,214.99 720,230 C740.32,241.95 756.0074,255.3679 770.5274,269.5479 " fill="none" id="S-to-W3W" style="stroke:#181818;stroke-width:1;stroke-dasharray:7.0,7.0;"/><polygon fill="#181818" points="774.82,273.74,771.1758,264.5901,771.2428,270.2466,765.5864,270.3136,774.82,273.74" style="stroke:#181818;stroke-width:1;"/></g><!--link S to FS--><g id="link_S_FS"><path d="M584.95,198.23 C600.79,219.94 620.7647,247.3221 636.5747,269.0021 " fill="none" id="S-to-FS" style="stroke:#181818;stroke-width:1;stroke-dasharray:7.0,7.0;"/><polygon fill="#181818" points="640.11,273.85,638.039,264.2213,637.1639,269.8101,631.5752,268.935,640.11,273.85" style="stroke:#181818;stroke-width:1;"/></g><!--SRC=[RKzDYy8m4BttLmpUwyMxK5qgdYn4gB3iOOXZEpHDGfBYhil-zqqJaLtqbCTxcVVX1zOM7Oum6craxyn84Dn4XNyeliUpkRBku8BAKr5Ob0Ds18kgsPT2zYpxi83l0k1zG-ZYJq7Uiz4roc3SrmUWX_fPJhmeVluulfaHMRystQAIayBec0utsraxkdXQTPsZxg4SgravsC0Ztp34f8OjATQKv4FpBtAlBmvzt3o4oTqJT_PJa6DKVAFikJlDVBkwLcUquKwsgtPcQrOaM0zvPnfKGrckupQHtbWrWzWiWzWXW-WhOBbS9w-CQl4B]--></g></svg>