<svg xmlns="http://www.w3.org/2000/svg" xmlns:xlink="http://www.w3.org/1999/xlink" contentStyleType="text/css" data-diagram-type="DESCRIPTION" height="474px" preserveAspectRatio="none" style="width:1356px;height:474px;background:#FFFFFF;" version="1.1" viewBox="0 0 1356 474" width="1356px" zoomAndPan="magnify"><?plantuml 1.2026.3beta6?><defs/><g><!--entity API--><g class="entity" data-qualified-name="API" data-source-line="5" id="ent0002"><path d="M119.04,6 L158.3447,6 A3.75,3.75 0 0 1 160.8447,8.5 L167.8447,28.2969 L322.6357,28.2969 A2.5,2.5 0 0 1 325.1357,30.7969 L325.1357,59.0938 A2.5,2.5 0 0 1 322.6357,61.5938 L119.04,61.5938 A2.5,2.5 0 0 1 116.54,59.0938 L116.54,8.5 A2.5,2.5 0 0 1 119.04,6" fill="#F1F1F1" style="stroke:#181818;stroke-width:0.5;"/><line style="stroke:#181818;stroke-width:0.5;" x1="116.54" x2="167.8447" y1="28.2969" y2="28.2969"/><text fill="#000000" font-family="sans-serif" font-size="14" font-weight="700" lengthAdjust="spacing" textLength="26.3047" x="126.54" y="21.9951">API</text><text fill="#000000" font-family="sans-serif" font-size="14" lengthAdjust="spacing" textLength="178.5957" x="126.54" y="48.292">com.example.bearing.api</text></g><!--entity APP--><g class="entity" data-qualified-name="APP" data-source-line="6" id="ent0003"><path d="M116.54,138.59 L160.8964,138.59 A3.75,3.75 0 0 1 163.3964,141.09 L170.3964,160.8869 L325.1328,160.8869 A2.5,2.5 0 0 1 327.6328,163.3869 L327.6328,191.6838 A2.5,2.5 0 0 1 325.1328,194.1838 L116.54,194.1838 A2.5,2.5 0 0 1 114.04,191.6838 L114.04,141.09 A2.5,2.5 0 0 1 116.54,138.59" fill="#F1F1F1" style="stroke:#181818;stroke-width:0.5;"/><line style="stroke:#181818;stroke-width:0.5;" x1="114.04" x2="170.3964" y1="160.8869" y2="160.8869"/><text fill="#000000" font-family="sans-serif" font-size="14" font-weight="700" lengthAdjust="spacing" textLength="31.3564" x="124.04" y="154.5851">APP</text><text fill="#000000" font-family="sans-serif" font-size="14" lengthAdjust="spacing" textLength="183.5928" x="124.04" y="180.882">com.example.bearing.app</text></g><!--entity DOMAIN--><g class="entity" data-qualified-name="DOMAIN" data-source-line="7" id="ent0004"><path d="M8.5,271.18 L86.7148,271.18 A3.75,3.75 0 0 1 89.2148,273.68 L96.2148,293.4769 L243.1719,293.4769 A2.5,2.5 0 0 1 245.6719,295.9769 L245.6719,324.2738 A2.5,2.5 0 0 1 243.1719,326.7738 L8.5,326.7738 A2.5,2.5 0 0 1 6,324.2738 L6,273.68 A2.5,2.5 0 0 1 8.5,271.18" fill="#F1F1F1" style="stroke:#181818;stroke-width:0.5;"/><line style="stroke:#181818;stroke-width:0.5;" x1="6" x2="96.2148" y1="293.4769" y2="293.4769"/><text fill="#000000" font-family="sans-serif" font-size="14" font-weight="700" lengthAdjust="spacing" textLength="65.2148" x="16" y="287.1751">DOMAIN</text><text fill="#000000" font-family="sans-serif" font-size="14" lengthAdjust="spacing" textLength="209.6719" x="16" y="313.472">com.example.bearing.domain</text></g><!--entity SPI--><g class="entity" data-qualified-name="SPI" data-source-line="8" id="ent0005"><path d="M454.68,403.78 L493.2327,403.78 A3.75,3.75 0 0 1 495.7327,406.28 L502.7327,426.0769 L656.9905,426.0769 A2.5,2.5 0 0 1 659.4905,428.5769 L659.4905,456.8738 A2.5,2.5 0 0 1 656.9905,459.3738 L454.68,459.3738 A2.5,2.5 0 0 1 452.18,456.8738 L452.18,406.28 A2.5,2.5 0 0 1 454.68,403.78" fill="#F1F1F1" style="stroke:#181818;stroke-width:0.5;"/><line style="stroke:#181818;stroke-width:0.5;" x1="452.18" x2="502.7327" y1="426.0769" y2="426.0769"/><text fill="#000000" font-family="sans-serif" font-size="14" font-weight="700" lengthAdjust="spacing" textLength="25.5527" x="462.18" y="419.7751">SPI</text><text fill="#000000" font-family="sans-serif" font-size="14" lengthAdjust="spacing" textLength="177.3105" x="462.18" y="446.072">com.example.bearing.spi</text></g><!--entity AD_GPX--><g class="entity" data-qualified-name="AD_GPX" data-source-line="9" id="ent0006"><path d="M422.07,271.18 L497.072,271.18 A3.75,3.75 0 0 1 499.572,273.68 L506.572,293.4769 L689.6091,293.4769 A2.5,2.5 0 0 1 692.1091,295.9769 L692.1091,324.2738 A2.5,2.5 0 0 1 689.6091,326.7738 L422.07,326.7738 A2.5,2.5 0 0 1 419.57,324.2738 L419.57,273.68 A2.5,2.5 0 0 1 422.07,271.18" fill="#F1F1F1" style="stroke:#181818;stroke-width:0.5;"/><line style="stroke:#181818;stroke-width:0.5;" x1="419.57" x2="506.572" y1="293.4769" y2="293.4769"/><text fill="#000000" font-family="sans-serif" font-size="14" font-weight="700" lengthAdjust="spacing" textLength="62.002" x="429.57" y="287.1751">AD_GPX</text><text fill="#000000" font-family="sans-serif" font-size="14" lengthAdjust="spacing" textLength="242.5391" x="429.57" y="313.472">com.example.bearing.adapter.gpx</text></g><!--entity AD_W3W--><g class="entity" data-qualified-name="AD_W3W" data-source-line="10" id="ent0007"><path d="M729.19,271.18 L812.272,271.18 A3.75,3.75 0 0 1 814.772,273.68 L821.772,293.4769 L1002.4781,293.4769 A2.5,2.5 0 0 1 1004.9781,295.9769 L1004.9781,324.2738 A2.5,2.5 0 0 1 1002.4781,326.7738 L729.19,326.7738 A2.5,2.5 0 0 1 726.69,324.2738 L726.69,273.68 A2.5,2.5 0 0 1 729.19,271.18" fill="#F1F1F1" style="stroke:#181818;stroke-width:0.5;"/><line style="stroke:#181818;stroke-width:0.5;" x1="726.69" x2="821.772" y1="293.4769" y2="293.4769"/><text fill="#000000" font-family="sans-serif" font-size="14" font-weight="700" lengthAdjust="spacing" textLength="70.082" x="736.69" y="287.1751">AD_W3W</text><text fill="#000000" font-family="sans-serif" font-size="14" lengthAdjust="spacing" textLength="248.2881" x="736.69" y="313.472">com.example.bearing.adapter.w3w</text></g><!--entity AD_SYS--><g class="entity" data-qualified-name="AD_SYS" data-source-line="11" id="ent0008"><path d="M1042.79,271.18 L1115.5498,271.18 A3.75,3.75 0 0 1 1118.0498,273.68 L1125.0498,293.4769 L1334.8838,293.4769 A2.5,2.5 0 0 1 1337.3838,295.9769 L1337.3838,324.2738 A2.5,2.5 0 0 1 1334.8838,326.7738 L1042.79,326.7738 A2.5,2.5 0 0 1 1040.29,324.2738 L1040.29,273.68 A2.5,2.5 0 0 1 1042.79,271.18" fill="#F1F1F1" style="stroke:#181818;stroke-width:0.5;"/><line style="stroke:#181818;stroke-width:0.5;" x1="1040.29" x2="1125.0498" y1="293.4769" y2="293.4769"/><text fill="#000000" font-family="sans-serif" font-size="14" font-weight="700" lengthAdjust="spacing" textLength="59.7598" x="1050.29" y="287.1751">AD_SYS</text><text fill="#000000" font-family="sans-serif" font-size="14" lengthAdjust="spacing" textLength="267.0938" x="1050.29" y="313.472">com.example.bearing.adapter.system</text></g><g class="entity" data-qualified-name="GMN16" data-source-line="23" id="ent0017"><path d="M1036.61,411.44 L1036.61,451.7056 A0,0 0 0 0 1036.61,451.7056 L1341.0519,451.7056 A0,0 0 0 0 1341.0519,451.7056 L1341.0519,421.44 L1331.0519,411.44 L1192.84,411.44 L1188.84,327.04 L1184.84,411.44 L1036.61,411.44 A0,0 0 0 0 1036.61,411.44" fill="#FAFAFA" style="stroke:#181818;stroke-width:0.5;"/><path d="M1331.0519,411.44 L1331.0519,421.44 L1341.0519,421.44 L1331.0519,411.44" fill="#FAFAFA" style="stroke:#181818;stroke-width:0.5;"/><text fill="#000000" font-family="sans-serif" font-size="13" lengthAdjust="spacing" textLength="115.5337" x="1042.61" y="428.5069">Dependency rule:</text><text fill="#000000" font-family="sans-serif" font-size="13" lengthAdjust="spacing" textLength="283.4419" x="1042.61" y="443.6397">API -&gt; APP -&gt; DOMAIN -&gt; SPI &lt;- ADAPTERS</text></g><!--link API to APP--><g class="link" data-entity-1="ent0002" data-entity-2="ent0003" data-link-type="dependency" data-source-line="13" id="lnk9"><path d="M220.84,61.85 C220.84,84.26 220.84,132.2569 220.84,154.6569" fill="none" id="API-to-APP" style="stroke:#181818;stroke-width:1;"/><polygon fill="#181818" points="220.84,160.6569,224.84,151.6569,220.84,155.6569,216.84,151.6569,220.84,160.6569" style="stroke:#181818;stroke-width:1;"/><text fill="#000000" font-family="sans-serif" font-size="13" lengthAdjust="spacing" textLength="29.7832" x="221.84" y="104.6569">uses</text></g><!--link APP to DOMAIN--><g class="link" data-entity-1="ent0003" data-entity-2="ent0004" data-link-type="dependency" data-source-line="14" id="lnk10"><path d="M201.15,194.44 C184.85,216.86 165.3203,265.9954 149.0203,288.3954" fill="none" id="APP-to-DOMAIN" style="stroke:#181818;stroke-width:1;"/><polygon fill="#181818" points="145.49,293.2469,154.0198,288.3232,148.4319,289.204,147.5512,283.6161,145.49,293.2469" style="stroke:#181818;stroke-width:1;"/><text fill="#000000" font-family="sans-serif" font-size="13" lengthAdjust="spacing" textLength="81.7324" x="180.84" y="237.2469">orchestrates</text></g><!--link APP to SPI--><g class="link" data-entity-1="ent0003" data-entity-2="ent0005" data-link-type="dependency" data-source-line="15" id="lnk11"><path d="M246.53,194.58 C254.67,203.7 263.46,214.12 270.84,224.18 C302.34,267.15 293.19,291.19 332.84,326.78 C371.37,361.36 417.8249,384.3293 461.9449,401.1793" fill="none" id="APP-to-SPI" style="stroke:#181818;stroke-width:1;"/><polygon fill="#181818" points="467.55,403.32,460.5694,396.3722,462.8791,401.5361,457.7152,403.8457,467.55,403.32" style="stroke:#181818;stroke-width:1;"/><text fill="#000000" font-family="sans-serif" font-size="13" lengthAdjust="spacing" textLength="67.3359" x="333.84" y="303.5469">uses ports</text></g><!--link DOMAIN to SPI--><g class="link" data-entity-1="ent0004" data-entity-2="ent0005" data-link-type="dependency" data-source-line="16" id="lnk12"><path d="M135.49,327.09 C142.7,343.27 154.19,362.76 170.84,373.78 C215.76,403.52 348.1747,417.8296 446.1247,424.7096" fill="none" id="DOMAIN-to-SPI" style="stroke:#181818;stroke-width:1;"/><polygon fill="#181818" points="452.11,425.13,443.4124,420.5092,447.1223,424.7797,442.8519,428.4896,452.11,425.13" style="stroke:#181818;stroke-width:1;"/><text fill="#000000" font-family="sans-serif" font-size="13" lengthAdjust="spacing" textLength="117.584" x="171.84" y="369.8469">optional contracts</text></g><!--link AD_GPX to SPI--><g class="link" data-entity-1="ent0006" data-entity-2="ent0005" data-link-type="dependency" data-source-line="18" id="lnk13"><path d="M555.84,327.04 C555.84,349.45 555.84,397.4469 555.84,419.8469" fill="none" id="AD_GPX-to-SPI" style="stroke:#181818;stroke-width:1;stroke-dasharray:7,7;"/><polygon fill="#181818" points="555.84,425.8469,559.84,416.8469,555.84,420.8469,551.84,416.8469,555.84,425.8469" style="stroke:#181818;stroke-width:1;"/><text fill="#000000" font-family="sans-serif" font-size="13" lengthAdjust="spacing" textLength="76.9082" x="556.84" y="369.8469">implements</text></g><!--link AD_W3W to SPI--><g class="link" data-entity-1="ent0007" data-entity-2="ent0005" data-link-type="dependency" data-source-line="19" id="lnk14"><path d="M801.23,327.2 C748.26,349.51 679.1792,400.9071 626.1592,423.2471" fill="none" id="AD_W3W-to-SPI" style="stroke:#181818;stroke-width:1;stroke-dasharray:7,7;"/><polygon fill="#181818" points="620.63,425.5769,630.477,425.7684,625.2377,423.6354,627.3707,418.3961,620.63,425.5769" style="stroke:#181818;stroke-width:1;"/><text fill="#000000" font-family="sans-serif" font-size="13" lengthAdjust="spacing" textLength="76.9082" x="730.84" y="369.8469">implements</text></g><!--link AD_SYS to SPI--><g class="link" data-entity-1="ent0008" data-entity-2="ent0005" data-link-type="dependency" data-source-line="20" id="lnk15"><path d="M1056.91,327.2 C938.97,351.53 774.3462,407.7844 665.7862,430.1844" fill="none" id="AD_SYS-to-SPI" style="stroke:#181818;stroke-width:1;stroke-dasharray:7,7;"/><polygon fill="#181818" points="659.91,431.3969,669.5326,433.4956,664.8068,430.3865,667.916,425.6607,659.91,431.3969" style="stroke:#181818;stroke-width:1;"/><text fill="#000000" font-family="sans-serif" font-size="13" lengthAdjust="spacing" textLength="76.9082" x="911.84" y="369.8469">implements</text></g><?plantuml-src ZP0nJyCm48Lt_ufJzsJfLY6aI46e0n0HfCA4hiwHM8rzbkqepR_78Gdj06stqxtldTuxVr36eaCDcWtBnh4c2AuZuNyLts35lJ8rV67hpnMBye0rbM5e2Hp9WAPkIOXv3ol9EgKZQjjIkYTqyKYALgq0FMJ5zXfePx2u35QiKPaVDdzvohRFbt4_1oYl1gZG1d9fROzJaFppiNY_pTEl-yMpM-zky_Z11zABhVmeXOXFWYIv7ty06-WyUJ6Eusgg6hViP4C-E0ndQYmt6y2o2rxC-4bZ6nGRR46oYMOP6J4rX3HT83K6rMIYE3NvLujn_zQ4uK2mvn1OYvmicOgC7C1rBMscWbE_KwSvurqI_v0LRm-lfOWk60zz0m00?></g></svg>