<svg xmlns="http://www.w3.org/2000/svg" xmlns:xlink="http://www.w3.org/1999/xlink" contentStyleType="text/css" height="430px" preserveAspectRatio="none" style="width:1411px;height:430px;background:#FFFFFF;" version="1.1" viewBox="0 0 1411 430" width="1411px" zoomAndPan="magnify"><defs/><g><!--class TrackOptimizer--><g id="elem_TrackOptimizer"><rect codeLine="4" fill="#F1F1F1" height="65.6094" id="TrackOptimizer" rx="2.5" ry="2.5" style="stroke:#181818;stroke-width:0.5;" width="228.3164" x="1176" y="358"/><ellipse cx="1238.46" cy="374" fill="#B1B1B1" rx="11" ry="11" style="stroke:#181818;stroke-width:1.0;"/><path d="M1239.4131,370.6406 L1239.4131,377.2969 L1241.1318,377.2969 Q1241.7412,377.2969 1242.0068,377.5313 Q1242.2725,377.7656 1242.2725,378.1563 Q1242.2725,378.5313 1242.0068,378.7656 Q1241.7412,379 1241.1318,379 L1235.9912,379 Q1235.3818,379 1235.1162,378.7656 Q1234.8506,378.5313 1234.8506,378.1406 Q1234.8506,377.7656 1235.1162,377.5313 Q1235.3818,377.2969 1235.9912,377.2969 L1237.71,377.2969 L1237.71,370.6406 L1235.9912,370.6406 Q1235.3818,370.6406 1235.1162,370.4063 Q1234.8506,370.1719 1234.8506,369.7813 Q1234.8506,369.4063 1235.1162,369.1719 Q1235.3818,368.9375 1235.9912,368.9375 L1241.1318,368.9375 Q1241.7412,368.9375 1242.0068,369.1719 Q1242.2725,369.4063 1242.2725,369.7813 Q1242.2725,370.1719 1242.0068,370.4063 Q1241.7412,370.6406 1241.1318,370.6406 L1239.4131,370.6406 Z " fill="#000000"/><text fill="#000000" font-family="sans-serif" font-size="14" font-style="italic" lengthAdjust="spacing" textLength="94.8965" x="1258.96" y="379.7285">TrackOptimizer</text><line style="stroke:#181818;stroke-width:0.5;" x1="1177" x2="1403.3164" y1="390" y2="390"/><line style="stroke:#181818;stroke-width:0.5;" x1="1177" x2="1403.3164" y1="398" y2="398"/><ellipse cx="1187" cy="412.3047" fill="#A6A6A6" rx="3" ry="3" style="stroke:#545454;stroke-width:1.0;"/><text fill="#000000" font-family="sans-serif" font-size="14" lengthAdjust="spacing" textLength="202.3164" x="1196" y="416.5332">optimize(points): List&lt;GpsPoint&gt;</text></g><!--class W3wClient--><g id="elem_W3wClient"><rect codeLine="8" fill="#F1F1F1" height="65.6094" id="W3wClient" rx="2.5" ry="2.5" style="stroke:#181818;stroke-width:0.5;" width="167.6064" x="7" y="226"/><ellipse cx="53.1016" cy="242" fill="#B1B1B1" rx="11" ry="11" style="stroke:#181818;stroke-width:1.0;"/><path d="M54.0547,238.6406 L54.0547,245.2969 L55.7734,245.2969 Q56.3828,245.2969 56.6484,245.5313 Q56.9141,245.7656 56.9141,246.1563 Q56.9141,246.5313 56.6484,246.7656 Q56.3828,247 55.7734,247 L50.6328,247 Q50.0234,247 49.7578,246.7656 Q49.4922,246.5313 49.4922,246.1406 Q49.4922,245.7656 49.7578,245.5313 Q50.0234,245.2969 50.6328,245.2969 L52.3516,245.2969 L52.3516,238.6406 L50.6328,238.6406 Q50.0234,238.6406 49.7578,238.4063 Q49.4922,238.1719 49.4922,237.7813 Q49.4922,237.4063 49.7578,237.1719 Q50.0234,236.9375 50.6328,236.9375 L55.7734,236.9375 Q56.3828,236.9375 56.6484,237.1719 Q56.9141,237.4063 56.9141,237.7813 Q56.9141,238.1719 56.6484,238.4063 Q56.3828,238.6406 55.7734,238.6406 L54.0547,238.6406 Z " fill="#000000"/><text fill="#000000" font-family="sans-serif" font-size="14" font-style="italic" lengthAdjust="spacing" textLength="66.9033" x="73.6016" y="247.7285">W3wClient</text><line style="stroke:#181818;stroke-width:0.5;" x1="8" x2="173.6064" y1="258" y2="258"/><line style="stroke:#181818;stroke-width:0.5;" x1="8" x2="173.6064" y1="266" y2="266"/><ellipse cx="18" cy="280.3047" fill="#A6A6A6" rx="3" ry="3" style="stroke:#545454;stroke-width:1.0;"/><text fill="#000000" font-family="sans-serif" font-size="14" lengthAdjust="spacing" textLength="141.6064" x="27" y="284.5332">reverse(lat, lon): String</text></g><!--class ClockProvider--><g id="elem_ClockProvider"><rect codeLine="12" fill="#F1F1F1" height="65.6094" id="ClockProvider" rx="2.5" ry="2.5" style="stroke:#181818;stroke-width:0.5;" width="126.3789" x="210" y="226"/><ellipse cx="228.2585" cy="242" fill="#B1B1B1" rx="11" ry="11" style="stroke:#181818;stroke-width:1.0;"/><path d="M229.2117,238.6406 L229.2117,245.2969 L230.9304,245.2969 Q231.5398,245.2969 231.8054,245.5313 Q232.071,245.7656 232.071,246.1563 Q232.071,246.5313 231.8054,246.7656 Q231.5398,247 230.9304,247 L225.7898,247 Q225.1804,247 224.9148,246.7656 Q224.6492,246.5313 224.6492,246.1406 Q224.6492,245.7656 224.9148,245.5313 Q225.1804,245.2969 225.7898,245.2969 L227.5085,245.2969 L227.5085,238.6406 L225.7898,238.6406 Q225.1804,238.6406 224.9148,238.4063 Q224.6492,238.1719 224.6492,237.7813 Q224.6492,237.4063 224.9148,237.1719 Q225.1804,236.9375 225.7898,236.9375 L230.9304,236.9375 Q231.5398,236.9375 231.8054,237.1719 Q232.071,237.4063 232.071,237.7813 Q232.071,238.1719 231.8054,238.4063 Q231.5398,238.6406 230.9304,238.6406 L229.2117,238.6406 Z " fill="#000000"/><text fill="#000000" font-family="sans-serif" font-size="14" font-style="italic" lengthAdjust="spacing" textLength="87.1377" x="242.9827" y="247.7285">ClockProvider</text><line style="stroke:#181818;stroke-width:0.5;" x1="211" x2="335.3789" y1="258" y2="258"/><line style="stroke:#181818;stroke-width:0.5;" x1="211" x2="335.3789" y1="266" y2="266"/><ellipse cx="221" cy="280.3047" fill="#A6A6A6" rx="3" ry="3" style="stroke:#545454;stroke-width:1.0;"/><text fill="#000000" font-family="sans-serif" font-size="14" lengthAdjust="spacing" textLength="100.3789" x="230" y="284.5332">instant(): Instant</text></g><!--class BearingSession--><g id="elem_BearingSession"><rect codeLine="16" fill="#F1F1F1" height="136.0469" id="BearingSession" rx="2.5" ry="2.5" style="stroke:#181818;stroke-width:0.5;" width="159.8477" x="581" y="7"/><ellipse cx="609.4038" cy="23" fill="#C2C2C2" rx="11" ry="11" style="stroke:#181818;stroke-width:1.0;"/><path d="M612.1694,18.875 Q612.3256,18.6563 612.5131,18.5469 Q612.7006,18.4375 612.9194,18.4375 Q613.2944,18.4375 613.5288,18.7031 Q613.7631,18.9531 613.7631,19.5625 L613.7631,21.0156 Q613.7631,21.625 613.5288,21.8906 Q613.2944,22.1563 612.9194,22.1563 Q612.5756,22.1563 612.3725,21.9531 Q612.1694,21.7656 612.06,21.25 Q612.0131,20.8906 611.8256,20.7031 Q611.4975,20.3281 610.8881,20.1094 Q610.2788,19.8906 609.6538,19.8906 Q608.8881,19.8906 608.2475,20.2188 Q607.6225,20.5469 607.1225,21.2969 Q606.6381,22.0469 606.6381,23.0781 L606.6381,24.1719 Q606.6381,25.4063 607.5288,26.2344 Q608.4194,27.0469 610.0131,27.0469 Q610.9506,27.0469 611.6069,26.7969 Q611.9975,26.6406 612.4194,26.2031 Q612.685,25.9375 612.8256,25.8594 Q612.9819,25.7813 613.185,25.7813 Q613.5131,25.7813 613.7631,26.0469 Q614.0288,26.2969 614.0288,26.6406 Q614.0288,26.9844 613.685,27.3906 Q613.185,27.9688 612.3881,28.2969 Q611.31,28.75 610.0131,28.75 Q608.4975,28.75 607.2944,28.125 Q606.31,27.625 605.6225,26.5625 Q604.935,25.4844 604.935,24.2031 L604.935,23.0469 Q604.935,21.7188 605.5444,20.5781 Q606.1694,19.4219 607.2631,18.8125 Q608.3569,18.1875 609.5913,18.1875 Q610.3256,18.1875 610.9663,18.3594 Q611.6225,18.5156 612.1694,18.875 Z " fill="#000000"/><text fill="#000000" font-family="sans-serif" font-size="14" lengthAdjust="spacing" textLength="98.0615" x="626.3824" y="28.7285">BearingSession</text><line style="stroke:#181818;stroke-width:0.5;" x1="582" x2="739.8477" y1="39" y2="39"/><rect fill="none" height="6" style="stroke:#595959;stroke-width:1.0;" width="6" x="589" y="50.3047"/><text fill="#000000" font-family="sans-serif" font-size="14" lengthAdjust="spacing" textLength="30.3516" x="601" y="57.5332">state</text><line style="stroke:#181818;stroke-width:0.5;" x1="582" x2="739.8477" y1="64.6094" y2="64.6094"/><ellipse cx="592" cy="78.9141" fill="#A6A6A6" rx="3" ry="3" style="stroke:#545454;stroke-width:1.0;"/><text fill="#000000" font-family="sans-serif" font-size="14" lengthAdjust="spacing" textLength="117.4893" x="601" y="83.1426">start(config, target)</text><ellipse cx="592" cy="96.5234" fill="#A6A6A6" rx="3" ry="3" style="stroke:#545454;stroke-width:1.0;"/><text fill="#000000" font-family="sans-serif" font-size="14" lengthAdjust="spacing" textLength="133.8477" x="601" y="100.752">onPositionUpdate(fix)</text><ellipse cx="592" cy="114.1328" fill="#A6A6A6" rx="3" ry="3" style="stroke:#545454;stroke-width:1.0;"/><text fill="#000000" font-family="sans-serif" font-size="14" lengthAdjust="spacing" textLength="66.1309" x="601" y="118.3613">complete()</text><ellipse cx="592" cy="131.7422" fill="#A6A6A6" rx="3" ry="3" style="stroke:#545454;stroke-width:1.0;"/><text fill="#000000" font-family="sans-serif" font-size="14" lengthAdjust="spacing" textLength="41.2344" x="601" y="135.9707">abort()</text></g><!--class SessionConfig--><g id="elem_SessionConfig"><rect codeLine="24" fill="#F1F1F1" height="58.7031" id="SessionConfig" rx="2.5" ry="2.5" style="stroke:#181818;stroke-width:0.5;" width="122.2754" x="371" y="229.5"/><ellipse cx="386" cy="250.8516" fill="#C2C2C2" rx="11" ry="11" style="stroke:#181818;stroke-width:1.0;"/><path d="M388.7656,246.7266 Q388.9219,246.5078 389.1094,246.3984 Q389.2969,246.2891 389.5156,246.2891 Q389.8906,246.2891 390.125,246.5547 Q390.3594,246.8047 390.3594,247.4141 L390.3594,248.8672 Q390.3594,249.4766 390.125,249.7422 Q389.8906,250.0078 389.5156,250.0078 Q389.1719,250.0078 388.9688,249.8047 Q388.7656,249.6172 388.6563,249.1016 Q388.6094,248.7422 388.4219,248.5547 Q388.0938,248.1797 387.4844,247.9609 Q386.875,247.7422 386.25,247.7422 Q385.4844,247.7422 384.8438,248.0703 Q384.2188,248.3984 383.7188,249.1484 Q383.2344,249.8984 383.2344,250.9297 L383.2344,252.0234 Q383.2344,253.2578 384.125,254.0859 Q385.0156,254.8984 386.6094,254.8984 Q387.5469,254.8984 388.2031,254.6484 Q388.5938,254.4922 389.0156,254.0547 Q389.2813,253.7891 389.4219,253.7109 Q389.5781,253.6328 389.7813,253.6328 Q390.1094,253.6328 390.3594,253.8984 Q390.625,254.1484 390.625,254.4922 Q390.625,254.8359 390.2813,255.2422 Q389.7813,255.8203 388.9844,256.1484 Q387.9063,256.6016 386.6094,256.6016 Q385.0938,256.6016 383.8906,255.9766 Q382.9063,255.4766 382.2188,254.4141 Q381.5313,253.3359 381.5313,252.0547 L381.5313,250.8984 Q381.5313,249.5703 382.1406,248.4297 Q382.7656,247.2734 383.8594,246.6641 Q384.9531,246.0391 386.1875,246.0391 Q386.9219,246.0391 387.5625,246.2109 Q388.2188,246.3672 388.7656,246.7266 Z " fill="#000000"/><text fill="#000000" font-family="sans-serif" font-size="12" font-style="italic" lengthAdjust="spacing" textLength="68.7012" x="410.7871" y="246.957">&#171;immutable&#187;</text><text fill="#000000" font-family="sans-serif" font-size="14" lengthAdjust="spacing" textLength="90.2754" x="400" y="264.127">SessionConfig</text><line style="stroke:#181818;stroke-width:0.5;" x1="372" x2="492.2754" y1="272.2031" y2="272.2031"/><line style="stroke:#181818;stroke-width:0.5;" x1="372" x2="492.2754" y1="280.2031" y2="280.2031"/></g><!--class BearingCalculator--><g id="elem_BearingCalculator"><rect codeLine="27" fill="#F1F1F1" height="76.3125" id="BearingCalculator" rx="2.5" ry="2.5" style="stroke:#181818;stroke-width:0.5;" width="264.916" x="528.5" y="221"/><ellipse cx="601.0669" cy="242.3516" fill="#C2C2C2" rx="11" ry="11" style="stroke:#181818;stroke-width:1.0;"/><path d="M603.8325,238.2266 Q603.9888,238.0078 604.1763,237.8984 Q604.3638,237.7891 604.5825,237.7891 Q604.9575,237.7891 605.1919,238.0547 Q605.4263,238.3047 605.4263,238.9141 L605.4263,240.3672 Q605.4263,240.9766 605.1919,241.2422 Q604.9575,241.5078 604.5825,241.5078 Q604.2388,241.5078 604.0356,241.3047 Q603.8325,241.1172 603.7231,240.6016 Q603.6763,240.2422 603.4888,240.0547 Q603.1606,239.6797 602.5513,239.4609 Q601.9419,239.2422 601.3169,239.2422 Q600.5513,239.2422 599.9106,239.5703 Q599.2856,239.8984 598.7856,240.6484 Q598.3013,241.3984 598.3013,242.4297 L598.3013,243.5234 Q598.3013,244.7578 599.1919,245.5859 Q600.0825,246.3984 601.6763,246.3984 Q602.6138,246.3984 603.27,246.1484 Q603.6606,245.9922 604.0825,245.5547 Q604.3481,245.2891 604.4888,245.2109 Q604.645,245.1328 604.8481,245.1328 Q605.1763,245.1328 605.4263,245.3984 Q605.6919,245.6484 605.6919,245.9922 Q605.6919,246.3359 605.3481,246.7422 Q604.8481,247.3203 604.0513,247.6484 Q602.9731,248.1016 601.6763,248.1016 Q600.1606,248.1016 598.9575,247.4766 Q597.9731,246.9766 597.2856,245.9141 Q596.5981,244.8359 596.5981,243.5547 L596.5981,242.3984 Q596.5981,241.0703 597.2075,239.9297 Q597.8325,238.7734 598.9263,238.1641 Q600.02,237.5391 601.2544,237.5391 Q601.9888,237.5391 602.6294,237.7109 Q603.2856,237.8672 603.8325,238.2266 Z " fill="#000000"/><text fill="#000000" font-family="sans-serif" font-size="12" font-style="italic" lengthAdjust="spacing" textLength="51.3574" x="651.5293" y="238.457">&#171;service&#187;</text><text fill="#000000" font-family="sans-serif" font-size="14" lengthAdjust="spacing" textLength="111.2822" x="621.5669" y="255.627">BearingCalculator</text><line style="stroke:#181818;stroke-width:0.5;" x1="529.5" x2="792.416" y1="263.7031" y2="263.7031"/><line style="stroke:#181818;stroke-width:0.5;" x1="529.5" x2="792.416" y1="271.7031" y2="271.7031"/><ellipse cx="539.5" cy="286.0078" fill="#A6A6A6" rx="3" ry="3" style="stroke:#545454;stroke-width:1.0;"/><text fill="#000000" font-family="sans-serif" font-size="14" lengthAdjust="spacing" textLength="238.916" x="548.5" y="290.2363">snapshot(fix, target): BearingSnapshot</text></g><!--class TrackAggregator--><g id="elem_TrackAggregator"><rect codeLine="31" fill="#F1F1F1" height="76.3125" id="TrackAggregator" rx="2.5" ry="2.5" style="stroke:#181818;stroke-width:0.5;" width="136.2686" x="829" y="221"/><ellipse cx="844" cy="242.3516" fill="#C2C2C2" rx="11" ry="11" style="stroke:#181818;stroke-width:1.0;"/><path d="M846.7656,238.2266 Q846.9219,238.0078 847.1094,237.8984 Q847.2969,237.7891 847.5156,237.7891 Q847.8906,237.7891 848.125,238.0547 Q848.3594,238.3047 848.3594,238.9141 L848.3594,240.3672 Q848.3594,240.9766 848.125,241.2422 Q847.8906,241.5078 847.5156,241.5078 Q847.1719,241.5078 846.9688,241.3047 Q846.7656,241.1172 846.6563,240.6016 Q846.6094,240.2422 846.4219,240.0547 Q846.0938,239.6797 845.4844,239.4609 Q844.875,239.2422 844.25,239.2422 Q843.4844,239.2422 842.8438,239.5703 Q842.2188,239.8984 841.7188,240.6484 Q841.2344,241.3984 841.2344,242.4297 L841.2344,243.5234 Q841.2344,244.7578 842.125,245.5859 Q843.0156,246.3984 844.6094,246.3984 Q845.5469,246.3984 846.2031,246.1484 Q846.5938,245.9922 847.0156,245.5547 Q847.2813,245.2891 847.4219,245.2109 Q847.5781,245.1328 847.7813,245.1328 Q848.1094,245.1328 848.3594,245.3984 Q848.625,245.6484 848.625,245.9922 Q848.625,246.3359 848.2813,246.7422 Q847.7813,247.3203 846.9844,247.6484 Q845.9063,248.1016 844.6094,248.1016 Q843.0938,248.1016 841.8906,247.4766 Q840.9063,246.9766 840.2188,245.9141 Q839.5313,244.8359 839.5313,243.5547 L839.5313,242.3984 Q839.5313,241.0703 840.1406,239.9297 Q840.7656,238.7734 841.8594,238.1641 Q842.9531,237.5391 844.1875,237.5391 Q844.9219,237.5391 845.5625,237.7109 Q846.2188,237.8672 846.7656,238.2266 Z " fill="#000000"/><text fill="#000000" font-family="sans-serif" font-size="12" font-style="italic" lengthAdjust="spacing" textLength="51.3574" x="884.4556" y="238.457">&#171;service&#187;</text><text fill="#000000" font-family="sans-serif" font-size="14" lengthAdjust="spacing" textLength="104.2686" x="858" y="255.627">TrackAggregator</text><line style="stroke:#181818;stroke-width:0.5;" x1="830" x2="964.2686" y1="263.7031" y2="263.7031"/><line style="stroke:#181818;stroke-width:0.5;" x1="830" x2="964.2686" y1="271.7031" y2="271.7031"/><ellipse cx="840" cy="286.0078" fill="#A6A6A6" rx="3" ry="3" style="stroke:#545454;stroke-width:1.0;"/><text fill="#000000" font-family="sans-serif" font-size="14" lengthAdjust="spacing" textLength="98.0342" x="849" y="290.2363">accept(fix): void</text></g><!--class GpxSerializer--><g id="elem_GpxSerializer"><rect codeLine="35" fill="#F1F1F1" height="76.3125" id="GpxSerializer" rx="2.5" ry="2.5" style="stroke:#181818;stroke-width:0.5;" width="150.4893" x="1000" y="221"/><ellipse cx="1030.5079" cy="242.3516" fill="#C2C2C2" rx="11" ry="11" style="stroke:#181818;stroke-width:1.0;"/><path d="M1033.2735,238.2266 Q1033.4297,238.0078 1033.6172,237.8984 Q1033.8047,237.7891 1034.0235,237.7891 Q1034.3985,237.7891 1034.6329,238.0547 Q1034.8672,238.3047 1034.8672,238.9141 L1034.8672,240.3672 Q1034.8672,240.9766 1034.6329,241.2422 Q1034.3985,241.5078 1034.0235,241.5078 Q1033.6797,241.5078 1033.4766,241.3047 Q1033.2735,241.1172 1033.1641,240.6016 Q1033.1172,240.2422 1032.9297,240.0547 Q1032.6016,239.6797 1031.9922,239.4609 Q1031.3829,239.2422 1030.7579,239.2422 Q1029.9922,239.2422 1029.3516,239.5703 Q1028.7266,239.8984 1028.2266,240.6484 Q1027.7422,241.3984 1027.7422,242.4297 L1027.7422,243.5234 Q1027.7422,244.7578 1028.6329,245.5859 Q1029.5235,246.3984 1031.1172,246.3984 Q1032.0547,246.3984 1032.711,246.1484 Q1033.1016,245.9922 1033.5235,245.5547 Q1033.7891,245.2891 1033.9297,245.2109 Q1034.086,245.1328 1034.2891,245.1328 Q1034.6172,245.1328 1034.8672,245.3984 Q1035.1329,245.6484 1035.1329,245.9922 Q1035.1329,246.3359 1034.7891,246.7422 Q1034.2891,247.3203 1033.4922,247.6484 Q1032.4141,248.1016 1031.1172,248.1016 Q1029.6016,248.1016 1028.3985,247.4766 Q1027.4141,246.9766 1026.7266,245.9141 Q1026.0391,244.8359 1026.0391,243.5547 L1026.0391,242.3984 Q1026.0391,241.0703 1026.6485,239.9297 Q1027.2735,238.7734 1028.3672,238.1641 Q1029.461,237.5391 1030.6954,237.5391 Q1031.4297,237.5391 1032.0704,237.7109 Q1032.7266,237.8672 1033.2735,238.2266 Z " fill="#000000"/><text fill="#000000" font-family="sans-serif" font-size="12" font-style="italic" lengthAdjust="spacing" textLength="36.6914" x="1071.622" y="238.457">&#171;infra&#187;</text><text fill="#000000" font-family="sans-serif" font-size="14" lengthAdjust="spacing" textLength="84.0273" x="1047.9541" y="255.627">GpxSerializer</text><line style="stroke:#181818;stroke-width:0.5;" x1="1001" x2="1149.4893" y1="263.7031" y2="263.7031"/><line style="stroke:#181818;stroke-width:0.5;" x1="1001" x2="1149.4893" y1="271.7031" y2="271.7031"/><ellipse cx="1011" cy="286.0078" fill="#A6A6A6" rx="3" ry="3" style="stroke:#545454;stroke-width:1.0;"/><text fill="#000000" font-family="sans-serif" font-size="14" lengthAdjust="spacing" textLength="124.4893" x="1020" y="290.2363">serialize(doc): bytes</text></g><!--class OptimizationPipeline--><g id="elem_OptimizationPipeline"><rect codeLine="39" fill="#F1F1F1" height="65.6094" id="OptimizationPipeline" rx="2.5" ry="2.5" style="stroke:#181818;stroke-width:0.5;" width="210.3857" x="1185" y="226"/><ellipse cx="1222.8445" cy="242" fill="#C2C2C2" rx="11" ry="11" style="stroke:#181818;stroke-width:1.0;"/><path d="M1225.6102,237.875 Q1225.7664,237.6563 1225.9539,237.5469 Q1226.1414,237.4375 1226.3602,237.4375 Q1226.7352,237.4375 1226.9695,237.7031 Q1227.2039,237.9531 1227.2039,238.5625 L1227.2039,240.0156 Q1227.2039,240.625 1226.9695,240.8906 Q1226.7352,241.1563 1226.3602,241.1563 Q1226.0164,241.1563 1225.8133,240.9531 Q1225.6102,240.7656 1225.5008,240.25 Q1225.4539,239.8906 1225.2664,239.7031 Q1224.9383,239.3281 1224.3289,239.1094 Q1223.7195,238.8906 1223.0945,238.8906 Q1222.3289,238.8906 1221.6883,239.2188 Q1221.0633,239.5469 1220.5633,240.2969 Q1220.0789,241.0469 1220.0789,242.0781 L1220.0789,243.1719 Q1220.0789,244.4063 1220.9695,245.2344 Q1221.8602,246.0469 1223.4539,246.0469 Q1224.3914,246.0469 1225.0477,245.7969 Q1225.4383,245.6406 1225.8602,245.2031 Q1226.1258,244.9375 1226.2664,244.8594 Q1226.4227,244.7813 1226.6258,244.7813 Q1226.9539,244.7813 1227.2039,245.0469 Q1227.4695,245.2969 1227.4695,245.6406 Q1227.4695,245.9844 1227.1258,246.3906 Q1226.6258,246.9688 1225.8289,247.2969 Q1224.7508,247.75 1223.4539,247.75 Q1221.9383,247.75 1220.7352,247.125 Q1219.7508,246.625 1219.0633,245.5625 Q1218.3758,244.4844 1218.3758,243.2031 L1218.3758,242.0469 Q1218.3758,240.7188 1218.9852,239.5781 Q1219.6102,238.4219 1220.7039,237.8125 Q1221.7977,237.1875 1223.032,237.1875 Q1223.7664,237.1875 1224.407,237.3594 Q1225.0633,237.5156 1225.6102,237.875 Z " fill="#000000"/><text fill="#000000" font-family="sans-serif" font-size="14" lengthAdjust="spacing" textLength="127.6201" x="1241.9211" y="247.7285">OptimizationPipeline</text><line style="stroke:#181818;stroke-width:0.5;" x1="1186" x2="1394.3857" y1="258" y2="258"/><line style="stroke:#181818;stroke-width:0.5;" x1="1186" x2="1394.3857" y1="266" y2="266"/><ellipse cx="1196" cy="280.3047" fill="#A6A6A6" rx="3" ry="3" style="stroke:#545454;stroke-width:1.0;"/><text fill="#000000" font-family="sans-serif" font-size="14" lengthAdjust="spacing" textLength="184.3857" x="1205" y="284.5332">apply(track, strategies): Track</text></g><!--link BearingSession to SessionConfig--><g id="link_BearingSession_SessionConfig"><path codeLine="43" d="M580.91,139.65 C542.47,170.2 503.0269,201.5465 472.8469,225.5365 " fill="none" id="BearingSession-to-SessionConfig" style="stroke:#181818;stroke-width:1.0;"/><polygon fill="#181818" points="468.15,229.27,477.6843,226.8009,472.0641,226.1587,472.7063,220.5384,468.15,229.27" style="stroke:#181818;stroke-width:1.0;"/></g><!--link BearingSession to BearingCalculator--><g id="link_BearingSession_BearingCalculator"><path codeLine="44" d="M661,143.25 C661,169.48 661,192.53 661,214.85 " fill="none" id="BearingSession-to-BearingCalculator" style="stroke:#181818;stroke-width:1.0;"/><polygon fill="#181818" points="661,220.85,665,211.85,661,215.85,657,211.85,661,220.85" style="stroke:#181818;stroke-width:1.0;"/></g><!--link BearingSession to TrackAggregator--><g id="link_BearingSession_TrackAggregator"><path codeLine="45" d="M741.23,137.87 C777.04,165.49 813.2881,193.4467 844.2381,217.3067 " fill="none" id="BearingSession-to-TrackAggregator" style="stroke:#181818;stroke-width:1.0;"/><polygon fill="#181818" points="848.99,220.97,844.3044,212.3071,845.0301,217.9172,839.42,218.6429,848.99,220.97" style="stroke:#181818;stroke-width:1.0;"/></g><!--link BearingSession to OptimizationPipeline--><g id="link_BearingSession_OptimizationPipeline"><path codeLine="46" d="M741.02,98.46 C841.04,126.63 1017.39,176.63 1168,221 C1173.52,222.63 1173.4322,222.5787 1179.1422,224.2887 " fill="none" id="BearingSession-to-OptimizationPipeline" style="stroke:#181818;stroke-width:1.0;"/><polygon fill="#181818" points="1184.89,226.01,1177.4159,219.5962,1180.1002,224.5756,1175.1208,227.2599,1184.89,226.01" style="stroke:#181818;stroke-width:1.0;"/></g><!--link BearingSession to GpxSerializer--><g id="link_BearingSession_GpxSerializer"><path codeLine="47" d="M741.31,111.31 C816.09,144.18 921.2073,190.3954 994.2973,222.5254 " fill="none" id="BearingSession-to-GpxSerializer" style="stroke:#181818;stroke-width:1.0;"/><polygon fill="#181818" points="999.79,224.94,993.1606,217.6563,995.2127,222.9279,989.9412,224.98,999.79,224.94" style="stroke:#181818;stroke-width:1.0;"/></g><!--link OptimizationPipeline to TrackOptimizer--><g id="link_OptimizationPipeline_TrackOptimizer"><path codeLine="48" d="M1290,304.13 C1290,324.14 1290,331.77 1290,351.78 " fill="none" id="OptimizationPipeline-TrackOptimizer" style="stroke:#181818;stroke-width:1.0;"/><polygon fill="none" points="1290,292.13,1286,298.13,1290,304.13,1294,298.13,1290,292.13" style="stroke:#181818;stroke-width:1.0;"/><polygon fill="#181818" points="1290,357.78,1294,348.78,1290,352.78,1286,348.78,1290,357.78" style="stroke:#181818;stroke-width:1.0;"/><text fill="#000000" font-family="sans-serif" font-size="13" lengthAdjust="spacing" textLength="19.5127" x="1269.149" y="347.233">0..*</text></g><!--link BearingSession to W3wClient--><g id="link_BearingSession_W3wClient"><path codeLine="49" d="M580.93,99.39 C487.25,127.08 327.66,175.21 192,221 C186.51,222.85 186.5425,222.8161 180.8625,224.8061 " fill="none" id="BearingSession-to-W3wClient" style="stroke:#181818;stroke-width:1.0;stroke-dasharray:7.0,7.0;"/><polygon fill="#181818" points="175.2,226.79,185.0164,227.5892,179.9188,225.1368,182.3712,220.0392,175.2,226.79" style="stroke:#181818;stroke-width:1.0;"/><text fill="#000000" font-family="sans-serif" font-size="13" lengthAdjust="spacing" textLength="45.5381" x="335" y="187.4951">optional</text></g><!--link BearingSession to ClockProvider--><g id="link_BearingSession_ClockProvider"><path codeLine="50" d="M580.61,113.71 C508.02,147.76 408.1122,194.6222 341.4622,225.8822 " fill="none" id="BearingSession-to-ClockProvider" style="stroke:#181818;stroke-width:1.0;stroke-dasharray:7.0,7.0;"/><polygon fill="#181818" points="336.03,228.43,345.8768,228.2298,340.5568,226.3068,342.4798,220.9868,336.03,228.43" style="stroke:#181818;stroke-width:1.0;"/></g><!--SRC=[RLDDRzim3BtxLmWzELiI3DWj20niEHG31Yn0DkpCoBH3H1O5KKdR3VllenmtQLoVzC7t7XyfIexa0qJeJCUUxI5oXoR54nPoZSW1QduYtve6d61Ha4yO6x1eVaQmnnyXKKT_C9g_XJ4VUJYMWHKeivNvJfBMZq6s-Q8g_hrL-FtvQUC8VRgG8vun2fOEqjmuzihUfQYvxraRn_QuZNoc-ZKjUKdWKwcCRvTjfbW78kOhGjROeGYnx_4BXIJCHDt4L5hs3RLpeuSMqwmln6zPA2dZLwWLN3Rqt0SiTy6XNlGdsBFoPxTiGvfDhsZMQ-gwKuAzmwhIr6DJ6t3sfELoLAXWF9Ez0BCr3q4Ed7BcgxNLjPmXUfFid-DBsqPifmN1MWozdCgScUeRzp4yxp0IkFubrRLl8boDl4RAcgrIzoy9vSOT9W1ohxOKq9778M48xgLCsTVSYAu9My8y5BtNB35wdCMYkk_W5E1TxwP0esvCGQQCJ-7kcbDCbiiPz_1fkVpmCFeMOy7bidepzYkJFmnxS5Eukq7_3m00]--></g></svg>