<svg xmlns="http://www.w3.org/2000/svg" xmlns:xlink="http://www.w3.org/1999/xlink" contentStyleType="text/css" height="432px" preserveAspectRatio="none" style="width:783px;height:432px;background:#FFFFFF;" version="1.1" viewBox="0 0 783 432" width="783px" zoomAndPan="magnify"><defs/><g><!--cluster Lib--><g id="cluster_Lib"><rect fill="none" height="134" rx="2.5" ry="2.5" style="stroke:#181818;stroke-width:1.0;" width="635" x="142.1747" y="150"/><text fill="#000000" font-family="sans-serif" font-size="14" font-weight="bold" lengthAdjust="spacing" textLength="177.3789" x="370.9852" y="166.5332">Java-Peilungskomponente</text><text fill="#000000" font-family="sans-serif" font-size="14" font-weight="bold" lengthAdjust="spacing" textLength="60.6553" x="429.347" y="184.1426">(ohne UI)</text></g><!--entity Host--><g id="elem_Host"><rect fill="#F1F1F1" height="55.2188" rx="2.5" ry="2.5" style="stroke:#181818;stroke-width:0.5;" width="127.3994" x="606.6747" y="7"/><text fill="#000000" font-family="sans-serif" font-size="14" lengthAdjust="spacing" textLength="107.3994" x="616.6747" y="31.5332">Host-Anwendung</text><text fill="#000000" font-family="sans-serif" font-size="14" lengthAdjust="spacing" textLength="70.7793" x="616.6747" y="49.1426">(GNSS, UI)</text></g><!--entity API--><g id="elem_API"><rect fill="#F1F1F1" height="47.6094" rx="2.5" ry="2.5" style="stroke:#181818;stroke-width:0.5;" width="164.5166" x="587.6747" y="212"/><rect fill="#F1F1F1" height="10" style="stroke:#181818;stroke-width:0.5;" width="15" x="732.1913" y="217"/><rect fill="#F1F1F1" height="2" style="stroke:#181818;stroke-width:0.5;" width="4" x="730.1913" y="219"/><rect fill="#F1F1F1" height="2" style="stroke:#181818;stroke-width:0.5;" width="4" x="730.1913" y="223"/><text fill="#000000" font-family="sans-serif" font-size="14" lengthAdjust="spacing" textLength="124.5166" x="602.6747" y="246.5332">BearingSession API</text></g><!--entity Dom--><g id="elem_Dom"><rect fill="#F1F1F1" height="47.6094" rx="2.5" ry="2.5" style="stroke:#181818;stroke-width:0.5;" width="193.6787" x="358.1747" y="212"/><rect fill="#F1F1F1" height="10" style="stroke:#181818;stroke-width:0.5;" width="15" x="531.8534" y="217"/><rect fill="#F1F1F1" height="2" style="stroke:#181818;stroke-width:0.5;" width="4" x="529.8534" y="219"/><rect fill="#F1F1F1" height="2" style="stroke:#181818;stroke-width:0.5;" width="4" x="529.8534" y="223"/><text fill="#000000" font-family="sans-serif" font-size="14" lengthAdjust="spacing" textLength="153.6787" x="373.1747" y="246.5332">Domain: Peilung + Track</text></g><!--entity Gpx--><g id="elem_Gpx"><rect fill="#F1F1F1" height="47.6094" rx="2.5" ry="2.5" style="stroke:#181818;stroke-width:0.5;" width="137.2686" x="185.6747" y="212"/><rect fill="#F1F1F1" height="10" style="stroke:#181818;stroke-width:0.5;" width="15" x="302.9432" y="217"/><rect fill="#F1F1F1" height="2" style="stroke:#181818;stroke-width:0.5;" width="4" x="300.9432" y="219"/><rect fill="#F1F1F1" height="2" style="stroke:#181818;stroke-width:0.5;" width="4" x="300.9432" y="223"/><text fill="#000000" font-family="sans-serif" font-size="14" lengthAdjust="spacing" textLength="97.2686" x="200.6747" y="246.5332">GPX 1.1 Export</text></g><!--entity W3W--><g id="elem_W3W"><path d="M15.3025,365.5048 C17.6515,358.5031 21.8499,358.9295 26.6765,362.9475 C29.5653,356.4922 35.9201,355.7935 39.8632,361.835 C42.5124,356.0482 45.9254,354.8742 51.1864,358.7855 C53.8455,352.6164 59.8194,352.2093 63.2494,358.0086 C66.5106,351.9274 70.1407,351.3842 75.0803,356.1836 C79.4207,350.5298 84.1591,349.718 88.1015,356.597 C92.0905,350.7911 97.7606,352.0733 99.6069,358.5965 C104.2158,352.4746 109.8124,354.1734 111.9096,360.9856 C116.2063,356.1608 122.7683,356.3936 124.8886,363.3778 C129.0926,359.4381 134.3622,359.9639 136.4301,365.8794 C144.0415,367.626 145.1518,372.1233 141.222,378.3167 C147.4083,378.9947 150.1723,384.1457 145.8557,389.2677 C149.5375,395.27 148.0778,399.7726 141.1701,401.8228 C146.7631,408.1619 142.9064,413.5168 136.1332,415.1996 C132.0362,421.0471 128.1637,419.856 124.4567,414.7827 C121.6299,421.4914 115.9037,422.2324 110.8426,417.4239 C106.8699,422.2889 103.1366,422.7028 98.996,417.6239 C95.872,423.0353 91.2386,422.9224 87.7606,418.0091 C84.913,424.1775 81.2273,424.9967 76.2971,420.1831 C71.9566,425.4181 67.1255,425.4785 64.147,418.7947 C60.4229,424.9224 54.8869,423.823 51.7472,418.179 C47.9002,422.8847 41.6305,423.2006 39.5377,416.3289 C35.1877,421.541 30.0545,422.4812 26.2932,415.6798 C22.8035,420.1921 18.4986,420.7838 15.4344,415.2212 C8.4625,412.2086 7.8169,405.1811 14.1204,400.9464 C9.5673,398.6139 7.9174,393.9136 13.268,390.7528 C7.2543,386.2541 6,380.3574 13.846,376.4175 C9.601,372.1047 10.319,368.5859 15.3025,365.5048 " fill="#F1F1F1" style="stroke:#181818;stroke-width:0.5;"/><text fill="#000000" font-family="sans-serif" font-size="14" lengthAdjust="spacing" textLength="107.3652" x="20.6747" y="385.5332">What3Words API</text><text fill="#000000" font-family="sans-serif" font-size="14" lengthAdjust="spacing" textLength="58.3652" x="20.6747" y="403.1426">(optional)</text></g><!--entity FS--><g id="elem_FS"><path d="M177.6747,363.5 L177.6747,413.7188 A2.5,2.5 0 0 0 180.1747,416.2188 L272.1952,416.2188 A2.5,2.5 0 0 0 274.6952,413.7188 L274.6952,371 L264.6952,361 L180.1747,361 A2.5,2.5 0 0 0 177.6747,363.5 " fill="#F1F1F1" style="stroke:#181818;stroke-width:0.5;"/><path d="M264.6952,361 L264.6952,368.5 A2.5,2.5 0 0 0 267.1952,371 L274.6952,371 " fill="#F1F1F1" style="stroke:#181818;stroke-width:0.5;"/><text fill="#000000" font-family="sans-serif" font-size="14" lengthAdjust="spacing" textLength="77.0205" x="187.6747" y="385.5332">Dateisystem</text><text fill="#000000" font-family="sans-serif" font-size="14" lengthAdjust="spacing" textLength="58.3652" x="187.6747" y="403.1426">(optional)</text></g><!--link Host to API--><g id="link_Host_API"><path d="M635.4547,62.04 C626.8647,70.57 618.8047,80.76 614.1747,92 C596.9247,133.91 623.5641,178.505 645.9141,206.905 " fill="none" id="Host-to-API" style="stroke:#181818;stroke-width:1.0;"/><polygon fill="#181818" points="649.6247,211.62,647.2021,202.0737,646.5325,207.6908,640.9154,207.0212,649.6247,211.62" style="stroke:#181818;stroke-width:1.0;"/><text fill="#000000" font-family="sans-serif" font-size="13" lengthAdjust="spacing" textLength="64.3018" x="615.1747" y="106.4951">Positions- /</text><text fill="#000000" font-family="sans-serif" font-size="13" lengthAdjust="spacing" textLength="59.2617" x="617.6947" y="122.8467">Kursdaten</text></g><!--link API to Host--><g id="link_API_Host"><path d="M675.5947,211.68 C681.4547,183.34 689.3147,134.09 684.1747,92 C682.9747,82.17 682.1584,77.3959 679.7284,68.0759 " fill="none" id="API-to-Host" style="stroke:#181818;stroke-width:1.0;"/><polygon fill="#181818" points="678.2147,62.27,676.6147,71.988,679.4761,67.1083,684.3559,69.9697,678.2147,62.27" style="stroke:#181818;stroke-width:1.0;"/><text fill="#000000" font-family="sans-serif" font-size="13" lengthAdjust="spacing" textLength="43.3545" x="709.3023" y="106.4951">Events,</text><text fill="#000000" font-family="sans-serif" font-size="13" lengthAdjust="spacing" textLength="89.6099" x="686.1747" y="122.8467">Snapshot, GPX</text></g><!--link Lib to W3W--><g id="link_Lib_W3W"><path d="M142.0025,243.4575 C141.8602,243.575 141.7164,243.6941 141.5712,243.8145 C136.924,247.6697 130.7934,253.0106 124.1972,259.4438 C111.0047,272.31 95.9497,289.545 87.1747,308 C80.1447,322.78 77.4311,334.6807 75.9011,349.7407 " fill="none" id="Lib-to-W3W" style="stroke:#181818;stroke-width:1.0;"/><polygon fill="#181818" points="75.2947,355.71,80.1838,347.1604,75.8,350.7356,72.2248,346.3518,75.2947,355.71" style="stroke:#181818;stroke-width:1.0;"/><text fill="#000000" font-family="sans-serif" font-size="13" lengthAdjust="spacing" textLength="94.6689" x="88.1747" y="322.4951">Reverse Lookup</text></g><!--link Lib to FS--><g id="link_Lib_FS"><path d="M159.3387,284.0507 C159.6989,284.8783 160.0733,285.7001 160.4624,286.5144 C161.2405,288.143 162.0775,289.7416 162.9778,291.2967 C164.7784,294.407 166.8322,297.3438 169.1747,300 C174.9647,306.57 180.8647,301.93 187.1747,308 C202.1247,322.4 210.1101,338.0791 216.2501,355.0191 " fill="none" id="Lib-to-FS" style="stroke:#181818;stroke-width:1.0;"/><polygon fill="#181818" points="218.2947,360.66,218.9884,350.8356,216.5908,355.9593,211.4672,353.5617,218.2947,360.66" style="stroke:#181818;stroke-width:1.0;"/><text fill="#000000" font-family="sans-serif" font-size="13" lengthAdjust="spacing" textLength="116.3398" x="202.1747" y="322.4951">atomares Schreiben</text></g><!--SRC=[PP5FIyD04CNl-oc6dXGRfVJMWw3qZzKYnIWHh8TfCcsM9ZDXPzDMnE_kRfI2UDh3xxqtRsPrPxb1XpNKmfANJce2xreoUY9QOY47orlOOALaZAFS8syhWjwTg4zk-41SjBnTyTdiCKtxy38_xm4gH0oVvkkFvnxtc2p9Li6XEwaROM9FmImbqycxiEjW1NYx9NHXUaggLXXkblFtoCCRwLXgj3o2tq2uW6U7-QwJ11Obi-Kh32u7C3asudn7PiqnjiehQGlePINwOIQkw59ZaSQ7KLZzDCc6cTdOM7sCdgn-gAVwdsgQ6jFjcoJNCGP29r4R9Ph0rOeVMgT5260JQLHryX5Czc5_xQyuPMoq5D-7KDd40qHL61z4JxGdfmGBaLtRdE0q3GnzE88ZXJJy8DaryJS0]--></g></svg>