<svg xmlns="http://www.w3.org/2000/svg" xmlns:xlink="http://www.w3.org/1999/xlink" contentStyleType="text/css" height="891px" preserveAspectRatio="none" style="width:338px;height:891px;background:#FFFFFF;" version="1.1" viewBox="0 0 338 891" width="338px" zoomAndPan="magnify"><defs/><g><ellipse cx="164.5581" cy="20" fill="#222222" rx="10" ry="10" style="stroke:#222222;stroke-width:1;"/><rect fill="#F1F1F1" height="35.0938" rx="12.5" ry="12.5" style="stroke:#181818;stroke-width:0.5;" width="185.4336" x="71.8413" y="50"/><text fill="#000000" font-family="sans-serif" font-size="12" lengthAdjust="spacing" textLength="165.4336" x="81.8413" y="72.457">Eingang: onPositionUpdate(fix)</text><rect fill="#F1F1F1" height="35.0938" rx="12.5" ry="12.5" style="stroke:#181818;stroke-width:0.5;" width="158.082" x="85.5171" y="157.6836"/><text fill="#000000" font-family="sans-serif" font-size="12" lengthAdjust="spacing" textLength="138.082" x="95.5171" y="180.1406">werfe ValidationException</text><ellipse cx="164.5581" cy="230.8125" fill="none" rx="11" ry="11" style="stroke:#222222;stroke-width:1;"/><ellipse cx="164.5581" cy="230.8125" fill="#222222" rx="6" ry="6" style="stroke:#222222;stroke-width:1;"/><polygon fill="#F1F1F1" points="109.8401,105.0938,219.2761,105.0938,231.2761,118.9297,219.2761,132.7656,109.8401,132.7656,97.8401,118.9297,109.8401,105.0938" style="stroke:#181818;stroke-width:0.5;"/><text fill="#000000" font-family="sans-serif" font-size="11" lengthAdjust="spacing" textLength="20.7969" x="168.5581" y="144.1846">nein</text><text fill="#000000" font-family="sans-serif" font-size="11" lengthAdjust="spacing" textLength="52.5884" x="109.8401" y="116.5127">fix gueltig?</text><text fill="#000000" font-family="sans-serif" font-size="11" lengthAdjust="spacing" textLength="109.436" x="109.8401" y="130.3486">WGS84, Zeit plausibel</text><text fill="#000000" font-family="sans-serif" font-size="11" lengthAdjust="spacing" textLength="8.5615" x="231.2761" y="116.5127">ja</text><polygon fill="#F1F1F1" points="120.0774,283.8125,209.0388,283.8125,221.0388,297.6484,209.0388,311.4844,120.0774,311.4844,108.0774,297.6484,120.0774,283.8125" style="stroke:#181818;stroke-width:0.5;"/><text fill="#000000" font-family="sans-serif" font-size="11" lengthAdjust="spacing" textLength="48.9146" x="120.0774" y="295.2314">Sampling:</text><text fill="#000000" font-family="sans-serif" font-size="11" lengthAdjust="spacing" textLength="88.9614" x="120.0774" y="309.0674">Delta t &lt; Intervall?</text><text fill="#000000" font-family="sans-serif" font-size="11" lengthAdjust="spacing" textLength="8.5615" x="99.5159" y="295.2314">ja</text><text fill="#000000" font-family="sans-serif" font-size="11" lengthAdjust="spacing" textLength="20.7969" x="221.0388" y="295.2314">nein</text><rect fill="#F1F1F1" height="35.0938" rx="12.5" ry="12.5" style="stroke:#181818;stroke-width:0.5;" width="138.7285" x="11" y="321.4844"/><text fill="#000000" font-family="sans-serif" font-size="12" lengthAdjust="spacing" textLength="118.7285" x="21" y="343.9414">kein neuer Trackpunkt</text><rect fill="#F1F1F1" height="50.1875" rx="12.5" ry="12.5" style="stroke:#181818;stroke-width:0.5;" width="158.0469" x="169.7285" y="321.4844"/><text fill="#000000" font-family="sans-serif" font-size="12" lengthAdjust="spacing" textLength="103.3887" x="179.7285" y="343.9414">Trackpunkt pruefen</text><text fill="#000000" font-family="sans-serif" font-size="12" lengthAdjust="spacing" textLength="138.0469" x="179.7285" y="359.0352">(HDOP, Sprung, Duplikat)</text><polygon fill="#F1F1F1" points="164.5581,377.6719,176.5581,389.6719,164.5581,401.6719,152.5581,389.6719,164.5581,377.6719" style="stroke:#181818;stroke-width:0.5;"/><rect fill="#F1F1F1" height="35.0938" rx="12.5" ry="12.5" style="stroke:#181818;stroke-width:0.5;" width="148.7246" x="90.1958" y="470.5898"/><text fill="#000000" font-family="sans-serif" font-size="12" lengthAdjust="spacing" textLength="128.7246" x="100.1958" y="493.0469">neues trkseg vormerken</text><polygon fill="#F1F1F1" points="119.9189,421.6719,209.1973,421.6719,221.1973,433.6719,209.1973,445.6719,119.9189,445.6719,107.9189,433.6719,119.9189,421.6719" style="stroke:#181818;stroke-width:0.5;"/><text fill="#000000" font-family="sans-serif" font-size="11" lengthAdjust="spacing" textLength="8.5615" x="168.5581" y="457.0908">ja</text><text fill="#000000" font-family="sans-serif" font-size="11" lengthAdjust="spacing" textLength="89.2783" x="119.9189" y="438.1729">Segment-Luecke?</text><polygon fill="#F1F1F1" points="164.5581,525.6836,176.5581,537.6836,164.5581,549.6836,152.5581,537.6836,164.5581,525.6836" style="stroke:#181818;stroke-width:0.5;"/><rect fill="#F1F1F1" height="50.1875" rx="12.5" ry="12.5" style="stroke:#181818;stroke-width:0.5;" width="127.3848" x="100.8657" y="618.6016"/><text fill="#000000" font-family="sans-serif" font-size="12" lengthAdjust="spacing" textLength="107.3848" x="110.8657" y="641.0586">kontrollierter Stopp /</text><text fill="#000000" font-family="sans-serif" font-size="12" lengthAdjust="spacing" textLength="30.6855" x="110.8657" y="656.1523">Event</text><polygon fill="#F1F1F1" points="130.6128,569.6836,198.5034,569.6836,210.5034,581.6836,198.5034,593.6836,130.6128,593.6836,118.6128,581.6836,130.6128,569.6836" style="stroke:#181818;stroke-width:0.5;"/><text fill="#000000" font-family="sans-serif" font-size="11" lengthAdjust="spacing" textLength="50.73" x="168.5581" y="605.1025">Hard-Limit</text><text fill="#000000" font-family="sans-serif" font-size="11" lengthAdjust="spacing" textLength="67.8906" x="130.6128" y="586.1846">Punktbudget?</text><text fill="#000000" font-family="sans-serif" font-size="11" lengthAdjust="spacing" textLength="11.6177" x="210.5034" y="579.2666">ok</text><polygon fill="#F1F1F1" points="164.5581,688.7891,176.5581,700.7891,164.5581,712.7891,152.5581,700.7891,164.5581,688.7891" style="stroke:#181818;stroke-width:0.5;"/><rect fill="#F1F1F1" height="50.1875" rx="12.5" ry="12.5" style="stroke:#181818;stroke-width:0.5;" width="148.707" x="90.2046" y="732.7891"/><text fill="#000000" font-family="sans-serif" font-size="12" lengthAdjust="spacing" textLength="98.7188" x="100.2046" y="755.2461">BearingCalculator:</text><text fill="#000000" font-family="sans-serif" font-size="12" lengthAdjust="spacing" textLength="128.707" x="100.2046" y="770.3398">Azimut, Distanz, Ordinal</text><rect fill="#F1F1F1" height="35.0938" rx="12.5" ry="12.5" style="stroke:#181818;stroke-width:0.5;" width="150.752" x="89.1821" y="802.9766"/><text fill="#000000" font-family="sans-serif" font-size="12" lengthAdjust="spacing" textLength="130.752" x="99.1821" y="825.4336">Listener benachrichtigen</text><ellipse cx="164.5581" cy="869.0703" fill="none" rx="11" ry="11" style="stroke:#222222;stroke-width:1;"/><ellipse cx="164.5581" cy="869.0703" fill="#222222" rx="6" ry="6" style="stroke:#222222;stroke-width:1;"/><line style="stroke:#181818;stroke-width:1;" x1="164.5581" x2="164.5581" y1="30" y2="50"/><polygon fill="#181818" points="160.5581,40,164.5581,50,168.5581,40,164.5581,44" style="stroke:#181818;stroke-width:1;"/><line style="stroke:#181818;stroke-width:1;" x1="164.5581" x2="164.5581" y1="192.7773" y2="219.8125"/><polygon fill="#181818" points="160.5581,209.8125,164.5581,219.8125,168.5581,209.8125,164.5581,213.8125" style="stroke:#181818;stroke-width:1;"/><line style="stroke:#181818;stroke-width:1;" x1="164.5581" x2="164.5581" y1="132.7656" y2="157.6836"/><polygon fill="#181818" points="160.5581,147.6836,164.5581,157.6836,168.5581,147.6836,164.5581,151.6836" style="stroke:#181818;stroke-width:1;"/><line style="stroke:#181818;stroke-width:1;" x1="231.2761" x2="253.5991" y1="118.9297" y2="118.9297"/><polygon fill="#181818" points="249.5991,189.8125,253.5991,199.8125,257.5991,189.8125,253.5991,193.8125" style="stroke:#181818;stroke-width:1;"/><line style="stroke:#181818;stroke-width:1;" x1="253.5991" x2="253.5991" y1="118.9297" y2="263.8125"/><line style="stroke:#181818;stroke-width:1;" x1="253.5991" x2="164.5581" y1="263.8125" y2="263.8125"/><line style="stroke:#181818;stroke-width:1;" x1="164.5581" x2="164.5581" y1="263.8125" y2="283.8125"/><polygon fill="#181818" points="160.5581,273.8125,164.5581,283.8125,168.5581,273.8125,164.5581,277.8125" style="stroke:#181818;stroke-width:1;"/><line style="stroke:#181818;stroke-width:1;" x1="164.5581" x2="164.5581" y1="85.0938" y2="105.0938"/><polygon fill="#181818" points="160.5581,95.0938,164.5581,105.0938,168.5581,95.0938,164.5581,99.0938" style="stroke:#181818;stroke-width:1;"/><line style="stroke:#181818;stroke-width:1;" x1="108.0774" x2="80.3643" y1="297.6484" y2="297.6484"/><line style="stroke:#181818;stroke-width:1;" x1="80.3643" x2="80.3643" y1="297.6484" y2="321.4844"/><polygon fill="#181818" points="76.3643,311.4844,80.3643,321.4844,84.3643,311.4844,80.3643,315.4844" style="stroke:#181818;stroke-width:1;"/><line style="stroke:#181818;stroke-width:1;" x1="221.0388" x2="248.752" y1="297.6484" y2="297.6484"/><line style="stroke:#181818;stroke-width:1;" x1="248.752" x2="248.752" y1="297.6484" y2="321.4844"/><polygon fill="#181818" points="244.752,311.4844,248.752,321.4844,252.752,311.4844,248.752,315.4844" style="stroke:#181818;stroke-width:1;"/><line style="stroke:#181818;stroke-width:1;" x1="80.3643" x2="80.3643" y1="356.5781" y2="389.6719"/><line style="stroke:#181818;stroke-width:1;" x1="80.3643" x2="152.5581" y1="389.6719" y2="389.6719"/><polygon fill="#181818" points="142.5581,385.6719,152.5581,389.6719,142.5581,393.6719,146.5581,389.6719" style="stroke:#181818;stroke-width:1;"/><line style="stroke:#181818;stroke-width:1;" x1="248.752" x2="248.752" y1="371.6719" y2="389.6719"/><line style="stroke:#181818;stroke-width:1;" x1="248.752" x2="176.5581" y1="389.6719" y2="389.6719"/><polygon fill="#181818" points="186.5581,385.6719,176.5581,389.6719,186.5581,393.6719,182.5581,389.6719" style="stroke:#181818;stroke-width:1;"/><line style="stroke:#181818;stroke-width:1;" x1="164.5581" x2="164.5581" y1="445.6719" y2="470.5898"/><polygon fill="#181818" points="160.5581,460.5898,164.5581,470.5898,168.5581,460.5898,164.5581,464.5898" style="stroke:#181818;stroke-width:1;"/><line style="stroke:#181818;stroke-width:1;" x1="221.1973" x2="248.9204" y1="433.6719" y2="433.6719"/><polygon fill="#181818" points="244.9204,478.1367,248.9204,488.1367,252.9204,478.1367,248.9204,482.1367" style="stroke:#181818;stroke-width:1;"/><line style="stroke:#181818;stroke-width:1;" x1="248.9204" x2="248.9204" y1="433.6719" y2="537.6836"/><line style="stroke:#181818;stroke-width:1;" x1="248.9204" x2="176.5581" y1="537.6836" y2="537.6836"/><polygon fill="#181818" points="186.5581,533.6836,176.5581,537.6836,186.5581,541.6836,182.5581,537.6836" style="stroke:#181818;stroke-width:1;"/><line style="stroke:#181818;stroke-width:1;" x1="164.5581" x2="164.5581" y1="505.6836" y2="525.6836"/><polygon fill="#181818" points="160.5581,515.6836,164.5581,525.6836,168.5581,515.6836,164.5581,519.6836" style="stroke:#181818;stroke-width:1;"/><line style="stroke:#181818;stroke-width:1;" x1="164.5581" x2="164.5581" y1="401.6719" y2="421.6719"/><polygon fill="#181818" points="160.5581,411.6719,164.5581,421.6719,168.5581,411.6719,164.5581,415.6719" style="stroke:#181818;stroke-width:1;"/><line style="stroke:#181818;stroke-width:1;" x1="164.5581" x2="164.5581" y1="593.6836" y2="618.6016"/><polygon fill="#181818" points="160.5581,608.6016,164.5581,618.6016,168.5581,608.6016,164.5581,612.6016" style="stroke:#181818;stroke-width:1;"/><line style="stroke:#181818;stroke-width:1;" x1="210.5034" x2="238.2505" y1="581.6836" y2="581.6836"/><polygon fill="#181818" points="234.2505,633.6953,238.2505,643.6953,242.2505,633.6953,238.2505,637.6953" style="stroke:#181818;stroke-width:1;"/><line style="stroke:#181818;stroke-width:1;" x1="238.2505" x2="238.2505" y1="581.6836" y2="700.7891"/><line style="stroke:#181818;stroke-width:1;" x1="238.2505" x2="176.5581" y1="700.7891" y2="700.7891"/><polygon fill="#181818" points="186.5581,696.7891,176.5581,700.7891,186.5581,704.7891,182.5581,700.7891" style="stroke:#181818;stroke-width:1;"/><line style="stroke:#181818;stroke-width:1;" x1="164.5581" x2="164.5581" y1="668.7891" y2="688.7891"/><polygon fill="#181818" points="160.5581,678.7891,164.5581,688.7891,168.5581,678.7891,164.5581,682.7891" style="stroke:#181818;stroke-width:1;"/><line style="stroke:#181818;stroke-width:1;" x1="164.5581" x2="164.5581" y1="549.6836" y2="569.6836"/><polygon fill="#181818" points="160.5581,559.6836,164.5581,569.6836,168.5581,559.6836,164.5581,563.6836" style="stroke:#181818;stroke-width:1;"/><line style="stroke:#181818;stroke-width:1;" x1="164.5581" x2="164.5581" y1="712.7891" y2="732.7891"/><polygon fill="#181818" points="160.5581,722.7891,164.5581,732.7891,168.5581,722.7891,164.5581,726.7891" style="stroke:#181818;stroke-width:1;"/><line style="stroke:#181818;stroke-width:1;" x1="164.5581" x2="164.5581" y1="782.9766" y2="802.9766"/><polygon fill="#181818" points="160.5581,792.9766,164.5581,802.9766,168.5581,792.9766,164.5581,796.9766" style="stroke:#181818;stroke-width:1;"/><line style="stroke:#181818;stroke-width:1;" x1="164.5581" x2="164.5581" y1="838.0703" y2="858.0703"/><polygon fill="#181818" points="160.5581,848.0703,164.5581,858.0703,168.5581,848.0703,164.5581,852.0703" style="stroke:#181818;stroke-width:1;"/><!--SRC=[NP91QoCn38NlyojqJ21bBpsKIQ7iDg4f11f8suKb5sL6Cr7jaOqjfwM_lfhTJLfwCnBIzzwJisE9c7208KXe3YaC19eALVdSoGTimojB3ntwR1t5f5Mzj0fANqEGJSYi7EGfjgWqwVXjEg-uW_45VI6ltD_ivFVTzkfo1d-85QB7adbFVWfw88694Ckq0gXVANK4p-ZPbjdIvLj3SNpChPirn8fC1KnUS5gHjDpz9MrnYDuKrJjP60z1uHhkHIaTqVkR4sKSCeOp60WLIl2Oi76nYDFv_yLd9PyjY1P9HxAJoMhni9d1rWhIps1HZEfGpUyNBTGF97gnBjGu-iuUiTaoTfbwE8OqK78aN-St8t9VsfxqFBp2r5wiUM3zPo28fk0zKpABiBLO8lpOoV9eu9EHu4u9rRy8awLpYxuf7ZKao-ddEmz5pGFRHULz1W-fPK4_h-grbKXiyPu4xLTmSx0JZYh70tm0]--></g></svg>