<svg xmlns="http://www.w3.org/2000/svg" xmlns:xlink="http://www.w3.org/1999/xlink" contentStyleType="text/css" height="684px" preserveAspectRatio="none" style="width:381px;height:684px;background:#FFFFFF;" version="1.1" viewBox="0 0 381 684" width="381px" zoomAndPan="magnify"><defs/><g><ellipse cx="195.9106" cy="20" fill="#222222" rx="10" ry="10" style="stroke:#222222;stroke-width:1.0;"/><rect fill="#F1F1F1" height="35.0938" rx="12.5" ry="12.5" style="stroke:#181818;stroke-width:0.5;" width="178.7422" x="106.5396" y="50"/><text fill="#000000" font-family="sans-serif" font-size="12" lengthAdjust="spacing" textLength="158.7422" x="116.5396" y="72.457">Rohtrack immutable snapshot</text><polygon fill="#F1F1F1" points="151.5776,105.0938,240.2437,105.0938,252.2437,118.9297,240.2437,132.7656,151.5776,132.7656,139.5776,118.9297,151.5776,105.0938" style="stroke:#181818;stroke-width:0.5;"/><text fill="#000000" font-family="sans-serif" font-size="11" lengthAdjust="spacing" textLength="74.5615" x="151.5776" y="116.5127">TrackOptimizer</text><text fill="#000000" font-family="sans-serif" font-size="11" lengthAdjust="spacing" textLength="88.666" x="151.5776" y="130.3486">in SessionConfig?</text><text fill="#000000" font-family="sans-serif" font-size="11" lengthAdjust="spacing" textLength="8.5615" x="131.0161" y="116.5127">ja</text><text fill="#000000" font-family="sans-serif" font-size="11" lengthAdjust="spacing" textLength="20.7969" x="252.2437" y="116.5127">nein</text><rect fill="#F1F1F1" height="35.0938" rx="12.5" ry="12.5" style="stroke:#181818;stroke-width:0.5;" width="163.4082" x="15.3301" y="142.7656"/><text fill="#000000" font-family="sans-serif" font-size="12" lengthAdjust="spacing" textLength="143.4082" x="25.3301" y="165.2227">Strategie: jeder n-ter Punkt</text><rect fill="#F1F1F1" height="35.0938" rx="12.5" ry="12.5" style="stroke:#181818;stroke-width:0.5;" width="159.418" x="17.3252" y="197.8594"/><text fill="#000000" font-family="sans-serif" font-size="12" lengthAdjust="spacing" textLength="139.418" x="27.3252" y="220.3164">Strategie: Mindestabstand</text><rect fill="#F1F1F1" height="35.0938" rx="12.5" ry="12.5" style="stroke:#181818;stroke-width:0.5;" width="172.0684" x="11" y="252.9531"/><text fill="#000000" font-family="sans-serif" font-size="12" lengthAdjust="spacing" textLength="152.0684" x="21" y="275.4102">Strategie: Geraden-Heuristik</text><rect fill="#F1F1F1" height="35.0938" rx="12.5" ry="12.5" style="stroke:#181818;stroke-width:0.5;" width="159.4121" x="17.3281" y="356.9648"/><text fill="#000000" font-family="sans-serif" font-size="12" lengthAdjust="spacing" textLength="139.4121" x="27.3281" y="379.4219">Vereinfachung mit Epsilon</text><polygon fill="#F1F1F1" points="38.9512,308.0469,155.1172,308.0469,167.1172,320.0469,155.1172,332.0469,38.9512,332.0469,26.9512,320.0469,38.9512,308.0469" style="stroke:#181818;stroke-width:0.5;"/><text fill="#000000" font-family="sans-serif" font-size="11" lengthAdjust="spacing" textLength="8.5615" x="101.0342" y="343.4658">ja</text><text fill="#000000" font-family="sans-serif" font-size="11" lengthAdjust="spacing" textLength="116.166" x="38.9512" y="324.5479">Douglas-Peucker aktiv?</text><text fill="#000000" font-family="sans-serif" font-size="11" lengthAdjust="spacing" textLength="20.7969" x="167.1172" y="317.6299">nein</text><polygon fill="#F1F1F1" points="97.0342,412.0586,109.0342,424.0586,97.0342,436.0586,85.0342,424.0586,97.0342,412.0586" style="stroke:#181818;stroke-width:0.5;"/><rect fill="#F1F1F1" height="35.0938" rx="12.5" ry="12.5" style="stroke:#181818;stroke-width:0.5;" width="152.0938" x="218.7402" y="142.7656"/><text fill="#000000" font-family="sans-serif" font-size="12" lengthAdjust="spacing" textLength="132.0938" x="228.7402" y="165.2227">Rohpunkte unveraendert</text><polygon fill="#F1F1F1" points="195.9106,442.0586,207.9106,454.0586,195.9106,466.0586,183.9106,454.0586,195.9106,442.0586" style="stroke:#181818;stroke-width:0.5;"/><rect fill="#F1F1F1" height="35.0938" rx="12.5" ry="12.5" style="stroke:#181818;stroke-width:0.5;" width="136.7422" x="127.5396" y="486.0586"/><text fill="#000000" font-family="sans-serif" font-size="12" lengthAdjust="spacing" textLength="116.7422" x="137.5396" y="508.5156">Metadaten anreichern</text><rect fill="#F1F1F1" height="35.0938" rx="12.5" ry="12.5" style="stroke:#181818;stroke-width:0.5;" width="157.0918" x="117.3647" y="541.1523"/><text fill="#000000" font-family="sans-serif" font-size="12" lengthAdjust="spacing" textLength="137.0918" x="127.3647" y="563.6094">XML erzeugen + escapen</text><rect fill="#F1F1F1" height="35.0938" rx="12.5" ry="12.5" style="stroke:#181818;stroke-width:0.5;" width="126.7168" x="132.5522" y="596.2461"/><text fill="#000000" font-family="sans-serif" font-size="12" lengthAdjust="spacing" textLength="106.7168" x="142.5522" y="618.7031">String / byte[] liefern</text><ellipse cx="195.9106" cy="662.3398" fill="none" rx="11" ry="11" style="stroke:#222222;stroke-width:1.0;"/><ellipse cx="195.9106" cy="662.3398" fill="#222222" rx="6" ry="6" style="stroke:#222222;stroke-width:1.0;"/><line style="stroke:#181818;stroke-width:1.0;" x1="195.9106" x2="195.9106" y1="30" y2="50"/><polygon fill="#181818" points="191.9106,40,195.9106,50,199.9106,40,195.9106,44" style="stroke:#181818;stroke-width:1.0;"/><line style="stroke:#181818;stroke-width:1.0;" x1="97.0342" x2="97.0342" y1="177.8594" y2="197.8594"/><polygon fill="#181818" points="93.0342,187.8594,97.0342,197.8594,101.0342,187.8594,97.0342,191.8594" style="stroke:#181818;stroke-width:1.0;"/><line style="stroke:#181818;stroke-width:1.0;" x1="97.0342" x2="97.0342" y1="232.9531" y2="252.9531"/><polygon fill="#181818" points="93.0342,242.9531,97.0342,252.9531,101.0342,242.9531,97.0342,246.9531" style="stroke:#181818;stroke-width:1.0;"/><line style="stroke:#181818;stroke-width:1.0;" x1="97.0342" x2="97.0342" y1="332.0469" y2="356.9648"/><polygon fill="#181818" points="93.0342,346.9648,97.0342,356.9648,101.0342,346.9648,97.0342,350.9648" style="stroke:#181818;stroke-width:1.0;"/><line style="stroke:#181818;stroke-width:1.0;" x1="167.1172" x2="186.7402" y1="320.0469" y2="320.0469"/><polygon fill="#181818" points="182.7402,364.5117,186.7402,374.5117,190.7402,364.5117,186.7402,368.5117" style="stroke:#181818;stroke-width:1.0;"/><line style="stroke:#181818;stroke-width:1.0;" x1="186.7402" x2="186.7402" y1="320.0469" y2="424.0586"/><line style="stroke:#181818;stroke-width:1.0;" x1="186.7402" x2="109.0342" y1="424.0586" y2="424.0586"/><polygon fill="#181818" points="119.0342,420.0586,109.0342,424.0586,119.0342,428.0586,115.0342,424.0586" style="stroke:#181818;stroke-width:1.0;"/><line style="stroke:#181818;stroke-width:1.0;" x1="97.0342" x2="97.0342" y1="392.0586" y2="412.0586"/><polygon fill="#181818" points="93.0342,402.0586,97.0342,412.0586,101.0342,402.0586,97.0342,406.0586" style="stroke:#181818;stroke-width:1.0;"/><line style="stroke:#181818;stroke-width:1.0;" x1="97.0342" x2="97.0342" y1="288.0469" y2="308.0469"/><polygon fill="#181818" points="93.0342,298.0469,97.0342,308.0469,101.0342,298.0469,97.0342,302.0469" style="stroke:#181818;stroke-width:1.0;"/><line style="stroke:#181818;stroke-width:1.0;" x1="139.5776" x2="97.0342" y1="118.9297" y2="118.9297"/><line style="stroke:#181818;stroke-width:1.0;" x1="97.0342" x2="97.0342" y1="118.9297" y2="142.7656"/><polygon fill="#181818" points="93.0342,132.7656,97.0342,142.7656,101.0342,132.7656,97.0342,136.7656" style="stroke:#181818;stroke-width:1.0;"/><line style="stroke:#181818;stroke-width:1.0;" x1="252.2437" x2="294.7871" y1="118.9297" y2="118.9297"/><line style="stroke:#181818;stroke-width:1.0;" x1="294.7871" x2="294.7871" y1="118.9297" y2="142.7656"/><polygon fill="#181818" points="290.7871,132.7656,294.7871,142.7656,298.7871,132.7656,294.7871,136.7656" style="stroke:#181818;stroke-width:1.0;"/><line style="stroke:#181818;stroke-width:1.0;" x1="97.0342" x2="97.0342" y1="436.0586" y2="454.0586"/><line style="stroke:#181818;stroke-width:1.0;" x1="97.0342" x2="183.9106" y1="454.0586" y2="454.0586"/><polygon fill="#181818" points="173.9106,450.0586,183.9106,454.0586,173.9106,458.0586,177.9106,454.0586" style="stroke:#181818;stroke-width:1.0;"/><line style="stroke:#181818;stroke-width:1.0;" x1="294.7871" x2="294.7871" y1="177.8594" y2="454.0586"/><line style="stroke:#181818;stroke-width:1.0;" x1="294.7871" x2="207.9106" y1="454.0586" y2="454.0586"/><polygon fill="#181818" points="217.9106,450.0586,207.9106,454.0586,217.9106,458.0586,213.9106,454.0586" style="stroke:#181818;stroke-width:1.0;"/><line style="stroke:#181818;stroke-width:1.0;" x1="195.9106" x2="195.9106" y1="85.0938" y2="105.0938"/><polygon fill="#181818" points="191.9106,95.0938,195.9106,105.0938,199.9106,95.0938,195.9106,99.0938" style="stroke:#181818;stroke-width:1.0;"/><line style="stroke:#181818;stroke-width:1.0;" x1="195.9106" x2="195.9106" y1="466.0586" y2="486.0586"/><polygon fill="#181818" points="191.9106,476.0586,195.9106,486.0586,199.9106,476.0586,195.9106,480.0586" style="stroke:#181818;stroke-width:1.0;"/><line style="stroke:#181818;stroke-width:1.0;" x1="195.9106" x2="195.9106" y1="521.1523" y2="541.1523"/><polygon fill="#181818" points="191.9106,531.1523,195.9106,541.1523,199.9106,531.1523,195.9106,535.1523" style="stroke:#181818;stroke-width:1.0;"/><line style="stroke:#181818;stroke-width:1.0;" x1="195.9106" x2="195.9106" y1="576.2461" y2="596.2461"/><polygon fill="#181818" points="191.9106,586.2461,195.9106,596.2461,199.9106,586.2461,195.9106,590.2461" style="stroke:#181818;stroke-width:1.0;"/><line style="stroke:#181818;stroke-width:1.0;" x1="195.9106" x2="195.9106" y1="631.3398" y2="651.3398"/><polygon fill="#181818" points="191.9106,641.3398,195.9106,651.3398,199.9106,641.3398,195.9106,645.3398" style="stroke:#181818;stroke-width:1.0;"/><!--SRC=[NP0nJmCn38Nt-nKUMw6A_HWO0C50HKKHGW86zyvtSU_YH8bJH7yz3aX8xP0C-LwUttEUM28czE23XCwbu0aq5MhoFyaE-_35CiA0SpQYcBHfduFJXDq4x7rHtCq4MJ1c5_IguG4MBvK-HMNFHqeVmW9Rofc3t0GPUBnUWZeIMEnnsG2qMxDJ6fbQs5DF2MIbTc-AJEPuAbYpz6H1TdQaFwVtbB0dMJrGIPoLfogeaMv36MVCgmsLRZ9ld9GFPpdCwfKIiGpOkMAjFIlSnSnpaEf3jWDOY0cgcgJdeJbzgwk9DJL1aODbCH4bw_0dRjUas5jM0HGRr3bAvjo-hH-1qf7AQEG2A7SOgG9hLhT_2RjlfVTFc9c6tozPG_m1]--></g></svg>