<svg xmlns="http://www.w3.org/2000/svg" xmlns:xlink="http://www.w3.org/1999/xlink" contentStyleType="text/css" height="479px" preserveAspectRatio="none" style="width:1266px;height:479px;background:#FFFFFF;" version="1.1" viewBox="0 0 1266 479" width="1266px" zoomAndPan="magnify"><defs/><g><!--entity API--><g id="elem_API"><path d="M113.5,6 L149.8379,6 A3.75,3.75 0 0 1 152.3379,8.5 L159.3379,29.6094 L294.9199,29.6094 A2.5,2.5 0 0 1 297.4199,32.1094 L297.4199,61.7188 A2.5,2.5 0 0 1 294.9199,64.2188 L113.5,64.2188 A2.5,2.5 0 0 1 111,61.7188 L111,8.5 A2.5,2.5 0 0 1 113.5,6 " fill="#F1F1F1" style="stroke:#181818;stroke-width:0.5;"/><line style="stroke:#181818;stroke-width:0.5;" x1="111" x2="159.3379" y1="29.6094" y2="29.6094"/><text fill="#000000" font-family="sans-serif" font-size="14" font-weight="bold" lengthAdjust="spacing" textLength="23.3379" x="121" y="23.5332">API</text><text fill="#000000" font-family="sans-serif" font-size="14" lengthAdjust="spacing" textLength="156.4199" x="121" y="51.1426">com.example.bearing.api</text></g><!--entity APP--><g id="elem_APP"><path d="M111,142 L152.7861,142 A3.75,3.75 0 0 1 155.2861,144.5 L162.2861,165.6094 L297.0957,165.6094 A2.5,2.5 0 0 1 299.5957,168.1094 L299.5957,197.7188 A2.5,2.5 0 0 1 297.0957,200.2188 L111,200.2188 A2.5,2.5 0 0 1 108.5,197.7188 L108.5,144.5 A2.5,2.5 0 0 1 111,142 " fill="#F1F1F1" style="stroke:#181818;stroke-width:0.5;"/><line style="stroke:#181818;stroke-width:0.5;" x1="108.5" x2="162.2861" y1="165.6094" y2="165.6094"/><text fill="#000000" font-family="sans-serif" font-size="14" font-weight="bold" lengthAdjust="spacing" textLength="28.7861" x="118.5" y="159.5332">APP</text><text fill="#000000" font-family="sans-serif" font-size="14" lengthAdjust="spacing" textLength="161.0957" x="118.5" y="187.1426">com.example.bearing.app</text></g><!--entity DOMAIN--><g id="elem_DOMAIN"><path d="M8.5,278 L78.2725,278 A3.75,3.75 0 0 1 80.7725,280.5 L87.7725,301.6094 L217.1543,301.6094 A2.5,2.5 0 0 1 219.6543,304.1094 L219.6543,333.7188 A2.5,2.5 0 0 1 217.1543,336.2188 L8.5,336.2188 A2.5,2.5 0 0 1 6,333.7188 L6,280.5 A2.5,2.5 0 0 1 8.5,278 " fill="#F1F1F1" style="stroke:#181818;stroke-width:0.5;"/><line style="stroke:#181818;stroke-width:0.5;" x1="6" x2="87.7725" y1="301.6094" y2="301.6094"/><text fill="#000000" font-family="sans-serif" font-size="14" font-weight="bold" lengthAdjust="spacing" textLength="56.7725" x="16" y="295.5332">DOMAIN</text><text fill="#000000" font-family="sans-serif" font-size="14" lengthAdjust="spacing" textLength="183.6543" x="16" y="323.1426">com.example.bearing.domain</text></g><!--entity SPI--><g id="elem_SPI"><path d="M459.5,414 L495.0654,414 A3.75,3.75 0 0 1 497.5654,416.5 L504.5654,437.6094 L640.1338,437.6094 A2.5,2.5 0 0 1 642.6338,440.1094 L642.6338,469.7188 A2.5,2.5 0 0 1 640.1338,472.2188 L459.5,472.2188 A2.5,2.5 0 0 1 457,469.7188 L457,416.5 A2.5,2.5 0 0 1 459.5,414 " fill="#F1F1F1" style="stroke:#181818;stroke-width:0.5;"/><line style="stroke:#181818;stroke-width:0.5;" x1="457" x2="504.5654" y1="437.6094" y2="437.6094"/><text fill="#000000" font-family="sans-serif" font-size="14" font-weight="bold" lengthAdjust="spacing" textLength="22.5654" x="467" y="431.5332">SPI</text><text fill="#000000" font-family="sans-serif" font-size="14" lengthAdjust="spacing" textLength="155.6338" x="467" y="459.1426">com.example.bearing.spi</text></g><!--entity AD_GPX--><g id="elem_AD_GPX"><path d="M431.5,278 L502.0723,278 A3.75,3.75 0 0 1 504.5723,280.5 L511.5723,301.6094 L668.1816,301.6094 A2.5,2.5 0 0 1 670.6816,304.1094 L670.6816,333.7188 A2.5,2.5 0 0 1 668.1816,336.2188 L431.5,336.2188 A2.5,2.5 0 0 1 429,333.7188 L429,280.5 A2.5,2.5 0 0 1 431.5,278 " fill="#F1F1F1" style="stroke:#181818;stroke-width:0.5;"/><line style="stroke:#181818;stroke-width:0.5;" x1="429" x2="511.5723" y1="301.6094" y2="301.6094"/><text fill="#000000" font-family="sans-serif" font-size="14" font-weight="bold" lengthAdjust="spacing" textLength="57.5723" x="439" y="295.5332">AD_GPX</text><text fill="#000000" font-family="sans-serif" font-size="14" lengthAdjust="spacing" textLength="211.6816" x="439" y="323.1426">com.example.bearing.adapter.gpx</text></g><!--entity AD_W3W--><g id="elem_AD_W3W"><path d="M709,278 L784.2207,278 A3.75,3.75 0 0 1 786.7207,280.5 L793.7207,301.6094 L951.1162,301.6094 A2.5,2.5 0 0 1 953.6162,304.1094 L953.6162,333.7188 A2.5,2.5 0 0 1 951.1162,336.2188 L709,336.2188 A2.5,2.5 0 0 1 706.5,333.7188 L706.5,280.5 A2.5,2.5 0 0 1 709,278 " fill="#F1F1F1" style="stroke:#181818;stroke-width:0.5;"/><line style="stroke:#181818;stroke-width:0.5;" x1="706.5" x2="793.7207" y1="301.6094" y2="301.6094"/><text fill="#000000" font-family="sans-serif" font-size="14" font-weight="bold" lengthAdjust="spacing" textLength="62.2207" x="716.5" y="295.5332">AD_W3W</text><text fill="#000000" font-family="sans-serif" font-size="14" lengthAdjust="spacing" textLength="217.1162" x="716.5" y="323.1426">com.example.bearing.adapter.w3w</text></g><!--entity AD_SYS--><g id="elem_AD_SYS"><path d="M991,278 L1060.0205,278 A3.75,3.75 0 0 1 1062.5205,280.5 L1069.5205,301.6094 L1249.4473,301.6094 A2.5,2.5 0 0 1 1251.9473,304.1094 L1251.9473,333.7188 A2.5,2.5 0 0 1 1249.4473,336.2188 L991,336.2188 A2.5,2.5 0 0 1 988.5,333.7188 L988.5,280.5 A2.5,2.5 0 0 1 991,278 " fill="#F1F1F1" style="stroke:#181818;stroke-width:0.5;"/><line style="stroke:#181818;stroke-width:0.5;" x1="988.5" x2="1069.5205" y1="301.6094" y2="301.6094"/><text fill="#000000" font-family="sans-serif" font-size="14" font-weight="bold" lengthAdjust="spacing" textLength="56.0205" x="998.5" y="295.5332">AD_SYS</text><text fill="#000000" font-family="sans-serif" font-size="14" lengthAdjust="spacing" textLength="233.4473" x="998.5" y="323.1426">com.example.bearing.adapter.system</text></g><g id="elem_GMN16"><path d="M980.5,421.5 L980.5,464.2031 A0,0 0 0 0 980.5,464.2031 L1259.3989,464.2031 A0,0 0 0 0 1259.3989,464.2031 L1259.3989,431.5 L1249.3989,421.5 L1124,421.5 L1120,336.09 L1116,421.5 L980.5,421.5 A0,0 0 0 0 980.5,421.5 " fill="#FAFAFA" style="stroke:#181818;stroke-width:0.5;"/><path d="M1249.3989,421.5 L1249.3989,431.5 L1259.3989,431.5 L1249.3989,421.5 " fill="#FAFAFA" style="stroke:#181818;stroke-width:0.5;"/><text fill="#000000" font-family="sans-serif" font-size="13" lengthAdjust="spacing" textLength="121.418" x="986.5" y="439.9951">Abhaengigkeitsregel:</text><text fill="#000000" font-family="sans-serif" font-size="13" lengthAdjust="spacing" textLength="257.8989" x="986.5" y="456.3467">API -&gt; APP -&gt; DOMAIN -&gt; SPI &lt;- ADAPTER</text></g><!--link API to APP--><g id="link_API_APP"><path d="M204,64.09 C204,86.96 204,136.6994 204,159.5594 " fill="none" id="API-to-APP" style="stroke:#181818;stroke-width:1.0;"/><polygon fill="#181818" points="204,165.5594,208,156.5594,204,160.5594,200,156.5594,204,165.5594" style="stroke:#181818;stroke-width:1.0;"/><text fill="#000000" font-family="sans-serif" font-size="13" lengthAdjust="spacing" textLength="27.46" x="205" y="108.4951">uses</text></g><!--link APP to DOMAIN--><g id="link_APP_DOMAIN"><path d="M184.92,200.09 C169.39,222.96 150.9517,273.7363 135.4217,296.5963 " fill="none" id="APP-to-DOMAIN" style="stroke:#181818;stroke-width:1.0;"/><polygon fill="#181818" points="132.05,301.5594,140.4162,296.3626,134.8597,297.4235,133.7988,291.867,132.05,301.5594" style="stroke:#181818;stroke-width:1.0;"/><text fill="#000000" font-family="sans-serif" font-size="13" lengthAdjust="spacing" textLength="71.5317" x="165" y="244.4951">orchestrates</text></g><!--link APP to SPI--><g id="link_APP_SPI"><path d="M224.43,200.04 C231.13,209.46 238.52,220.09 245,230 C275.13,276.05 267.66,299.67 309,336 C351.32,373.19 403.0886,397.153 451.2686,414.063 " fill="none" id="APP-to-SPI" style="stroke:#181818;stroke-width:1.0;"/><polygon fill="#181818" points="456.93,416.05,449.7625,409.2952,452.2121,414.3941,447.1132,416.8438,456.93,416.05" style="stroke:#181818;stroke-width:1.0;"/><text fill="#000000" font-family="sans-serif" font-size="13" lengthAdjust="spacing" textLength="100.4644" x="310" y="312.4951">depends on ports</text></g><!--link DOMAIN to SPI--><g id="link_DOMAIN_SPI"><path d="M102.22,336.09 C98.11,351.98 96.75,371.18 108,384 C130.63,409.8 328.1045,427.2729 450.9545,435.8329 " fill="none" id="DOMAIN-to-SPI" style="stroke:#181818;stroke-width:1.0;"/><polygon fill="#181818" points="456.94,436.25,448.2398,431.6341,451.9521,435.9025,447.6837,439.6147,456.94,436.25" style="stroke:#181818;stroke-width:1.0;"/><text fill="#000000" font-family="sans-serif" font-size="13" lengthAdjust="spacing" textLength="156.8125" x="109" y="380.4951">optional technical contracts</text></g><!--link AD_GPX to SPI--><g id="link_AD_GPX_SPI"><path d="M550,336.09 C550,358.96 550,408.6994 550,431.5594 " fill="none" id="AD_GPX-to-SPI" style="stroke:#181818;stroke-width:1.0;stroke-dasharray:7.0,7.0;"/><polygon fill="#181818" points="550,437.5594,554,428.5594,550,432.5594,546,428.5594,550,437.5594" style="stroke:#181818;stroke-width:1.0;"/><text fill="#000000" font-family="sans-serif" font-size="13" lengthAdjust="spacing" textLength="66.4663" x="551" y="380.4951">implements</text></g><!--link AD_W3W to SPI--><g id="link_AD_W3W_SPI"><path d="M771.3,336.09 C723.52,358.96 661.8022,412.1094 614.0322,434.9694 " fill="none" id="AD_W3W-to-SPI" style="stroke:#181818;stroke-width:1.0;stroke-dasharray:7.0,7.0;"/><polygon fill="#181818" points="608.62,437.5594,618.465,437.2826,613.1302,435.4011,615.0117,430.0663,608.62,437.5594" style="stroke:#181818;stroke-width:1.0;"/><text fill="#000000" font-family="sans-serif" font-size="13" lengthAdjust="spacing" textLength="66.4663" x="708" y="380.4951">implements</text></g><!--link AD_SYS to SPI--><g id="link_AD_SYS_SPI"><path d="M1000.86,336.01 C894.46,361.02 746.6108,419.3862 648.9908,442.3362 " fill="none" id="AD_SYS-to-SPI" style="stroke:#181818;stroke-width:1.0;stroke-dasharray:7.0,7.0;"/><polygon fill="#181818" points="643.15,443.7094,652.8266,445.5435,648.0173,442.5651,650.9957,437.7558,643.15,443.7094" style="stroke:#181818;stroke-width:1.0;"/><text fill="#000000" font-family="sans-serif" font-size="13" lengthAdjust="spacing" textLength="66.4663" x="871" y="380.4951">implements</text></g><!--SRC=[ZP11Ry8m38Nl-HKMTthXXgP9bPWc3jkgTHBRQJAfbqOqSPGO0Vz-wLe6XmsuMNxVizvpsbWVCA83nvvr6zaHIDoIIhzAQh7XdVK6lh1Bvqf0lK53jHmwWaXQq9kEb1htCD7i2jgZ2nqLQyAOZnGOx0GmGLajhu5X1AlBOCCEhVzX5ozFvVBvCfx60FNL00q6eLYOi1-2B3uVg_VRFBlPxkXPpLQtUT8X2RcZhVwebSfFWkdqlly1p66RAAb-x5T3rRpbg5jA4b7Er5mkImq5yaq2zX0uIbAZwKHm4CiUEn3IhRSwJvfzFgOphOR6K1H7tFR17Vai3it-rNBylpNbMGZMBC9EbUiMoHjhDcGbHJBKpOVIG-TJpp7ntJJ_fgpU7bvLRWRzhMy0]--></g></svg>