<svg xmlns="http://www.w3.org/2000/svg" xmlns:xlink="http://www.w3.org/1999/xlink" contentStyleType="text/css" height="596px" preserveAspectRatio="none" style="width:1040px;height:596px;background:#FFFFFF;" version="1.1" viewBox="0 0 1040 596" width="1040px" zoomAndPan="magnify"><defs/><g><!--cluster SESSION--><g id="cluster_SESSION"><rect fill="none" height="522.5" rx="2.5" ry="2.5" style="stroke:#181818;stroke-width:1.0;" width="408" x="7" y="68"/><text fill="#000000" font-family="sans-serif" font-size="14" font-weight="bold" lengthAdjust="spacing" textLength="105.8135" x="158.0933" y="84.5332">BearingSession</text></g><!--entity SM--><g id="elem_SM"><rect fill="#F1F1F1" height="37.6094" rx="2.5" ry="2.5" style="stroke:#181818;stroke-width:0.5;" width="155.4131" x="110.5" y="112"/><text fill="#000000" font-family="sans-serif" font-size="14" lengthAdjust="spacing" textLength="135.4131" x="120.5" y="136.5332">SessionStateMachine</text></g><!--entity VAL--><g id="elem_VAL"><rect fill="#F1F1F1" height="37.6094" rx="2.5" ry="2.5" style="stroke:#181818;stroke-width:0.5;" width="106.3926" x="135" y="223.5"/><text fill="#000000" font-family="sans-serif" font-size="14" lengthAdjust="spacing" textLength="86.3926" x="145" y="248.0332">InputValidator</text></g><!--entity BC--><g id="elem_BC"><rect fill="#F1F1F1" height="37.6094" rx="2.5" ry="2.5" style="stroke:#181818;stroke-width:0.5;" width="131.2822" x="38.5" y="332.5"/><text fill="#000000" font-family="sans-serif" font-size="14" lengthAdjust="spacing" textLength="111.2822" x="48.5" y="357.0332">BearingCalculator</text></g><!--entity TA--><g id="elem_TA"><rect fill="#F1F1F1" height="37.6094" rx="2.5" ry="2.5" style="stroke:#181818;stroke-width:0.5;" width="124.2686" x="205" y="332.5"/><text fill="#000000" font-family="sans-serif" font-size="14" lengthAdjust="spacing" textLength="104.2686" x="215" y="357.0332">TrackAggregator</text></g><!--entity OC--><g id="elem_OC"><rect fill="#F1F1F1" height="37.6094" rx="2.5" ry="2.5" style="stroke:#181818;stroke-width:0.5;" width="170.958" x="211.5" y="430.5"/><text fill="#000000" font-family="sans-serif" font-size="14" lengthAdjust="spacing" textLength="150.958" x="221.5" y="455.0332">OptimizationCoordinator</text></g><!--entity SA--><g id="elem_SA"><rect fill="#F1F1F1" height="37.6094" rx="2.5" ry="2.5" style="stroke:#181818;stroke-width:0.5;" width="145.2891" x="31.5" y="430.5"/><text fill="#000000" font-family="sans-serif" font-size="14" lengthAdjust="spacing" textLength="125.2891" x="41.5" y="455.0332">SnapshotAssembler</text></g><!--entity EP--><g id="elem_EP"><rect fill="#F1F1F1" height="37.6094" rx="2.5" ry="2.5" style="stroke:#181818;stroke-width:0.5;" width="114.165" x="47" y="528.5"/><text fill="#000000" font-family="sans-serif" font-size="14" lengthAdjust="spacing" textLength="94.165" x="57" y="553.0332">EventPublisher</text></g><!--entity P_HOST--><g id="elem_P_HOST"><ellipse cx="407" cy="14" fill="#F1F1F1" rx="8" ry="8" style="stroke:#181818;stroke-width:0.5;"/><text fill="#000000" font-family="sans-serif" font-size="14" lengthAdjust="spacing" textLength="74.6963" x="369.6519" y="45.5332">HostApiPort</text></g><!--entity P_GPX--><g id="elem_P_GPX"><ellipse cx="491" cy="242.5" fill="#F1F1F1" rx="8" ry="8" style="stroke:#181818;stroke-width:0.5;"/><text fill="#000000" font-family="sans-serif" font-size="14" lengthAdjust="spacing" textLength="88.6758" x="446.6621" y="274.0332">GpxWriterPort</text></g><!--entity P_W3W--><g id="elem_P_W3W"><ellipse cx="632" cy="242.5" fill="#F1F1F1" rx="8" ry="8" style="stroke:#181818;stroke-width:0.5;"/><text fill="#000000" font-family="sans-serif" font-size="14" lengthAdjust="spacing" textLength="92.5791" x="585.7104" y="274.0332">W3wClientPort</text></g><!--entity P_CLK--><g id="elem_P_CLK"><ellipse cx="759" cy="242.5" fill="#F1F1F1" rx="8" ry="8" style="stroke:#181818;stroke-width:0.5;"/><text fill="#000000" font-family="sans-serif" font-size="14" lengthAdjust="spacing" textLength="60.6826" x="728.6587" y="274.0332">ClockPort</text></g><!--entity P_FS--><g id="elem_P_FS"><ellipse cx="877" cy="242.5" fill="#F1F1F1" rx="8" ry="8" style="stroke:#181818;stroke-width:0.5;"/><text fill="#000000" font-family="sans-serif" font-size="14" lengthAdjust="spacing" textLength="75.4688" x="839.2656" y="274.0332">FileSinkPort</text></g><!--entity P_LOG--><g id="elem_P_LOG"><ellipse cx="999" cy="242.5" fill="#F1F1F1" rx="8" ry="8" style="stroke:#181818;stroke-width:0.5;"/><text fill="#000000" font-family="sans-serif" font-size="14" lengthAdjust="spacing" textLength="69.2686" x="964.3657" y="274.0332">LoggerPort</text></g><g id="elem_GMN29"><path d="M442,109.5 L442,152.2031 L789.6377,152.2031 L789.6377,119.5 L779.6377,109.5 L442,109.5 " fill="#FAFAFA" style="stroke:#181818;stroke-width:0.5;"/><path d="M779.6377,109.5 L779.6377,119.5 L789.6377,119.5 L779.6377,109.5 " fill="#FAFAFA" style="stroke:#181818;stroke-width:1.0;"/><text fill="#000000" font-family="sans-serif" font-size="13" lengthAdjust="spacing" textLength="326.6377" x="448" y="127.9951">Interne Komposition der zentralen Session-Komponente.</text><text fill="#000000" font-family="sans-serif" font-size="13" lengthAdjust="spacing" textLength="282.5596" x="448" y="144.3467">Fachlogik bleibt innerhalb der Session gekapselt.</text></g><!--link P_HOST to SESSION--><g id="link_P_HOST_SESSION"><path d="M407,23.27 C407,29.76 407,39.5194 407,50.5459 C407,56.0592 407,55.8893 407,61.7859 " fill="none" id="P_HOST-to-SESSION" style="stroke:#181818;stroke-width:1.0;"/><polygon fill="#181818" points="407,67.7859,411,58.7859,407,62.7859,403,58.7859,407,67.7859" style="stroke:#181818;stroke-width:1.0;"/></g><!--link SESSION to P_GPX--><g id="link_SESSION_P_GPX"><path d="M415.0048,142.4359 C415.0874,142.5435 415.1705,142.6518 415.2541,142.7609 C415.9232,143.633 416.6257,144.5487 417.3588,145.5042 C423.2231,153.1484 431.045,163.3444 439.4025,174.2387 C456.1175,196.0275 471.3236,215.849 480.9486,228.399 " fill="none" id="SESSION-to-P_GPX" style="stroke:#181818;stroke-width:1.0;"/><polygon fill="#181818" points="484.6,233.16,482.2969,223.5842,481.5572,229.1925,475.9489,228.4527,484.6,233.16" style="stroke:#181818;stroke-width:1.0;"/></g><!--link SESSION to P_W3W--><g id="link_SESSION_P_W3W"><path d="M415.0257,142.9228 C415.082,142.9892 415.1385,143.0555 415.1952,143.122 C415.3086,143.2548 415.4229,143.3879 415.538,143.5211 C416.4591,144.5867 417.4341,145.6613 418.4525,146.7131 C420.4894,148.8169 422.7,150.83 425,152.5 C433.8,158.89 578.1304,219.0951 617.2104,235.3551 " fill="none" id="SESSION-to-P_W3W" style="stroke:#181818;stroke-width:1.0;stroke-dasharray:7.0,7.0;"/><polygon fill="#181818" points="622.75,237.66,615.9771,230.5096,618.1336,235.7393,612.904,237.8958,622.75,237.66" style="stroke:#181818;stroke-width:1.0;"/></g><!--link SESSION to P_CLK--><g id="link_SESSION_P_CLK"><path d="M415.0818,143.7543 C415.1387,143.8212 415.1959,143.8881 415.2533,143.9549 C416.1717,145.0248 417.1525,146.0909 418.1881,147.1169 C420.2594,149.1688 422.55,151.06 425,152.5 C534.37,216.73 584.79,169.18 704,212.5 C720.84,218.62 733.8558,225.8624 744.5158,232.4024 " fill="none" id="SESSION-to-P_CLK" style="stroke:#181818;stroke-width:1.0;stroke-dasharray:7.0,7.0;"/><polygon fill="#181818" points="749.63,235.54,744.0504,227.4241,745.3681,232.9253,739.8669,234.2431,749.63,235.54" style="stroke:#181818;stroke-width:1.0;"/></g><!--link SESSION to P_FS--><g id="link_SESSION_P_FS"><path d="M415.002,143.8969 C415.0589,143.9639 415.116,144.0309 415.1733,144.0978 C416.0909,145.1689 417.0732,146.232 418.1136,147.2492 C420.1944,149.2838 422.5075,151.135 425,152.5 C578.78,236.8 647.21,161.5 815,212.5 C834.56,218.44 850.5801,226.5671 862.4301,233.1771 " fill="none" id="SESSION-to-P_FS" style="stroke:#181818;stroke-width:1.0;stroke-dasharray:7.0,7.0;"/><polygon fill="#181818" points="867.67,236.1,861.7587,228.2224,863.3034,233.6643,857.8615,235.209,867.67,236.1" style="stroke:#181818;stroke-width:1.0;"/></g><!--link SESSION to P_LOG--><g id="link_SESSION_P_LOG"><path d="M415.0404,144.0817 C415.0689,144.1152 415.0975,144.1487 415.1262,144.1822 C416.0434,145.2542 417.0266,146.3157 418.0698,147.328 C420.1563,149.3525 422.4825,151.18 425,152.5 C629.06,259.55 718.95,147.4 940,212.5 C958.61,217.98 973.3754,225.8824 984.6554,232.6524 " fill="none" id="SESSION-to-P_LOG" style="stroke:#181818;stroke-width:1.0;stroke-dasharray:7.0,7.0;"/><polygon fill="#181818" points="989.8,235.74,984.1416,227.6788,985.5129,233.167,980.0247,234.5382,989.8,235.74" style="stroke:#181818;stroke-width:1.0;"/></g><!--link SM to VAL--><g id="link_SM_VAL"><path d="M188,150.08 C188,170.37 188,197.09 188,217.39 " fill="none" id="SM-to-VAL" style="stroke:#181818;stroke-width:1.0;"/><polygon fill="#181818" points="188,223.39,192,214.39,188,218.39,184,214.39,188,223.39" style="stroke:#181818;stroke-width:1.0;"/></g><!--link VAL to BC--><g id="link_VAL_BC"><path d="M173.75,261.65 C158.3,281.33 137.4945,307.8302 122.0245,327.5402 " fill="none" id="VAL-to-BC" style="stroke:#181818;stroke-width:1.0;"/><polygon fill="#181818" points="118.32,332.26,127.0233,327.6499,121.4071,328.3268,120.7302,322.7106,118.32,332.26" style="stroke:#181818;stroke-width:1.0;"/></g><!--link VAL to TA--><g id="link_VAL_TA"><path d="M201.4,261.65 C215.93,281.33 235.4165,307.7228 249.9665,327.4328 " fill="none" id="VAL-to-TA" style="stroke:#181818;stroke-width:1.0;"/><polygon fill="#181818" points="253.53,332.26,251.4029,322.6436,250.5605,328.2373,244.9667,327.3948,253.53,332.26" style="stroke:#181818;stroke-width:1.0;"/></g><!--link TA to OC--><g id="link_TA_OC"><path d="M272.64,370.56 C277.97,387.61 284.1423,407.3325 289.4923,424.4725 " fill="none" id="TA-to-OC" style="stroke:#181818;stroke-width:1.0;"/><polygon fill="#181818" points="291.28,430.2,292.4167,420.417,289.7902,425.4271,284.7801,422.8006,291.28,430.2" style="stroke:#181818;stroke-width:1.0;"/></g><!--link BC to SA--><g id="link_BC_SA"><path d="M104,370.56 C104,387.61 104,407.06 104,424.2 " fill="none" id="BC-to-SA" style="stroke:#181818;stroke-width:1.0;"/><polygon fill="#181818" points="104,430.2,108,421.2,104,425.2,100,421.2,104,430.2" style="stroke:#181818;stroke-width:1.0;"/></g><!--link TA to SA--><g id="link_TA_SA"><path d="M236.34,370.56 C207.29,387.67 169.0602,410.1855 139.9702,427.3155 " fill="none" id="TA-to-SA" style="stroke:#181818;stroke-width:1.0;"/><polygon fill="#181818" points="134.8,430.36,144.585,429.24,139.1085,427.8229,140.5256,422.3464,134.8,430.36" style="stroke:#181818;stroke-width:1.0;"/></g><!--link SA to EP--><g id="link_SA_EP"><path d="M104,468.56 C104,485.61 104,505.06 104,522.2 " fill="none" id="SA-to-EP" style="stroke:#181818;stroke-width:1.0;"/><polygon fill="#181818" points="104,528.2,108,519.2,104,523.2,100,519.2,104,528.2" style="stroke:#181818;stroke-width:1.0;"/></g><!--link SESSION to GMN29--><g id="link_SESSION_GMN29"><path d="M415.0303,131 C415.0748,131 415.1194,131 415.1639,131 C415.253,131 415.3422,131 415.4313,131 C415.6095,131 415.7877,131 415.9659,131 C418.8175,131 421.6688,131 424.52,131 C430.2225,131 435.925,131 441.63,131 " fill="none" id="SESSION-GMN29" style="stroke:#181818;stroke-width:1.0;stroke-dasharray:7.0,7.0;"/></g><!--SRC=[LL9TYzim47pNhrZodhpS-u5Zabn8SWueN0gb5CNUo8jboKXAhxtI_rx9NoWFXlNEhBGp8zUGxeGLBRH6cxAsfaNmze7CpOYhHMK-IKku2-LIf3HjPpHgp_qVXM2nz49BXOoHzcZleaHOl1ddiuxEnle520Vddsy5lwICNVVxQYdy9fpT-LjAkRvyveh2JGdb-d9DARaoPPF0-V6GmbjIo4cdZ2rF2KSZvTCAnsB7s2mH5ciKDhZ0qJaokYVn3UVxuXt-Ce3l8y2zy7WIPKqQV_IaKqJtkdlu3w6e4jxO7lZ8ZX4Ppys5AXzg1jTvn2vMb4qcfKKv8vSi8aNdgQKluSELkJ6s8ZqpYdwMQz6vslZCEMnl2WUCzzERNz7BnqsHgqTWSsR_61lIWUNoTHB79f6nDmGpTLQhrp67vqwq_haJh7vkzERoKtzez25yVHraJsNGUSdwAkXPvyDESozKVAZ2uamR7zuVoTg3kS-RxsEw6k4GGtGKhO8ABNm5yLOer31cjZnCCUEARKDsoaXg89X6Dm-aDTfQg5i_F8w0n2RuYygl6EeAuWR_0G00]--></g></svg>