<svg xmlns="http://www.w3.org/2000/svg" xmlns:xlink="http://www.w3.org/1999/xlink" contentStyleType="text/css" height="588px" preserveAspectRatio="none" style="width:546px;height:588px;background:#FFFFFF;" version="1.1" viewBox="0 0 546 588" width="546px" zoomAndPan="magnify"><defs/><g><!--cluster Java-Peilungskomponente--><g id="cluster_Java-Peilungskomponente"><rect fill="none" height="572" rx="2.5" ry="2.5" style="stroke:#181818;stroke-width:1.0;" width="258" x="111" y="7"/><text fill="#000000" font-family="sans-serif" font-size="14" font-weight="bold" lengthAdjust="spacing" textLength="177.3789" x="151.3105" y="23.5332">Java-Peilungskomponente</text></g><g id="elem_UC01"><ellipse cx="240.1938" cy="64.1388" fill="#F1F1F1" rx="91.1938" ry="20.6388" style="stroke:#181818;stroke-width:0.5;"/><text fill="#000000" font-family="sans-serif" font-size="14" lengthAdjust="spacing" textLength="140.8408" x="169.7734" y="67.8673">UC-01 Session starten</text></g><g id="elem_UC02"><ellipse cx="240.0536" cy="140.9107" fill="#F1F1F1" rx="92.5536" ry="20.9107" style="stroke:#181818;stroke-width:0.5;"/><text fill="#000000" font-family="sans-serif" font-size="14" lengthAdjust="spacing" textLength="143.9717" x="168.0678" y="144.6392">UC-02 Positionsupdate</text></g><g id="elem_UC03"><ellipse cx="239.9277" cy="220.1855" fill="#F1F1F1" rx="103.9277" ry="23.1855" style="stroke:#181818;stroke-width:0.5;"/><text fill="#000000" font-family="sans-serif" font-size="14" lengthAdjust="spacing" textLength="169.6406" x="155.1073" y="223.914">UC-03 Peilungswerte lesen</text></g><g id="elem_UC04"><ellipse cx="239.9131" cy="300.7826" fill="#F1F1F1" rx="99.4131" ry="22.2826" style="stroke:#181818;stroke-width:0.5;"/><text fill="#000000" font-family="sans-serif" font-size="14" lengthAdjust="spacing" textLength="159.5508" x="160.1377" y="304.5111">UC-04 Regulaer beenden</text></g><g id="elem_UC05"><ellipse cx="240.103" cy="377.2206" fill="#F1F1F1" rx="79.103" ry="18.2206" style="stroke:#181818;stroke-width:0.5;"/><text fill="#000000" font-family="sans-serif" font-size="14" lengthAdjust="spacing" textLength="112.0615" x="182.6801" y="381.3414">UC-05 Abbrechen</text></g><g id="elem_UC06"><ellipse cx="240.2433" cy="451.2487" fill="#F1F1F1" rx="94.2433" ry="21.2487" style="stroke:#181818;stroke-width:0.5;"/><text fill="#000000" font-family="sans-serif" font-size="14" lengthAdjust="spacing" textLength="147.8408" x="166.3229" y="454.9772">UC-06 GPX exportieren</text></g><g id="elem_UC07"><ellipse cx="240.1472" cy="535.0008" fill="#F1F1F1" rx="113.1472" ry="28.0008" style="stroke:#181818;stroke-width:0.5;"/><text fill="#000000" font-family="sans-serif" font-size="14" lengthAdjust="spacing" textLength="143.165" x="165.5647" y="530.7127">UC-07 W3W aufloesen</text><text fill="#000000" font-family="sans-serif" font-size="14" lengthAdjust="spacing" textLength="58.3652" x="207.9646" y="548.3221">(optional)</text></g><!--entity Host--><g id="elem_Host"><ellipse cx="35.1792" cy="270.5" fill="#F1F1F1" rx="8" ry="8" style="stroke:#181818;stroke-width:0.5;"/><path d="M35.1792,278.5 L35.1792,305.5 M22.1792,286.5 L48.1792,286.5 M35.1792,305.5 L22.1792,320.5 M35.1792,305.5 L48.1792,320.5 " fill="none" style="stroke:#181818;stroke-width:0.5;"/><text fill="#000000" font-family="sans-serif" font-size="14" lengthAdjust="spacing" textLength="58.3584" x="6" y="336.5332">Host-App</text></g><!--entity W3W--><g id="elem_W3W"><ellipse cx="499.4551" cy="496" fill="#F1F1F1" rx="8" ry="8" style="stroke:#181818;stroke-width:0.5;"/><path d="M499.4551,504 L499.4551,531 M486.4551,512 L512.4551,512 M499.4551,531 L486.4551,546 M499.4551,531 L512.4551,546 " fill="none" style="stroke:#181818;stroke-width:0.5;"/><text fill="#000000" font-family="sans-serif" font-size="14" lengthAdjust="spacing" textLength="80.9102" x="459" y="562.0332">What3Words</text><text fill="#000000" font-family="sans-serif" font-size="14" lengthAdjust="spacing" textLength="58.3652" x="459" y="579.6426">(optional)</text></g><!--link Host to UC01--><g id="link_Host_UC01"><path d="M38.52,261.97 C43.52,217.12 58.44,144.28 103,102 C118.12,87.66 132.4137,80.2732 152.4837,74.6332 " fill="none" id="Host-to-UC01" style="stroke:#181818;stroke-width:1.0;"/><polygon fill="#181818" points="158.26,73.01,148.5135,71.594,153.4465,74.3627,150.6778,79.2957,158.26,73.01" style="stroke:#181818;stroke-width:1.0;"/></g><!--link Host to UC02--><g id="link_Host_UC02"><path d="M48.36,261.79 C58.82,234.78 76.4,200.1 103,179 C119.42,165.98 134.2707,159.0224 154.4507,153.3924 " fill="none" id="Host-to-UC02" style="stroke:#181818;stroke-width:1.0;"/><polygon fill="#181818" points="160.23,151.78,150.4861,150.3457,155.4139,153.1236,152.636,158.0514,160.23,151.78" style="stroke:#181818;stroke-width:1.0;"/></g><!--link Host to UC03--><g id="link_Host_UC03"><path d="M64.19,282.07 C75.86,274.8 89.74,266.85 103,261 C124.32,251.59 142.6708,245.2226 164.6108,238.8126 " fill="none" id="Host-to-UC03" style="stroke:#181818;stroke-width:1.0;"/><polygon fill="#181818" points="170.37,237.13,160.6094,235.8144,165.5706,238.5322,162.8529,243.4934,170.37,237.13" style="stroke:#181818;stroke-width:1.0;"/></g><!--link Host to UC04--><g id="link_Host_UC04"><path d="M64.23,301 C84.27,301 106.48,301 134.4,301 " fill="none" id="Host-to-UC04" style="stroke:#181818;stroke-width:1.0;"/><polygon fill="#181818" points="140.4,301,131.4,297,135.4,301,131.4,305,140.4,301" style="stroke:#181818;stroke-width:1.0;"/></g><!--link Host to UC05--><g id="link_Host_UC05"><path d="M64.09,320.16 C75.74,327.46 89.64,335.38 103,341 C127.42,351.28 149.7356,357.9201 174.0756,363.7601 " fill="none" id="Host-to-UC05" style="stroke:#181818;stroke-width:1.0;"/><polygon fill="#181818" points="179.91,365.16,172.0916,359.1706,175.048,363.9934,170.2251,366.9498,179.91,365.16" style="stroke:#181818;stroke-width:1.0;"/></g><!--link Host to UC06--><g id="link_Host_UC06"><path d="M50.83,340.11 C61.82,364.11 79.05,393.66 103,412 C119.87,424.92 135.0972,431.9244 155.4972,437.7044 " fill="none" id="Host-to-UC06" style="stroke:#181818;stroke-width:1.0;"/><polygon fill="#181818" points="161.27,439.34,153.7013,433.0381,156.4594,437.977,151.5204,440.7351,161.27,439.34" style="stroke:#181818;stroke-width:1.0;"/></g><!--link UC07 to W3W--><g id="link_UC07_W3W"><path d="M353.19,535 C390.87,535 424.47,535 452.8,535 " fill="none" id="UC07-to-W3W" style="stroke:#181818;stroke-width:1.0;stroke-dasharray:7.0,7.0;"/><polygon fill="#181818" points="458.8,535,449.8,531,453.8,535,449.8,539,458.8,535" style="stroke:#181818;stroke-width:1.0;"/><text fill="#000000" font-family="sans-serif" font-size="13" lengthAdjust="spacing" textLength="42.6118" x="386" y="531.4951">HTTPS</text></g><!--link Host to UC07--><g id="link_Host_UC07"><path d="M39.93,340.18 C46.19,382.39 62.25,448.9 103,489 C116.06,501.85 127.234,508.9455 144.504,515.6255 " fill="none" id="Host-to-UC07" style="stroke:#181818;stroke-width:1.0;"/><polygon fill="#181818" points="150.1,517.79,143.149,510.8126,145.4367,515.9862,140.263,518.2739,150.1,517.79" style="stroke:#181818;stroke-width:1.0;"/></g><!--SRC=[PP4zRy8m48Pt_ufJfdP81OGFgGCIOYZg51LGEdGvaYEnS6pBvvHALVzxOn2aIST7VlpwlJEVfBRei8RQQ9DNpjG4tZKa-7x25HRcB7K9HrHCGj7HWpVWP5bvAAIZt4kZXS3S6mVHnh2FLzP6W0m1H31GbueWUiLFZ5EIgj4bdqnjZIRjAO9l0T0mvSYjjL_7ep5iYRaD1lReFEbBtduz6W_D2QI6PUZ0ZIqmf5tDoT1CuFRqcTf8KCHTRZAqf_16PQEG71o8TD6fqw4wWzNXq8vPTSviwCpX9Nq7-hB6UKckC-T3Sm5PaW4sHsL2mG_zO6mO3zNZxSv2_DmNdbNeayouWl-PROuGuGyWZfVNvVsbIO-I7arxDElHN8GAyFIql3HzXirkbsvxok8N]--></g></svg>