<svg xmlns="http://www.w3.org/2000/svg" xmlns:xlink="http://www.w3.org/1999/xlink" contentStyleType="text/css" height="823px" preserveAspectRatio="none" style="width:218px;height:823px;background:#FFFFFF;" version="1.1" viewBox="0 0 218 823" width="218px" zoomAndPan="magnify"><defs/><g><ellipse cx="103.7168" cy="20" fill="#222222" rx="10" ry="10" style="stroke:#222222;stroke-width:1.0;"/><rect fill="#F1F1F1" height="35.0938" rx="12.5" ry="12.5" style="stroke:#181818;stroke-width:0.5;" width="185.4336" x="11" y="50"/><text fill="#000000" font-family="sans-serif" font-size="12" lengthAdjust="spacing" textLength="165.4336" x="21" y="72.457">Eingang: onPositionUpdate(fix)</text><rect fill="#F1F1F1" height="35.0938" rx="12.5" ry="12.5" style="stroke:#181818;stroke-width:0.5;" width="158.082" x="24.6758" y="157.6836"/><text fill="#000000" font-family="sans-serif" font-size="12" lengthAdjust="spacing" textLength="138.082" x="34.6758" y="180.1406">werfe ValidationException</text><ellipse cx="103.7168" cy="230.8125" fill="none" rx="11" ry="11" style="stroke:#222222;stroke-width:1.0;"/><ellipse cx="103.7168" cy="230.8125" fill="#222222" rx="6" ry="6" style="stroke:#222222;stroke-width:1.0;"/><polygon fill="#F1F1F1" points="48.9988,105.0938,158.4348,105.0938,170.4348,118.9297,158.4348,132.7656,48.9988,132.7656,36.9988,118.9297,48.9988,105.0938" style="stroke:#181818;stroke-width:0.5;"/><text fill="#000000" font-family="sans-serif" font-size="11" lengthAdjust="spacing" textLength="20.7969" x="107.7168" y="144.1846">nein</text><text fill="#000000" font-family="sans-serif" font-size="11" lengthAdjust="spacing" textLength="52.5884" x="48.9988" y="116.5127">fix gueltig?</text><text fill="#000000" font-family="sans-serif" font-size="11" lengthAdjust="spacing" textLength="109.436" x="48.9988" y="130.3486">WGS84, Zeit plausibel</text><text fill="#000000" font-family="sans-serif" font-size="11" lengthAdjust="spacing" textLength="8.5615" x="170.4348" y="116.5127">ja</text><rect fill="#F1F1F1" height="35.0938" rx="12.5" ry="12.5" style="stroke:#181818;stroke-width:0.5;" width="148.7246" x="29.3545" y="332.7305"/><text fill="#000000" font-family="sans-serif" font-size="12" lengthAdjust="spacing" textLength="128.7246" x="39.3545" y="355.1875">neues trkseg vormerken</text><polygon fill="#F1F1F1" points="59.0776,283.8125,148.356,283.8125,160.356,295.8125,148.356,307.8125,59.0776,307.8125,47.0776,295.8125,59.0776,283.8125" style="stroke:#181818;stroke-width:0.5;"/><text fill="#000000" font-family="sans-serif" font-size="11" lengthAdjust="spacing" textLength="8.5615" x="107.7168" y="319.2314">ja</text><text fill="#000000" font-family="sans-serif" font-size="11" lengthAdjust="spacing" textLength="89.2783" x="59.0776" y="300.3135">Segment-Luecke?</text><polygon fill="#F1F1F1" points="103.7168,387.8242,115.7168,399.8242,103.7168,411.8242,91.7168,399.8242,103.7168,387.8242" style="stroke:#181818;stroke-width:0.5;"/><rect fill="#F1F1F1" height="50.1875" rx="12.5" ry="12.5" style="stroke:#181818;stroke-width:0.5;" width="127.3848" x="40.0244" y="480.7422"/><text fill="#000000" font-family="sans-serif" font-size="12" lengthAdjust="spacing" textLength="107.3848" x="50.0244" y="503.1992">kontrollierter Stopp /</text><text fill="#000000" font-family="sans-serif" font-size="12" lengthAdjust="spacing" textLength="30.6855" x="50.0244" y="518.293">Event</text><polygon fill="#F1F1F1" points="69.7715,431.8242,137.6621,431.8242,149.6621,443.8242,137.6621,455.8242,69.7715,455.8242,57.7715,443.8242,69.7715,431.8242" style="stroke:#181818;stroke-width:0.5;"/><text fill="#000000" font-family="sans-serif" font-size="11" lengthAdjust="spacing" textLength="50.73" x="107.7168" y="467.2432">Hard-Limit</text><text fill="#000000" font-family="sans-serif" font-size="11" lengthAdjust="spacing" textLength="67.8906" x="69.7715" y="448.3252">Punktbudget?</text><text fill="#000000" font-family="sans-serif" font-size="11" lengthAdjust="spacing" textLength="11.6177" x="149.6621" y="441.4072">ok</text><polygon fill="#F1F1F1" points="103.7168,550.9297,115.7168,562.9297,103.7168,574.9297,91.7168,562.9297,103.7168,550.9297" style="stroke:#181818;stroke-width:0.5;"/><rect fill="#F1F1F1" height="50.1875" rx="12.5" ry="12.5" style="stroke:#181818;stroke-width:0.5;" width="133.4141" x="37.0098" y="594.9297"/><text fill="#000000" font-family="sans-serif" font-size="12" lengthAdjust="spacing" textLength="90.0234" x="47.0098" y="617.3867">validierten Fix im</text><text fill="#000000" font-family="sans-serif" font-size="12" lengthAdjust="spacing" textLength="113.4141" x="47.0098" y="632.4805">Rohspeicher ablegen</text><rect fill="#F1F1F1" height="50.1875" rx="12.5" ry="12.5" style="stroke:#181818;stroke-width:0.5;" width="148.707" x="29.3633" y="665.1172"/><text fill="#000000" font-family="sans-serif" font-size="12" lengthAdjust="spacing" textLength="98.7188" x="39.3633" y="687.5742">BearingCalculator:</text><text fill="#000000" font-family="sans-serif" font-size="12" lengthAdjust="spacing" textLength="128.707" x="39.3633" y="702.668">Azimut, Distanz, Ordinal</text><rect fill="#F1F1F1" height="35.0938" rx="12.5" ry="12.5" style="stroke:#181818;stroke-width:0.5;" width="150.752" x="28.3408" y="735.3047"/><text fill="#000000" font-family="sans-serif" font-size="12" lengthAdjust="spacing" textLength="130.752" x="38.3408" y="757.7617">Listener benachrichtigen</text><ellipse cx="103.7168" cy="801.3984" fill="none" rx="11" ry="11" style="stroke:#222222;stroke-width:1.0;"/><ellipse cx="103.7168" cy="801.3984" fill="#222222" rx="6" ry="6" style="stroke:#222222;stroke-width:1.0;"/><line style="stroke:#181818;stroke-width:1.0;" x1="103.7168" x2="103.7168" y1="30" y2="50"/><polygon fill="#181818" points="99.7168,40,103.7168,50,107.7168,40,103.7168,44" style="stroke:#181818;stroke-width:1.0;"/><line style="stroke:#181818;stroke-width:1.0;" x1="103.7168" x2="103.7168" y1="192.7773" y2="219.8125"/><polygon fill="#181818" points="99.7168,209.8125,103.7168,219.8125,107.7168,209.8125,103.7168,213.8125" style="stroke:#181818;stroke-width:1.0;"/><line style="stroke:#181818;stroke-width:1.0;" x1="103.7168" x2="103.7168" y1="132.7656" y2="157.6836"/><polygon fill="#181818" points="99.7168,147.6836,103.7168,157.6836,107.7168,147.6836,103.7168,151.6836" style="stroke:#181818;stroke-width:1.0;"/><line style="stroke:#181818;stroke-width:1.0;" x1="170.4348" x2="192.7578" y1="118.9297" y2="118.9297"/><polygon fill="#181818" points="188.7578,189.8125,192.7578,199.8125,196.7578,189.8125,192.7578,193.8125" style="stroke:#181818;stroke-width:1.0;"/><line style="stroke:#181818;stroke-width:1.0;" x1="192.7578" x2="192.7578" y1="118.9297" y2="263.8125"/><line style="stroke:#181818;stroke-width:1.0;" x1="192.7578" x2="103.7168" y1="263.8125" y2="263.8125"/><line style="stroke:#181818;stroke-width:1.0;" x1="103.7168" x2="103.7168" y1="263.8125" y2="283.8125"/><polygon fill="#181818" points="99.7168,273.8125,103.7168,283.8125,107.7168,273.8125,103.7168,277.8125" style="stroke:#181818;stroke-width:1.0;"/><line style="stroke:#181818;stroke-width:1.0;" x1="103.7168" x2="103.7168" y1="85.0938" y2="105.0938"/><polygon fill="#181818" points="99.7168,95.0938,103.7168,105.0938,107.7168,95.0938,103.7168,99.0938" style="stroke:#181818;stroke-width:1.0;"/><line style="stroke:#181818;stroke-width:1.0;" x1="103.7168" x2="103.7168" y1="307.8125" y2="332.7305"/><polygon fill="#181818" points="99.7168,322.7305,103.7168,332.7305,107.7168,322.7305,103.7168,326.7305" style="stroke:#181818;stroke-width:1.0;"/><line style="stroke:#181818;stroke-width:1.0;" x1="160.356" x2="188.0791" y1="295.8125" y2="295.8125"/><polygon fill="#181818" points="184.0791,340.2773,188.0791,350.2773,192.0791,340.2773,188.0791,344.2773" style="stroke:#181818;stroke-width:1.0;"/><line style="stroke:#181818;stroke-width:1.0;" x1="188.0791" x2="188.0791" y1="295.8125" y2="399.8242"/><line style="stroke:#181818;stroke-width:1.0;" x1="188.0791" x2="115.7168" y1="399.8242" y2="399.8242"/><polygon fill="#181818" points="125.7168,395.8242,115.7168,399.8242,125.7168,403.8242,121.7168,399.8242" style="stroke:#181818;stroke-width:1.0;"/><line style="stroke:#181818;stroke-width:1.0;" x1="103.7168" x2="103.7168" y1="367.8242" y2="387.8242"/><polygon fill="#181818" points="99.7168,377.8242,103.7168,387.8242,107.7168,377.8242,103.7168,381.8242" style="stroke:#181818;stroke-width:1.0;"/><line style="stroke:#181818;stroke-width:1.0;" x1="103.7168" x2="103.7168" y1="455.8242" y2="480.7422"/><polygon fill="#181818" points="99.7168,470.7422,103.7168,480.7422,107.7168,470.7422,103.7168,474.7422" style="stroke:#181818;stroke-width:1.0;"/><line style="stroke:#181818;stroke-width:1.0;" x1="149.6621" x2="177.4092" y1="443.8242" y2="443.8242"/><polygon fill="#181818" points="173.4092,495.8359,177.4092,505.8359,181.4092,495.8359,177.4092,499.8359" style="stroke:#181818;stroke-width:1.0;"/><line style="stroke:#181818;stroke-width:1.0;" x1="177.4092" x2="177.4092" y1="443.8242" y2="562.9297"/><line style="stroke:#181818;stroke-width:1.0;" x1="177.4092" x2="115.7168" y1="562.9297" y2="562.9297"/><polygon fill="#181818" points="125.7168,558.9297,115.7168,562.9297,125.7168,566.9297,121.7168,562.9297" style="stroke:#181818;stroke-width:1.0;"/><line style="stroke:#181818;stroke-width:1.0;" x1="103.7168" x2="103.7168" y1="530.9297" y2="550.9297"/><polygon fill="#181818" points="99.7168,540.9297,103.7168,550.9297,107.7168,540.9297,103.7168,544.9297" style="stroke:#181818;stroke-width:1.0;"/><line style="stroke:#181818;stroke-width:1.0;" x1="103.7168" x2="103.7168" y1="411.8242" y2="431.8242"/><polygon fill="#181818" points="99.7168,421.8242,103.7168,431.8242,107.7168,421.8242,103.7168,425.8242" style="stroke:#181818;stroke-width:1.0;"/><line style="stroke:#181818;stroke-width:1.0;" x1="103.7168" x2="103.7168" y1="574.9297" y2="594.9297"/><polygon fill="#181818" points="99.7168,584.9297,103.7168,594.9297,107.7168,584.9297,103.7168,588.9297" style="stroke:#181818;stroke-width:1.0;"/><line style="stroke:#181818;stroke-width:1.0;" x1="103.7168" x2="103.7168" y1="645.1172" y2="665.1172"/><polygon fill="#181818" points="99.7168,655.1172,103.7168,665.1172,107.7168,655.1172,103.7168,659.1172" style="stroke:#181818;stroke-width:1.0;"/><line style="stroke:#181818;stroke-width:1.0;" x1="103.7168" x2="103.7168" y1="715.3047" y2="735.3047"/><polygon fill="#181818" points="99.7168,725.3047,103.7168,735.3047,107.7168,725.3047,103.7168,729.3047" style="stroke:#181818;stroke-width:1.0;"/><line style="stroke:#181818;stroke-width:1.0;" x1="103.7168" x2="103.7168" y1="770.3984" y2="790.3984"/><polygon fill="#181818" points="99.7168,780.3984,103.7168,790.3984,107.7168,780.3984,103.7168,784.3984" style="stroke:#181818;stroke-width:1.0;"/><!--SRC=[HP4zRy9038Rt_0gF886wTAZ2WFf1sm6fgAYjLB4uYPEukVYYEnyWVdqTLEXc-UFnwzUnOnamO0-z5r-smVS46X9byLg9BLR-mD90ZIvQHJ5ebgyiWzBau6NZ8ojx-HWgL9hKV9mkCgvXZA19v9IRvKw-NhPtjpFu9bOO7AR81RafQ4i24o6MQGQG7oZK19_es606NHrB6iPWOTMeViZ8LC3a1wSPISNrUTEMcfv4v-j4PKVB2tLiCgPGecXtTP4QsFlGK-Z8WF_pcoIT5gbgIA_3hnYg-PfxrZEaywB1EySKb09iJSe0DpjPxMtnua-LxowgylrumhbPuDcCu7udxxwD0t7P6W0BHyse8dyW3ERc8xeoELGVyftSdxXFEeCdDh_bD8EtKB6Wi_QrfKYCK92W_SnmPl186ktv1G00]--></g></svg>