<svg xmlns="http://www.w3.org/2000/svg" xmlns:xlink="http://www.w3.org/1999/xlink" contentStyleType="text/css" height="616px" preserveAspectRatio="none" style="width:216px;height:616px;background:#FFFFFF;" version="1.1" viewBox="0 0 216 616" width="216px" zoomAndPan="magnify"><defs/><g><ellipse cx="100.3711" cy="20" fill="#222222" rx="10" ry="10" style="stroke:#222222;stroke-width:1;"/><rect fill="#F1F1F1" height="35.0938" rx="12.5" ry="12.5" style="stroke:#181818;stroke-width:0.5;" width="178.7422" x="11" y="50"/><text fill="#000000" font-family="sans-serif" font-size="12" lengthAdjust="spacing" textLength="158.7422" x="21" y="72.457">Rohtrack immutable snapshot</text><rect fill="#F1F1F1" height="35.0938" rx="12.5" ry="12.5" style="stroke:#181818;stroke-width:0.5;" width="163.4082" x="18.667" y="105.0938"/><text fill="#000000" font-family="sans-serif" font-size="12" lengthAdjust="spacing" textLength="143.4082" x="28.667" y="127.5508">Strategie: jeder n-ter Punkt</text><rect fill="#F1F1F1" height="35.0938" rx="12.5" ry="12.5" style="stroke:#181818;stroke-width:0.5;" width="159.418" x="20.6621" y="160.1875"/><text fill="#000000" font-family="sans-serif" font-size="12" lengthAdjust="spacing" textLength="139.418" x="30.6621" y="182.6445">Strategie: Mindestabstand</text><rect fill="#F1F1F1" height="35.0938" rx="12.5" ry="12.5" style="stroke:#181818;stroke-width:0.5;" width="172.0684" x="14.3369" y="215.2813"/><text fill="#000000" font-family="sans-serif" font-size="12" lengthAdjust="spacing" textLength="152.0684" x="24.3369" y="237.7383">Strategie: Geraden-Heuristik</text><rect fill="#F1F1F1" height="35.0938" rx="12.5" ry="12.5" style="stroke:#181818;stroke-width:0.5;" width="159.4121" x="20.665" y="319.293"/><text fill="#000000" font-family="sans-serif" font-size="12" lengthAdjust="spacing" textLength="139.4121" x="30.665" y="341.75">Vereinfachung mit Epsilon</text><polygon fill="#F1F1F1" points="42.2881,270.375,158.4541,270.375,170.4541,282.375,158.4541,294.375,42.2881,294.375,30.2881,282.375,42.2881,270.375" style="stroke:#181818;stroke-width:0.5;"/><text fill="#000000" font-family="sans-serif" font-size="11" lengthAdjust="spacing" textLength="8.5615" x="104.3711" y="305.7939">ja</text><text fill="#000000" font-family="sans-serif" font-size="11" lengthAdjust="spacing" textLength="116.166" x="42.2881" y="286.876">Douglas-Peucker aktiv?</text><text fill="#000000" font-family="sans-serif" font-size="11" lengthAdjust="spacing" textLength="20.7969" x="170.4541" y="279.958">nein</text><polygon fill="#F1F1F1" points="100.3711,374.3867,112.3711,386.3867,100.3711,398.3867,88.3711,386.3867,100.3711,374.3867" style="stroke:#181818;stroke-width:0.5;"/><rect fill="#F1F1F1" height="35.0938" rx="12.5" ry="12.5" style="stroke:#181818;stroke-width:0.5;" width="136.7422" x="32" y="418.3867"/><text fill="#000000" font-family="sans-serif" font-size="12" lengthAdjust="spacing" textLength="116.7422" x="42" y="440.8438">Metadaten anreichern</text><rect fill="#F1F1F1" height="35.0938" rx="12.5" ry="12.5" style="stroke:#181818;stroke-width:0.5;" width="157.0918" x="21.8252" y="473.4805"/><text fill="#000000" font-family="sans-serif" font-size="12" lengthAdjust="spacing" textLength="137.0918" x="31.8252" y="495.9375">XML erzeugen + escapen</text><rect fill="#F1F1F1" height="35.0938" rx="12.5" ry="12.5" style="stroke:#181818;stroke-width:0.5;" width="126.7168" x="37.0127" y="528.5742"/><text fill="#000000" font-family="sans-serif" font-size="12" lengthAdjust="spacing" textLength="106.7168" x="47.0127" y="551.0313">String / byte[] liefern</text><ellipse cx="100.3711" cy="594.668" fill="none" rx="11" ry="11" style="stroke:#222222;stroke-width:1;"/><ellipse cx="100.3711" cy="594.668" fill="#222222" rx="6" ry="6" style="stroke:#222222;stroke-width:1;"/><line style="stroke:#181818;stroke-width:1;" x1="100.3711" x2="100.3711" y1="30" y2="50"/><polygon fill="#181818" points="96.3711,40,100.3711,50,104.3711,40,100.3711,44" style="stroke:#181818;stroke-width:1;"/><line style="stroke:#181818;stroke-width:1;" x1="100.3711" x2="100.3711" y1="85.0938" y2="105.0938"/><polygon fill="#181818" points="96.3711,95.0938,100.3711,105.0938,104.3711,95.0938,100.3711,99.0938" style="stroke:#181818;stroke-width:1;"/><line style="stroke:#181818;stroke-width:1;" x1="100.3711" x2="100.3711" y1="140.1875" y2="160.1875"/><polygon fill="#181818" points="96.3711,150.1875,100.3711,160.1875,104.3711,150.1875,100.3711,154.1875" style="stroke:#181818;stroke-width:1;"/><line style="stroke:#181818;stroke-width:1;" x1="100.3711" x2="100.3711" y1="195.2813" y2="215.2813"/><polygon fill="#181818" points="96.3711,205.2813,100.3711,215.2813,104.3711,205.2813,100.3711,209.2813" style="stroke:#181818;stroke-width:1;"/><line style="stroke:#181818;stroke-width:1;" x1="100.3711" x2="100.3711" y1="294.375" y2="319.293"/><polygon fill="#181818" points="96.3711,309.293,100.3711,319.293,104.3711,309.293,100.3711,313.293" style="stroke:#181818;stroke-width:1;"/><line style="stroke:#181818;stroke-width:1;" x1="170.4541" x2="190.0771" y1="282.375" y2="282.375"/><polygon fill="#181818" points="186.0771,326.8398,190.0771,336.8398,194.0771,326.8398,190.0771,330.8398" style="stroke:#181818;stroke-width:1;"/><line style="stroke:#181818;stroke-width:1;" x1="190.0771" x2="190.0771" y1="282.375" y2="386.3867"/><line style="stroke:#181818;stroke-width:1;" x1="190.0771" x2="112.3711" y1="386.3867" y2="386.3867"/><polygon fill="#181818" points="122.3711,382.3867,112.3711,386.3867,122.3711,390.3867,118.3711,386.3867" style="stroke:#181818;stroke-width:1;"/><line style="stroke:#181818;stroke-width:1;" x1="100.3711" x2="100.3711" y1="354.3867" y2="374.3867"/><polygon fill="#181818" points="96.3711,364.3867,100.3711,374.3867,104.3711,364.3867,100.3711,368.3867" style="stroke:#181818;stroke-width:1;"/><line style="stroke:#181818;stroke-width:1;" x1="100.3711" x2="100.3711" y1="250.375" y2="270.375"/><polygon fill="#181818" points="96.3711,260.375,100.3711,270.375,104.3711,260.375,100.3711,264.375" style="stroke:#181818;stroke-width:1;"/><line style="stroke:#181818;stroke-width:1;" x1="100.3711" x2="100.3711" y1="398.3867" y2="418.3867"/><polygon fill="#181818" points="96.3711,408.3867,100.3711,418.3867,104.3711,408.3867,100.3711,412.3867" style="stroke:#181818;stroke-width:1;"/><line style="stroke:#181818;stroke-width:1;" x1="100.3711" x2="100.3711" y1="453.4805" y2="473.4805"/><polygon fill="#181818" points="96.3711,463.4805,100.3711,473.4805,104.3711,463.4805,100.3711,467.4805" style="stroke:#181818;stroke-width:1;"/><line style="stroke:#181818;stroke-width:1;" x1="100.3711" x2="100.3711" y1="508.5742" y2="528.5742"/><polygon fill="#181818" points="96.3711,518.5742,100.3711,528.5742,104.3711,518.5742,100.3711,522.5742" style="stroke:#181818;stroke-width:1;"/><line style="stroke:#181818;stroke-width:1;" x1="100.3711" x2="100.3711" y1="563.668" y2="583.668"/><polygon fill="#181818" points="96.3711,573.668,100.3711,583.668,104.3711,573.668,100.3711,577.668" style="stroke:#181818;stroke-width:1;"/><!--SRC=[NP0nImH138Nx-HKfxv33Vg-mKRJmG1H448lSpjkTtEvcbfcCeh_Ug21eaJHVtijBwYIwSk65bgovJoKl82iDeVwIcZZcDz6H1fwh4-DYeRlFoGht4ycoDEFZ3AhAQqtPzg5xS6OO1HsT4558T-Rzhkdq3nz48zppwANnBxj6uGZTtQ0LgIRJFiX0cylSnfdhxWwjdzoL9vFNYorPWjBcnDj0r3sYG7JWFZMFleZHrLfbpheFy3Deeuwt0Hfb2Dq1nj7NAh6whayeFjWz7Mu9vGDjT796g3slq9-GNnyvf-ExuVc5Pi7mBQcMrqy0]--></g></svg>