<svg xmlns="http://www.w3.org/2000/svg" xmlns:xlink="http://www.w3.org/1999/xlink" contentStyleType="text/css" height="416px" preserveAspectRatio="none" style="width:363px;height:416px;background:#FFFFFF;" version="1.1" viewBox="0 0 363 416" width="363px" zoomAndPan="magnify"><defs/><g><ellipse cx="115.26" cy="16" fill="#222222" rx="10" ry="10" style="stroke:#222222;stroke-width:1.0;"/><g id="IDLE"><rect fill="#F1F1F1" height="50" rx="12.5" ry="12.5" style="stroke:#181818;stroke-width:0.5;" width="51.124" x="89.76" y="104"/><line style="stroke:#181818;stroke-width:0.5;" x1="89.76" x2="140.884" y1="131.6094" y2="131.6094"/><text fill="#000000" font-family="sans-serif" font-size="14" lengthAdjust="spacing" textLength="31.124" x="99.76" y="123.5332">IDLE</text></g><g id="ACTIVE"><rect fill="#F1F1F1" height="50" rx="12.5" ry="12.5" style="stroke:#181818;stroke-width:0.5;" width="70.5654" x="79.76" y="232"/><line style="stroke:#181818;stroke-width:0.5;" x1="79.76" x2="150.3254" y1="259.6094" y2="259.6094"/><text fill="#000000" font-family="sans-serif" font-size="14" lengthAdjust="spacing" textLength="50.5654" x="89.76" y="251.5332">ACTIVE</text></g><g id="COMPLETED"><rect fill="#F1F1F1" height="50" rx="12.5" ry="12.5" style="stroke:#181818;stroke-width:0.5;" width="107.124" x="24.76" y="360"/><line style="stroke:#181818;stroke-width:0.5;" x1="24.76" x2="131.884" y1="387.6094" y2="387.6094"/><text fill="#000000" font-family="sans-serif" font-size="14" lengthAdjust="spacing" textLength="87.124" x="34.76" y="379.5332">COMPLETED</text></g><g id="ABORTED"><rect fill="#F1F1F1" height="50" rx="12.5" ry="12.5" style="stroke:#181818;stroke-width:0.5;" width="87.6758" x="181.26" y="360"/><line style="stroke:#181818;stroke-width:0.5;" x1="181.26" x2="268.9358" y1="387.6094" y2="387.6094"/><text fill="#000000" font-family="sans-serif" font-size="14" lengthAdjust="spacing" textLength="67.6758" x="191.26" y="379.5332">ABORTED</text></g><!--link *start* to IDLE--><g id="link_*start*_IDLE"><path d="M115.26,26.08 C115.26,42.86 115.26,73.22 115.26,97.65 " fill="none" id="*start*-to-IDLE" style="stroke:#181818;stroke-width:1.0;"/><polygon fill="#181818" points="115.26,103.65,119.26,94.65,115.26,98.65,111.26,94.65,115.26,103.65" style="stroke:#181818;stroke-width:1.0;"/><text fill="#000000" font-family="sans-serif" font-size="13" lengthAdjust="spacing" textLength="88.8862" x="116.26" y="70.4951">Instanz erzeugt</text></g><!--link IDLE to ACTIVE--><g id="link_IDLE_ACTIVE"><path d="M115.26,154.29 C115.26,176.61 115.26,203.49 115.26,225.78 " fill="none" id="IDLE-to-ACTIVE" style="stroke:#181818;stroke-width:1.0;"/><polygon fill="#181818" points="115.26,231.78,119.26,222.78,115.26,226.78,111.26,222.78,115.26,231.78" style="stroke:#181818;stroke-width:1.0;"/><text fill="#000000" font-family="sans-serif" font-size="13" lengthAdjust="spacing" textLength="80.1899" x="116.26" y="198.4951">startSession()</text></g><!--link ACTIVE to ACTIVE--><g id="link_ACTIVE_ACTIVE"><path d="M150.81,245.42 C169.2,243.64 185.76,247.5 185.76,257 C185.76,266.5 175.1721,270.938 156.7821,269.158 " fill="none" id="ACTIVE-to-ACTIVE" style="stroke:#181818;stroke-width:1.0;"/><polygon fill="#181818" points="150.81,268.58,159.3828,273.4285,155.7867,269.0617,160.1535,265.4657,150.81,268.58" style="stroke:#181818;stroke-width:1.0;"/><text fill="#000000" font-family="sans-serif" font-size="13" lengthAdjust="spacing" textLength="111.2871" x="191.76" y="254.4951">onPositionUpdate()</text><text fill="#000000" font-family="sans-serif" font-size="13" lengthAdjust="spacing" textLength="106.9453" x="193.9309" y="270.8467">onCourseUpdate()</text></g><!--link ACTIVE to COMPLETED--><g id="link_ACTIVE_COMPLETED"><path d="M108.13,282.29 C101.58,304.61 93.6092,331.7327 87.0692,354.0227 " fill="none" id="ACTIVE-to-COMPLETED" style="stroke:#181818;stroke-width:1.0;"/><polygon fill="#181818" points="85.38,359.78,91.752,352.2702,86.7877,354.9822,84.0756,350.0179,85.38,359.78" style="stroke:#181818;stroke-width:1.0;"/><text fill="#000000" font-family="sans-serif" font-size="13" lengthAdjust="spacing" textLength="61.4072" x="100.26" y="326.4951">complete()</text></g><!--link ACTIVE to ABORTED--><g id="link_ACTIVE_ABORTED"><path d="M141.22,282.01 C150.66,291.12 161.23,301.77 170.26,312 C183.8,327.33 194.2281,340.807 204.7081,355.137 " fill="none" id="ACTIVE-to-ABORTED" style="stroke:#181818;stroke-width:1.0;"/><polygon fill="#181818" points="208.25,359.98,206.1659,350.3542,205.2984,355.9441,199.7085,355.0767,208.25,359.98" style="stroke:#181818;stroke-width:1.0;"/><text fill="#000000" font-family="sans-serif" font-size="13" lengthAdjust="spacing" textLength="38.2891" x="186.26" y="326.4951">abort()</text></g><!--link COMPLETED to IDLE--><g id="link_COMPLETED_IDLE"><path d="M58.6,359.93 C36.55,329.87 6,276.92 23.26,232 C36.44,197.72 62.4341,171.5911 84.7341,153.1711 " fill="none" id="COMPLETED-to-IDLE" style="stroke:#181818;stroke-width:1.0;"/><polygon fill="#181818" points="89.36,149.35,79.8737,151.9976,85.505,152.5342,84.9685,158.1656,89.36,149.35" style="stroke:#181818;stroke-width:1.0;"/><text fill="#000000" font-family="sans-serif" font-size="13" lengthAdjust="spacing" textLength="37.5591" x="24.26" y="262.4951">reset()</text></g><!--link ABORTED to IDLE--><g id="link_ABORTED_IDLE"><path d="M255.12,359.98 C288.94,329.75 336.08,276.39 309.26,232 C272.18,170.6 190.3902,145.6075 146.7402,136.0175 " fill="none" id="ABORTED-to-IDLE" style="stroke:#181818;stroke-width:1.0;"/><polygon fill="#181818" points="140.88,134.73,148.812,140.5681,145.7635,135.8029,150.5287,132.7544,140.88,134.73" style="stroke:#181818;stroke-width:1.0;"/><text fill="#000000" font-family="sans-serif" font-size="13" lengthAdjust="spacing" textLength="37.5591" x="318.26" y="262.4951">reset()</text></g><!--SRC=[POx12e9054NtynMppC0VQ16OkX0CfQnDjPZqfPA-9_D60hy-hIohxJtdmELhYOtIgfOr8QM5fXgaqIq8VXCkL4Qt4dDvKHM348VvIThsKWPUwCk5392Dmaw2xg3DZNZC0tVS9DWFHi-rsG9pIJYpn6l_KWXZujBqmgx9b86PTKH2brhDC2xJq8tMSUWdljUtATLD1R-6iuesJwxEf4qFFytalGQ60OxwFxe3]--></g></svg>