<svg xmlns="http://www.w3.org/2000/svg" xmlns:xlink="http://www.w3.org/1999/xlink" contentStyleType="text/css" height="608px" preserveAspectRatio="none" style="width:757px;height:608px;background:#FFFFFF;" version="1.1" viewBox="0 0 757 608" width="757px" zoomAndPan="magnify"><defs/><g><!--cluster DEVICE--><g id="cluster_DEVICE"><polygon fill="none" points="16,128,26,118,498,118,498,502,488,512,16,512,16,128" style="stroke:#181818;stroke-width:1.0;"/><line style="stroke:#181818;stroke-width:1.0;" x1="488" x2="498" y1="128" y2="118"/><line style="stroke:#181818;stroke-width:1.0;" x1="16" x2="488" y1="128" y2="128"/><line style="stroke:#181818;stroke-width:1.0;" x1="488" x2="488" y1="128" y2="512"/><text fill="#000000" font-family="sans-serif" font-size="14" font-weight="bold" lengthAdjust="spacing" textLength="136.1514" x="184.9243" y="145.5332">Endgeraet / Rechner</text></g><!--cluster JVM--><g id="cluster_JVM"><polygon fill="none" points="40,177,50,167,474,167,474,374,464,384,40,384,40,177" style="stroke:#181818;stroke-width:1.0;"/><line style="stroke:#181818;stroke-width:1.0;" x1="464" x2="474" y1="177" y2="167"/><line style="stroke:#181818;stroke-width:1.0;" x1="40" x2="464" y1="177" y2="177"/><line style="stroke:#181818;stroke-width:1.0;" x1="464" x2="464" y1="177" y2="384"/><text fill="#000000" font-family="sans-serif" font-size="14" font-weight="bold" lengthAdjust="spacing" textLength="87.1445" x="209.4277" y="194.5332">JVM-Prozess</text></g><!--entity FS--><g id="elem_FS"><polygon fill="#F1F1F1" points="146.5,458,156.5,448,315.665,448,315.665,485.6094,305.665,495.6094,146.5,495.6094,146.5,458" style="stroke:#181818;stroke-width:0.5;"/><line style="stroke:#181818;stroke-width:0.5;" x1="305.665" x2="315.665" y1="458" y2="448"/><line style="stroke:#181818;stroke-width:0.5;" x1="146.5" x2="305.665" y1="458" y2="458"/><line style="stroke:#181818;stroke-width:0.5;" x1="305.665" x2="305.665" y1="458" y2="495.6094"/><text fill="#000000" font-family="sans-serif" font-size="14" lengthAdjust="spacing" textLength="129.165" x="161.5" y="482.5332">Lokales Dateisystem</text></g><!--entity HOST--><g id="elem_HOST"><rect fill="#F1F1F1" height="40.6094" rx="2.5" ry="2.5" style="stroke:#181818;stroke-width:0.5;" width="137.3994" x="109.5" y="208"/><polygon fill="#F1F1F1" points="229.8994,213,229.8994,227,241.8994,227,241.8994,219,235.8994,213,229.8994,213" style="stroke:#181818;stroke-width:0.5;"/><line style="stroke:#181818;stroke-width:0.5;" x1="235.8994" x2="235.8994" y1="213" y2="219"/><line style="stroke:#181818;stroke-width:0.5;" x1="241.8994" x2="235.8994" y1="219" y2="219"/><text fill="#000000" font-family="sans-serif" font-size="14" lengthAdjust="spacing" textLength="107.3994" x="119.5" y="235.5332">Host-Anwendung</text></g><!--entity LIB--><g id="elem_LIB"><rect fill="#F1F1F1" height="40.6094" rx="2.5" ry="2.5" style="stroke:#181818;stroke-width:0.5;" width="194.9922" x="133.5" y="327"/><polygon fill="#F1F1F1" points="311.4922,332,311.4922,346,323.4922,346,323.4922,338,317.4922,332,311.4922,332" style="stroke:#181818;stroke-width:0.5;"/><line style="stroke:#181818;stroke-width:0.5;" x1="317.4922" x2="317.4922" y1="332" y2="338"/><line style="stroke:#181818;stroke-width:0.5;" x1="323.4922" x2="317.4922" y1="338" y2="338"/><text fill="#000000" font-family="sans-serif" font-size="14" lengthAdjust="spacing" textLength="164.9922" x="143.5" y="354.5332">Java-Peilungskomponente</text></g><!--entity GNSS--><g id="elem_GNSS"><polygon fill="#F1F1F1" points="61.5,16,71.5,6,294.458,6,294.458,43.6094,284.458,53.6094,61.5,53.6094,61.5,16" style="stroke:#181818;stroke-width:0.5;"/><line style="stroke:#181818;stroke-width:0.5;" x1="284.458" x2="294.458" y1="16" y2="6"/><line style="stroke:#181818;stroke-width:0.5;" x1="61.5" x2="284.458" y1="16" y2="16"/><line style="stroke:#181818;stroke-width:0.5;" x1="284.458" x2="284.458" y1="16" y2="53.6094"/><text fill="#000000" font-family="sans-serif" font-size="14" lengthAdjust="spacing" textLength="192.958" x="76.5" y="40.5332">GNSS/Sensorstack (hostseitig)</text></g><!--entity W3W--><g id="elem_W3W"><path d="M522.611,456.5133 C526.4888,450.4558 530.4805,448.9403 535.7801,454.9634 C540.3907,450.1847 544.5769,450.1598 548.2327,456.0752 C550.4244,449.445 555.9937,449.4877 560.0811,454.0723 C563.0445,448.0751 569.1459,448.0963 572.5751,453.5647 C575.2035,446.8021 580.3992,446.2779 584.9909,451.5371 C588.441,447.1814 594.0428,446.4149 596.5465,452.5769 C600.6237,446.5212 606.0026,446.2856 609.5234,453.1363 C613.3184,448.5639 619.2726,449.5564 621.6596,454.8657 C626.0359,449.5064 630.8113,450.2739 633.8092,456.3325 C638.0482,451.3319 641.2606,452.4149 644.7211,457.2005 C653.4732,459.0265 655.3653,465.2678 649.8531,472.0301 C657.2928,479.5901 654.0411,484.2538 645.9278,487.9881 C642.8876,496.0341 637.2682,496.2052 631.8586,490.3936 C628.4435,495.3221 623.76,495.4239 621.1756,489.5704 C618.3323,495.903 613.558,496.4071 609.6431,490.5873 C606.4868,497.4181 600.1401,495.9198 596.853,490.7265 C593.946,497.1282 587.9699,496.5773 584.4535,491.3778 C581.1676,498.0855 576.2633,496.8433 572.5058,491.8598 C567.2249,498.0593 562.3099,496.7826 559.0527,489.7953 C555.0084,495.721 550.8323,495.6446 547.3761,489.2385 C543.8675,495.6287 538.721,495.8593 534.7461,489.708 C530.8997,493.9632 527.3689,494.7491 524.1685,489.0233 C513.2949,488.0687 509.8697,482.5358 513.64,472.3398 C507.5435,463.1815 512.4633,456.4637 522.611,456.5133 " fill="#F1F1F1" style="stroke:#181818;stroke-width:0.5;"/><text fill="#000000" font-family="sans-serif" font-size="14" lengthAdjust="spacing" textLength="107.3652" x="529.5" y="477.5332">What3Words API</text></g><g id="elem_GMN14"><path d="M415.5,559 L415.5,601.7031 A0,0 0 0 0 415.5,601.7031 L750.8486,601.7031 A0,0 0 0 0 750.8486,601.7031 L750.8486,569 L740.8486,559 L587,559 L583,496.11 L579,559 L415.5,559 A0,0 0 0 0 415.5,559 " fill="#FAFAFA" style="stroke:#181818;stroke-width:0.5;"/><path d="M740.8486,559 L740.8486,569 L750.8486,569 L740.8486,559 " fill="#FAFAFA" style="stroke:#181818;stroke-width:0.5;"/><text fill="#000000" font-family="sans-serif" font-size="13" lengthAdjust="spacing" textLength="314.3486" x="421.5" y="577.4951">Keine direkte Hardwaresteuerung durch die Bibliothek.</text><text fill="#000000" font-family="sans-serif" font-size="13" lengthAdjust="spacing" textLength="247.8569" x="421.5" y="593.8467">Netzwerkzugriff ist optional und entkoppelt.</text></g><!--link GNSS to HOST--><g id="link_GNSS_HOST"><path d="M178,54.31 C178,93.35 178,165.25 178,201.76 " fill="none" id="GNSS-to-HOST" style="stroke:#181818;stroke-width:1.0;"/><polygon fill="#181818" points="178,207.76,182,198.76,178,202.76,174,198.76,178,207.76" style="stroke:#181818;stroke-width:1.0;"/><text fill="#000000" font-family="sans-serif" font-size="13" lengthAdjust="spacing" textLength="145.2534" x="179" y="98.4951">Positions- und Kursdaten</text></g><!--link HOST to LIB--><g id="link_HOST_LIB"><path d="M119.69,249.1 C94.63,260.82 73.95,277.27 88,297 C99.12,312.62 109.9873,321.0625 127.7673,328.4325 " fill="none" id="HOST-to-LIB" style="stroke:#181818;stroke-width:1.0;"/><polygon fill="#181818" points="133.31,330.73,126.5276,323.5886,128.6911,328.8154,123.4643,330.9789,133.31,330.73" style="stroke:#181818;stroke-width:1.0;"/><text fill="#000000" font-family="sans-serif" font-size="13" lengthAdjust="spacing" textLength="98.2681" x="89" y="293.4951">Java-API Aufrufe</text></g><!--link LIB to HOST--><g id="link_LIB_HOST"><path d="M222.1,326.85 C212.31,305.23 199.1248,276.1458 189.3448,254.5458 " fill="none" id="LIB-to-HOST" style="stroke:#181818;stroke-width:1.0;"/><polygon fill="#181818" points="186.87,249.08,186.9383,258.9286,188.9323,253.6349,194.2261,255.6289,186.87,249.08" style="stroke:#181818;stroke-width:1.0;"/><text fill="#000000" font-family="sans-serif" font-size="13" lengthAdjust="spacing" textLength="225.4307" x="208" y="293.4951">Snapshots, Events, GPX (String/Bytes)</text></g><!--link LIB to FS--><g id="link_LIB_FS"><path d="M231,368.18 C231,389.82 231,418.58 231,441.6 " fill="none" id="LIB-to-FS" style="stroke:#181818;stroke-width:1.0;"/><polygon fill="#181818" points="231,447.6,235,438.6,231,442.6,227,438.6,231,447.6" style="stroke:#181818;stroke-width:1.0;"/><text fill="#000000" font-family="sans-serif" font-size="13" lengthAdjust="spacing" textLength="164.7407" x="232" y="414.4951">optionaler GPX-Datei-Export</text></g><!--link LIB to W3W--><g id="link_LIB_W3W"><path d="M328.52,361.38 C373.06,369.28 425.84,381.53 471,400 C500.83,412.2 526.6689,428.773 548.3689,444.473 " fill="none" id="LIB-to-W3W" style="stroke:#181818;stroke-width:1.0;"/><polygon fill="#181818" points="553.23,447.99,548.283,439.4737,549.1791,445.0591,543.5936,445.9552,553.23,447.99" style="stroke:#181818;stroke-width:1.0;"/><text fill="#000000" font-family="sans-serif" font-size="13" lengthAdjust="spacing" textLength="100.4199" x="507" y="414.4951">HTTPS (optional)</text></g><!--SRC=[NP51Rzim38Nl-XL4JWamDuVUTXYGR6cJjkkCEMXsLItQ5coBXaWtQuR-zz4gQWmx2TBxIBv7SUl3OAFjeQT0PHEfHv0uek5PuSOwEljGGsKxHcC2EOJ5BhWQeqM1DVp4iWaO5s0PlksU3bztyCS0l8DtJz-pFD85cHEWzwG2s2Y-igN0OayisIQSCRWnr0dR_oYE_r5tziLcEVfE6Mwf7oXW44pums6hzDiyzO5Qsw7QiOAUNrcmJznDOTu-8jm-5iMwmC0KMMpPmh9H7unUVBrAz4IOigFHmUBKMBa-KNGCc_oGvDFroPY9WIpxaXp3PyY9jG45pc0C3kx7o4vD19Fq2LIlogKqsWasOnN72itq_4-V8jY16nB-1BiNpQddRVuBbeL4_OprzbMGLtFHJQ4bD4o3DNUSq2nbptQ_1ueoW-fPoVtnc1Um_2XOJIiHX6SIeTxSemy8paTizN5leplRYBh34QFk7jmOoqPrXAr_xZn9W-sLUKIvd36sbx6Elgh0iyoEqYeqH4l3W9rS6Vrfc4R-1G00]--></g></svg>